<svg width="96" height="15" viewBox="0 0 96 15" fill="none" xmlns="http://www.w3.org/2000/svg">
<path d="M9.05244 8.94231C9.16038 8.94231 9.26096 8.96394 9.35419 9.00721C9.44741 9.04567 9.52837 9.09856 9.59706 9.16587C9.67065 9.23317 9.72708 9.3149 9.76633 9.41106C9.81049 9.5024 9.83257 9.60096 9.83257 9.70673C9.83257 9.90865 9.75161 10.0913 9.5897 10.2548C8.49555 11.1106 7.26158 11.5385 5.88776 11.5385C4.25882 11.5385 2.87029 10.976 1.72217 9.85096C0.574057 8.72596 0 7.36538 0 5.76923C0 4.17788 0.574057 2.81971 1.72217 1.69471C2.87519 0.564904 4.26372 0 5.88776 0C7.2812 0 8.53971 0.449519 9.66329 1.34856C9.80067 1.47837 9.86937 1.65385 9.86937 1.875C9.86937 1.98558 9.84974 2.08654 9.81049 2.17788C9.77124 2.26923 9.71481 2.35096 9.64121 2.42308C9.57252 2.49038 9.48911 2.54327 9.39098 2.58173C9.29776 2.62019 9.19718 2.63942 9.08924 2.63942C8.89788 2.63942 8.7188 2.56731 8.55198 2.42308C8.17909 2.13462 7.76694 1.91346 7.31555 1.75962C6.86906 1.60577 6.39313 1.52885 5.88776 1.52885C4.69059 1.52885 3.66759 1.94471 2.81877 2.77644C1.97976 3.59856 1.56026 4.59615 1.56026 5.76923C1.56026 6.94712 1.97976 7.94712 2.81877 8.76923C3.66268 9.59615 4.68568 10.0096 5.88776 10.0096C6.91322 10.0096 7.81601 9.69952 8.59614 9.07933C8.7237 8.99279 8.8758 8.94712 9.05244 8.94231Z" fill="#3F1C78"/>
<path d="M19.15 7.5C19.15 8.625 18.7476 9.57692 17.943 10.3558C17.1285 11.1442 16.157 11.5385 15.0285 11.5385C13.8902 11.5385 12.9187 11.1442 12.1141 10.3558C11.3094 9.56731 10.9071 8.61538 10.9071 7.5C10.9071 6.38462 11.3094 5.43269 12.1141 4.64423C12.9187 3.85577 13.8902 3.46154 15.0285 3.46154C16.157 3.46154 17.1285 3.85577 17.943 4.64423C18.3453 5.03846 18.6446 5.47356 18.8408 5.94952C19.042 6.42548 19.145 6.94231 19.15 7.5ZM15.0285 4.96875C14.6654 4.96875 14.3269 5.03606 14.0129 5.17067C13.6989 5.30529 13.4266 5.48798 13.196 5.71875C12.9653 5.94471 12.7814 6.21154 12.644 6.51923C12.5115 6.82692 12.4453 7.15385 12.4453 7.5C12.4453 7.84615 12.5115 8.17308 12.644 8.48077C12.7814 8.78846 12.9653 9.05769 13.196 9.28846C13.4266 9.51442 13.6989 9.69471 14.0129 9.82933C14.3269 9.96394 14.6654 10.0313 15.0285 10.0313C15.3867 10.0313 15.7228 9.96394 16.0368 9.82933C16.3508 9.69471 16.6231 9.51202 16.8537 9.28125C17.0892 9.05048 17.2732 8.78365 17.4057 8.48077C17.5431 8.17308 17.6118 7.84615 17.6118 7.5C17.6118 7.15385 17.5431 6.82933 17.4057 6.52644C17.2732 6.21875 17.0892 5.94952 16.8537 5.71875C16.6231 5.48798 16.3508 5.30529 16.0368 5.17067C15.7228 5.03606 15.3867 4.96875 15.0285 4.96875Z" fill="#3F1C78"/>
<path d="M21.8657 7.5C21.8657 7.84615 21.9319 8.17308 22.0644 8.48077C22.2018 8.78846 22.3858 9.05769 22.6164 9.28846C22.847 9.51442 23.1193 9.69471 23.4333 9.82933C23.7473 9.96394 24.0859 10.0313 24.4489 10.0313C24.8071 10.0313 25.1432 9.96394 25.4572 9.82933C25.7712 9.69471 26.0435 9.51202 26.2741 9.28125C26.5097 9.05048 26.6937 8.78365 26.8261 8.48077C26.9635 8.17308 27.0322 7.84615 27.0322 7.5C27.0322 7.15385 26.9635 6.82933 26.8261 6.52644C26.6937 6.21875 26.5097 5.94952 26.2741 5.71875C26.0435 5.48798 25.7712 5.30529 25.4572 5.17067C25.1432 5.03606 24.8071 4.96875 24.4489 4.96875C24.0859 4.96875 23.7473 5.03606 23.4333 5.17067C23.1193 5.30529 22.847 5.48798 22.6164 5.71875C22.3858 5.94471 22.2018 6.21154 22.0644 6.51923C21.9319 6.82692 21.8657 7.15385 21.8657 7.5ZM24.4489 11.5385C23.4627 11.5385 22.6017 11.2428 21.8657 10.6514V14.25C21.8657 14.4663 21.7896 14.6442 21.6375 14.7837C21.4903 14.9279 21.3088 15 21.0929 15C20.8721 15 20.6881 14.9279 20.5409 14.7837C20.3987 14.6442 20.3275 14.4663 20.3275 14.25V7.5C20.3275 6.38462 20.7298 5.43269 21.5345 4.64423C22.3392 3.85577 23.3106 3.46154 24.4489 3.46154C25.5774 3.46154 26.5489 3.85577 27.3634 4.64423C27.7657 5.03365 28.0675 5.46875 28.2686 5.94952C28.4698 6.42548 28.5704 6.94231 28.5704 7.5C28.5704 8.625 28.168 9.57692 27.3634 10.3558C26.9512 10.7548 26.5023 11.0529 26.0166 11.25C25.5357 11.4423 25.0132 11.5385 24.4489 11.5385Z" fill="#3F1C78"/>
<path d="M32.4563 10.7885L29.8068 4.55048C29.7577 4.4399 29.7332 4.32692 29.7332 4.21154C29.7332 4.11058 29.7528 4.01442 29.7921 3.92308C29.8313 3.83173 29.8853 3.7524 29.954 3.6851C30.0227 3.61298 30.1036 3.55769 30.1969 3.51923C30.2901 3.48077 30.3907 3.46154 30.4986 3.46154C30.6507 3.46154 30.793 3.50481 30.9255 3.59135C31.058 3.67308 31.1585 3.79567 31.2272 3.95913L33.2953 8.79808L35.3634 3.94471C35.4223 3.80048 35.5057 3.6851 35.6136 3.59856C35.7265 3.50721 35.8835 3.46154 36.0846 3.46154C36.1926 3.46154 36.2932 3.48077 36.3864 3.51923C36.4796 3.55769 36.5606 3.61298 36.6293 3.6851C36.6979 3.7524 36.7519 3.83173 36.7912 3.92308C36.8353 4.01442 36.8574 4.11058 36.8574 4.21154C36.8574 4.31731 36.8304 4.43029 36.7764 4.55048L32.5446 14.4952C32.4808 14.6442 32.3827 14.7644 32.2502 14.8558C32.1178 14.9519 31.973 15 31.816 15C31.5952 15 31.4112 14.9279 31.264 14.7837C31.1217 14.6394 31.0506 14.4591 31.0506 14.2428C31.0506 14.1274 31.0751 14.0168 31.1242 13.9111L32.4563 10.7885Z" fill="#3F1C78"/>
<path d="M50.5391 1.52885H47.632V10.774C47.632 10.9856 47.556 11.1659 47.4039 11.3149C47.2518 11.4639 47.0678 11.5385 46.8519 11.5385C46.636 11.5385 46.452 11.4639 46.2999 11.3149C46.1478 11.1659 46.0718 10.9856 46.0718 10.774V1.52885H43.1647C42.9488 1.52885 42.7648 1.45433 42.6127 1.30529C42.4606 1.15625 42.3845 0.975962 42.3845 0.764423C42.3845 0.552885 42.4606 0.372596 42.6127 0.223558C42.7648 0.0745192 42.9488 0 43.1647 0H50.5391C50.755 0 50.939 0.0745192 51.0911 0.223558C51.2432 0.372596 51.3192 0.552885 51.3192 0.764423C51.3192 0.975962 51.2432 1.15625 51.0911 1.30529C50.939 1.45433 50.755 1.52885 50.5391 1.52885Z" fill="#3F1C78"/>
<path d="M50.9954 4.21154V4.35577C51.3634 4.06731 51.7633 3.84615 52.195 3.69231C52.6268 3.53846 53.088 3.46154 53.5787 3.46154C53.7945 3.46154 54.0251 3.47596 54.2705 3.50481C54.5207 3.53365 54.7489 3.58654 54.9549 3.66346C55.1659 3.73558 55.3401 3.83654 55.4775 3.96635C55.6148 4.09615 55.6835 4.26442 55.6835 4.47115C55.6835 4.57692 55.6615 4.67548 55.6173 4.76683C55.578 4.85817 55.5241 4.9399 55.4554 5.01202C55.3867 5.07933 55.3057 5.13221 55.2125 5.17067C55.1193 5.20913 55.0187 5.22837 54.9108 5.22837C54.8175 5.22837 54.7096 5.20192 54.5869 5.14904C54.2778 5.02885 53.9417 4.96875 53.5787 4.96875C53.2205 4.96875 52.8844 5.03606 52.5704 5.17067C52.2564 5.30048 51.9816 5.48077 51.7461 5.71154C51.5155 5.9375 51.3315 6.20433 51.1941 6.51202C51.0616 6.81971 50.9954 7.14904 50.9954 7.5V10.7885C50.9954 10.9952 50.9194 11.1731 50.7672 11.3221C50.6201 11.4663 50.441 11.5385 50.23 11.5385C50.0141 11.5385 49.8301 11.4663 49.678 11.3221C49.5308 11.1731 49.4572 10.9952 49.4572 10.7885V4.21154C49.4572 4.00481 49.5308 3.82933 49.678 3.6851C49.8301 3.53606 50.0141 3.46154 50.23 3.46154C50.441 3.46154 50.6201 3.53606 50.7672 3.6851C50.9194 3.82933 50.9954 4.00481 50.9954 4.21154Z" fill="#3F1C78"/>
<path d="M60.6734 4.96875C60.3103 4.96875 59.9718 5.03606 59.6578 5.17067C59.3438 5.30529 59.0715 5.48798 58.8408 5.71875C58.6102 5.94471 58.4262 6.21154 58.2889 6.51923C58.1564 6.82692 58.0902 7.15385 58.0902 7.5C58.0902 7.84615 58.1564 8.17308 58.2889 8.48077C58.4262 8.78846 58.6102 9.05769 58.8408 9.28846C59.0715 9.51442 59.3438 9.69471 59.6578 9.82933C59.9718 9.96394 60.3103 10.0313 60.6734 10.0313C61.0316 10.0313 61.3677 9.96394 61.6817 9.82933C61.9957 9.69471 62.268 9.51202 62.4986 9.28125C62.7341 9.05048 62.9181 8.78365 63.0506 8.48077C63.188 8.17308 63.2567 7.84615 63.2567 7.5C63.2567 7.15385 63.188 6.82933 63.0506 6.52644C62.9181 6.21875 62.7341 5.94952 62.4986 5.71875C62.268 5.48798 61.9957 5.30529 61.6817 5.17067C61.3677 5.03606 61.0316 4.96875 60.6734 4.96875ZM63.2567 10.7885V10.6442C62.8887 10.9327 62.4888 11.1538 62.057 11.3077C61.6253 11.4615 61.1641 11.5385 60.6734 11.5385C59.5351 11.5385 58.5636 11.1442 57.759 10.3558C56.9543 9.56731 56.552 8.61538 56.552 7.5C56.552 6.38462 56.9543 5.43269 57.759 4.64423C58.5636 3.85577 59.5351 3.46154 60.6734 3.46154C61.8019 3.46154 62.7734 3.85577 63.5879 4.64423C64.3925 5.43269 64.7948 6.38462 64.7948 7.5V10.7885C64.7948 10.9952 64.7188 11.1731 64.5667 11.3221C64.4195 11.4663 64.2404 11.5385 64.0294 11.5385C63.8136 11.5385 63.6296 11.4663 63.4775 11.3221C63.3303 11.1731 63.2567 10.9952 63.2567 10.7885Z" fill="#3F1C78"/>
<path d="M72.6771 7.5C72.6771 7.15385 72.6084 6.82933 72.471 6.52644C72.3385 6.21875 72.1546 5.94952 71.919 5.71875C71.6884 5.48798 71.4161 5.30529 71.1021 5.17067C70.7881 5.03606 70.452 4.96875 70.0938 4.96875C69.7308 4.96875 69.3922 5.03606 69.0782 5.17067C68.7642 5.30529 68.4919 5.48798 68.2613 5.71875C68.0307 5.94471 67.8467 6.21154 67.7093 6.51923C67.5768 6.82692 67.5106 7.15385 67.5106 7.5C67.5106 7.84615 67.5768 8.17308 67.7093 8.48077C67.8467 8.78846 68.0307 9.05769 68.2613 9.28846C68.4919 9.51442 68.7642 9.69471 69.0782 9.82933C69.3922 9.96394 69.7308 10.0313 70.0938 10.0313C70.452 10.0313 70.7881 9.96394 71.1021 9.82933C71.4161 9.69471 71.6884 9.51202 71.919 9.28125C72.1546 9.05048 72.3385 8.78365 72.471 8.48077C72.6084 8.17308 72.6771 7.84615 72.6771 7.5ZM70.0938 3.46154C71.0702 3.46154 71.9313 3.75721 72.6771 4.34856V0.75C72.6771 0.533654 72.7482 0.355769 72.8905 0.216346C73.0377 0.0721154 73.2217 0 73.4425 0C73.6584 0 73.8399 0.0721154 73.9871 0.216346C74.1392 0.355769 74.2153 0.533654 74.2153 0.75V7.5C74.2153 8.625 73.8129 9.57692 73.0083 10.3558C72.1938 11.1442 71.2223 11.5385 70.0938 11.5385C68.9555 11.5385 67.9841 11.1442 67.1794 10.3558C66.3747 9.56731 65.9724 8.61538 65.9724 7.5C65.9724 6.38462 66.3747 5.43269 67.1794 4.64423C67.9841 3.85577 68.9555 3.46154 70.0938 3.46154Z" fill="#3F1C78"/>
<path d="M77.4756 2.02644C77.4756 2.27163 77.3873 2.48077 77.2107 2.65385C77.034 2.82692 76.8206 2.91346 76.5704 2.91346C76.3201 2.91346 76.1067 2.82692 75.9301 2.65385C75.7535 2.48077 75.6651 2.27163 75.6651 2.02644C75.6651 1.78125 75.7535 1.57212 75.9301 1.39904C76.1067 1.22596 76.3201 1.13942 76.5704 1.13942C76.8206 1.13942 77.034 1.22596 77.2107 1.39904C77.3873 1.57212 77.4756 1.78125 77.4756 2.02644ZM75.805 10.7813V4.21875C75.805 4.00721 75.8786 3.82933 76.0258 3.6851C76.1779 3.53606 76.3594 3.46154 76.5704 3.46154C76.7814 3.46154 76.9604 3.53606 77.1076 3.6851C77.2597 3.82933 77.3382 4.00721 77.3431 4.21875V10.7813C77.3382 10.9928 77.2597 11.1731 77.1076 11.3221C76.9604 11.4663 76.7814 11.5385 76.5704 11.5385C76.3594 11.5385 76.1779 11.4663 76.0258 11.3221C75.8786 11.1731 75.805 10.9928 75.805 10.7813Z" fill="#3F1C78"/>
<path d="M80.4563 4.20433C81.1089 3.70913 81.8767 3.46154 82.7599 3.46154C83.2751 3.46154 83.7633 3.5601 84.2245 3.75721C84.6906 3.95433 85.1003 4.22356 85.4535 4.5649C85.8068 4.90144 86.0865 5.30048 86.2925 5.76202C86.4986 6.21875 86.6017 6.70673 86.6017 7.22596V10.7813C86.6017 10.9928 86.5256 11.1731 86.3735 11.3221C86.2263 11.4663 86.0472 11.5385 85.8362 11.5385C85.6204 11.5385 85.4364 11.4663 85.2843 11.3221C85.1371 11.1731 85.0635 10.9928 85.0635 10.7813V7.22596C85.0635 6.91827 85.0021 6.6274 84.8795 6.35337C84.7568 6.07933 84.59 5.84135 84.379 5.63942C84.173 5.43269 83.9301 5.26923 83.6504 5.14904C83.3707 5.02885 83.0739 4.96875 82.7599 4.96875C82.441 4.96875 82.1417 5.02885 81.862 5.14904C81.5872 5.26442 81.3444 5.42548 81.1334 5.63221C80.9224 5.83894 80.7556 6.07933 80.6329 6.35337C80.5152 6.6274 80.4563 6.91827 80.4563 7.22596V10.7813C80.4563 10.9928 80.3803 11.1731 80.2282 11.3221C80.081 11.4663 79.9019 11.5385 79.6909 11.5385C79.475 11.5385 79.291 11.4663 79.1389 11.3221C78.9917 11.1731 78.9181 10.9928 78.9181 10.7813V4.21875C78.9181 4.01202 78.9917 3.83413 79.1389 3.6851C79.291 3.53606 79.475 3.46154 79.6909 3.46154C79.9019 3.46154 80.081 3.53606 80.2282 3.6851C80.3803 3.83413 80.4563 4.00721 80.4563 4.20433Z" fill="#3F1C78"/>
<path d="M91.8786 4.96875C91.5155 4.96875 91.1769 5.03606 90.8629 5.17067C90.5489 5.30529 90.2766 5.48798 90.046 5.71875C89.8154 5.94471 89.6314 6.21154 89.494 6.51923C89.3615 6.82692 89.2953 7.15385 89.2953 7.5C89.2953 7.84615 89.3615 8.17308 89.494 8.48077C89.6314 8.78846 89.8154 9.05769 90.046 9.28846C90.2766 9.51442 90.5489 9.69471 90.8629 9.82933C91.1769 9.96394 91.5155 10.0313 91.8786 10.0313C92.2367 10.0313 92.5728 9.96394 92.8868 9.82933C93.2009 9.69471 93.4732 9.51202 93.7038 9.28125C93.9393 9.05048 94.1233 8.78365 94.2558 8.48077C94.3931 8.17308 94.4618 7.84615 94.4618 7.5C94.4618 7.15385 94.3931 6.82933 94.2558 6.52644C94.1233 6.21875 93.9393 5.94952 93.7038 5.71875C93.4732 5.48798 93.2009 5.30529 92.8868 5.17067C92.5728 5.03606 92.2367 4.96875 91.8786 4.96875ZM94.4618 10.6514C93.7259 11.2428 92.8648 11.5385 91.8786 11.5385C90.7403 11.5385 89.7688 11.1442 88.9641 10.3558C88.1595 9.56731 87.7571 8.61538 87.7571 7.5C87.7571 6.38462 88.1595 5.43269 88.9641 4.64423C89.7688 3.85577 90.7403 3.46154 91.8786 3.46154C93.0071 3.46154 93.9785 3.85577 94.793 4.64423C95.5977 5.43269 96 6.38462 96 7.5V11.5096C96 11.8558 95.946 12.1827 95.8381 12.4904C95.7301 12.7981 95.5805 13.0793 95.3891 13.3341C95.1978 13.5938 94.9721 13.8269 94.7121 14.0337C94.452 14.2404 94.1699 14.4135 93.8657 14.5529C93.5664 14.6971 93.2524 14.8077 92.9236 14.8846C92.5949 14.9615 92.2662 15 91.9374 15C91.5449 15 91.1598 14.9495 90.782 14.8486C90.4042 14.7524 90.046 14.6082 89.7075 14.4159C89.3689 14.2236 89.0573 13.9856 88.7728 13.7019C88.4931 13.4183 88.2551 13.101 88.0589 12.75C87.9804 12.6394 87.9411 12.5048 87.9411 12.3462C87.9411 12.1298 88.0147 11.9495 88.1619 11.8053C88.3091 11.6659 88.4931 11.5962 88.7139 11.5962C88.8611 11.5962 88.9813 11.6298 89.0745 11.6971C89.1726 11.7644 89.3051 11.9135 89.4719 12.1442C89.6388 12.375 89.786 12.5505 89.9135 12.6707C90.4729 13.2188 91.1475 13.4928 91.9374 13.4928C92.7323 13.4928 93.4045 13.2236 93.954 12.6851C94.2925 12.2813 94.4618 11.8894 94.4618 11.5096V10.6514Z" fill="#3F1C78"/>
</svg>
