<svg width="108" height="11" viewBox="0 0 108 11" fill="none" xmlns="http://www.w3.org/2000/svg">
<path d="M8.205 8.6475C8.285 8.6475 8.355 8.68 8.415 8.745L8.9925 9.3675C8.5525 9.8775 8.0175 10.275 7.3875 10.56C6.7625 10.845 6.005 10.9875 5.115 10.9875C4.345 10.9875 3.645 10.855 3.015 10.59C2.385 10.32 1.8475 9.945 1.4025 9.465C0.9575 8.98 0.6125 8.4 0.3675 7.725C0.1225 7.05 0 6.3075 0 5.4975C0 4.6875 0.1275 3.945 0.3825 3.27C0.6375 2.595 0.995 2.015 1.455 1.53C1.92 1.045 2.475 0.670001 3.12 0.405C3.765 0.135 4.4775 0 5.2575 0C6.0225 0 6.6975 0.1225 7.2825 0.3675C7.8675 0.6125 8.3825 0.945 8.8275 1.365L8.3475 2.0325C8.3175 2.0825 8.2775 2.125 8.2275 2.16C8.1825 2.19 8.12 2.205 8.04 2.205C7.95 2.205 7.84 2.1575 7.71 2.0625C7.58 1.9625 7.41 1.8525 7.2 1.7325C6.99 1.6125 6.7275 1.505 6.4125 1.41C6.0975 1.31 5.71 1.26 5.25 1.26C4.695 1.26 4.1875 1.3575 3.7275 1.5525C3.2675 1.7425 2.87 2.02 2.535 2.385C2.205 2.75 1.9475 3.195 1.7625 3.72C1.5775 4.245 1.485 4.8375 1.485 5.4975C1.485 6.1675 1.58 6.765 1.77 7.29C1.965 7.815 2.2275 8.26 2.5575 8.625C2.8925 8.985 3.285 9.26 3.735 9.45C4.19 9.64 4.68 9.735 5.205 9.735C5.525 9.735 5.8125 9.7175 6.0675 9.6825C6.3275 9.6425 6.565 9.5825 6.78 9.5025C7 9.4225 7.2025 9.3225 7.3875 9.2025C7.5775 9.0775 7.765 8.93 7.95 8.76C8.035 8.685 8.12 8.6475 8.205 8.6475Z" fill="#3F1C78"/>
<path d="M20.4045 5.4975C20.4045 6.3025 20.277 7.0425 20.022 7.7175C19.767 8.3875 19.407 8.965 18.942 9.45C18.477 9.935 17.917 10.3125 17.262 10.5825C16.612 10.8475 15.892 10.98 15.102 10.98C14.312 10.98 13.592 10.8475 12.942 10.5825C12.292 10.3125 11.7345 9.935 11.2695 9.45C10.8045 8.965 10.4445 8.3875 10.1895 7.7175C9.93445 7.0425 9.80695 6.3025 9.80695 5.4975C9.80695 4.6925 9.93445 3.955 10.1895 3.285C10.4445 2.61 10.8045 2.03 11.2695 1.545C11.7345 1.055 12.292 0.675 12.942 0.405C13.592 0.135 14.312 0 15.102 0C15.892 0 16.612 0.135 17.262 0.405C17.917 0.675 18.477 1.055 18.942 1.545C19.407 2.03 19.767 2.61 20.022 3.285C20.277 3.955 20.4045 4.6925 20.4045 5.4975ZM18.912 5.4975C18.912 4.8375 18.822 4.245 18.642 3.72C18.462 3.195 18.207 2.7525 17.877 2.3925C17.547 2.0275 17.147 1.7475 16.677 1.5525C16.207 1.3575 15.682 1.26 15.102 1.26C14.527 1.26 14.0045 1.3575 13.5345 1.5525C13.0645 1.7475 12.662 2.0275 12.327 2.3925C11.997 2.7525 11.742 3.195 11.562 3.72C11.382 4.245 11.292 4.8375 11.292 5.4975C11.292 6.1575 11.382 6.75 11.562 7.275C11.742 7.795 11.997 8.2375 12.327 8.6025C12.662 8.9625 13.0645 9.24 13.5345 9.435C14.0045 9.625 14.527 9.72 15.102 9.72C15.682 9.72 16.207 9.625 16.677 9.435C17.147 9.24 17.547 8.9625 17.877 8.6025C18.207 8.2375 18.462 7.795 18.642 7.275C18.822 6.75 18.912 6.1575 18.912 5.4975Z" fill="#3F1C78"/>
<path d="M25.6587 5.6925C26.0737 5.6925 26.4387 5.6375 26.7537 5.5275C27.0737 5.4175 27.3412 5.265 27.5562 5.07C27.7762 4.87 27.9412 4.6325 28.0512 4.3575C28.1612 4.0825 28.2162 3.78 28.2162 3.45C28.2162 2.765 28.0037 2.23 27.5787 1.845C27.1587 1.46 26.5187 1.2675 25.6587 1.2675H23.9337V5.6925H25.6587ZM25.6587 0.12C26.3387 0.12 26.9287 0.2 27.4287 0.360001C27.9337 0.515 28.3512 0.7375 28.6812 1.0275C29.0112 1.3175 29.2562 1.6675 29.4162 2.0775C29.5812 2.4875 29.6637 2.945 29.6637 3.45C29.6637 3.95 29.5762 4.4075 29.4012 4.8225C29.2262 5.2375 28.9687 5.595 28.6287 5.895C28.2937 6.195 27.8762 6.43 27.3762 6.6C26.8812 6.765 26.3087 6.8475 25.6587 6.8475H23.9337V10.8675H22.4862V0.12H25.6587Z" fill="#3F1C78"/>
<path d="M35.3102 6.585V10.8675H33.8552V6.585L29.9177 0.12H31.1927C31.3227 0.12 31.4252 0.1525 31.5002 0.2175C31.5752 0.2775 31.6402 0.3575 31.6952 0.457501L34.1552 4.635C34.2452 4.81 34.3277 4.975 34.4027 5.13C34.4777 5.28 34.5427 5.4325 34.5977 5.5875C34.6527 5.4325 34.7152 5.28 34.7852 5.13C34.8552 4.975 34.9327 4.81 35.0177 4.635L37.4702 0.457501C37.5152 0.372501 37.5777 0.295 37.6577 0.225C37.7377 0.155 37.8402 0.12 37.9652 0.12H39.2477L35.3102 6.585Z" fill="#3F1C78"/>
<path d="M50.7009 1.3425H47.2209V10.8675H45.7734V1.3425H42.2859V0.12H50.7009V1.3425Z" fill="#3F1C78"/>
<path d="M55.2732 5.325C55.6932 5.325 56.0632 5.275 56.3832 5.175C56.7082 5.07 56.9782 4.925 57.1932 4.74C57.4132 4.55 57.5782 4.325 57.6882 4.065C57.7982 3.805 57.8532 3.5175 57.8532 3.2025C57.8532 2.5625 57.6432 2.08 57.2232 1.755C56.8032 1.43 56.1732 1.2675 55.3332 1.2675H53.7432V5.325H55.2732ZM60.2382 10.8675H58.9482C58.6832 10.8675 58.4882 10.765 58.3632 10.56L55.5732 6.72C55.4882 6.6 55.3957 6.515 55.2957 6.465C55.2007 6.41 55.0507 6.3825 54.8457 6.3825H53.7432V10.8675H52.2957V0.12H55.3332C56.0132 0.12 56.6007 0.19 57.0957 0.33C57.5907 0.465 57.9982 0.662501 58.3182 0.9225C58.6432 1.1825 58.8832 1.4975 59.0382 1.8675C59.1932 2.2325 59.2707 2.6425 59.2707 3.0975C59.2707 3.4775 59.2107 3.8325 59.0907 4.1625C58.9707 4.4925 58.7957 4.79 58.5657 5.055C58.3407 5.315 58.0632 5.5375 57.7332 5.7225C57.4082 5.9075 57.0382 6.0475 56.6232 6.1425C56.8082 6.2475 56.9682 6.4 57.1032 6.6L60.2382 10.8675Z" fill="#3F1C78"/>
<path d="M67.4075 6.8775L65.72 2.505C65.67 2.375 65.6175 2.225 65.5625 2.055C65.5075 1.88 65.455 1.695 65.405 1.5C65.3 1.905 65.1925 2.2425 65.0825 2.5125L63.395 6.8775H67.4075ZM70.4375 10.8675H69.3125C69.1825 10.8675 69.0775 10.835 68.9975 10.77C68.9175 10.705 68.8575 10.6225 68.8175 10.5225L67.8125 7.9275H62.99L61.985 10.5225C61.955 10.6125 61.8975 10.6925 61.8125 10.7625C61.7275 10.8325 61.6225 10.8675 61.4975 10.8675H60.3725L64.67 0.12H66.14L70.4375 10.8675Z" fill="#3F1C78"/>
<path d="M81.1664 5.4975C81.1664 6.3025 81.0389 7.035 80.7839 7.695C80.5289 8.355 80.1689 8.92 79.7039 9.39C79.2389 9.86 78.6789 10.225 78.0239 10.485C77.3739 10.74 76.6539 10.8675 75.8639 10.8675H71.8514V0.12H75.8639C76.6539 0.12 77.3739 0.25 78.0239 0.510001C78.6789 0.765001 79.2389 1.13 79.7039 1.605C80.1689 2.075 80.5289 2.64 80.7839 3.3C81.0389 3.96 81.1664 4.6925 81.1664 5.4975ZM79.6739 5.4975C79.6739 4.8375 79.5839 4.2475 79.4039 3.7275C79.2239 3.2075 78.9689 2.7675 78.6389 2.4075C78.3089 2.0475 77.9089 1.7725 77.4389 1.5825C76.9689 1.3925 76.4439 1.2975 75.8639 1.2975H73.3064V9.69H75.8639C76.4439 9.69 76.9689 9.595 77.4389 9.405C77.9089 9.215 78.3089 8.9425 78.6389 8.5875C78.9689 8.2275 79.2239 7.7875 79.4039 7.2675C79.5839 6.7475 79.6739 6.1575 79.6739 5.4975Z" fill="#3F1C78"/>
<path d="M84.7175 10.8675H83.2625V0.12H84.7175V10.8675Z" fill="#3F1C78"/>
<path d="M96.1741 0.12V10.8675H95.4466C95.3316 10.8675 95.2341 10.8475 95.1541 10.8075C95.0791 10.7675 95.0041 10.7 94.9291 10.605L88.7116 2.505C88.7216 2.63 88.7291 2.7525 88.7341 2.8725C88.7391 2.9925 88.7416 3.105 88.7416 3.21V10.8675H87.4666V0.12H88.2166C88.2816 0.12 88.3366 0.125 88.3816 0.135C88.4266 0.14 88.4666 0.1525 88.5016 0.1725C88.5366 0.1875 88.5716 0.2125 88.6066 0.247501C88.6416 0.277501 88.6791 0.3175 88.7191 0.3675L94.9366 8.46C94.9266 8.33 94.9166 8.205 94.9066 8.085C94.9016 7.96 94.8991 7.8425 94.8991 7.7325V0.12H96.1741Z" fill="#3F1C78"/>
<path d="M107.652 5.7V9.825C107.112 10.215 106.534 10.5075 105.919 10.7025C105.309 10.8925 104.639 10.9875 103.909 10.9875C103.044 10.9875 102.264 10.855 101.569 10.59C100.874 10.32 100.279 9.945 99.7842 9.465C99.2942 8.98 98.9167 8.4 98.6517 7.725C98.3867 7.05 98.2542 6.3075 98.2542 5.4975C98.2542 4.6775 98.3817 3.93 98.6367 3.255C98.8967 2.58 99.2642 2.0025 99.7392 1.5225C100.214 1.0375 100.792 0.6625 101.472 0.397501C102.152 0.1325 102.912 0 103.752 0C104.177 0 104.572 0.0324998 104.937 0.0974998C105.302 0.1575 105.639 0.2475 105.949 0.3675C106.259 0.4825 106.547 0.625 106.812 0.795001C107.077 0.960001 107.324 1.1475 107.554 1.3575L107.142 2.0175C107.077 2.1175 106.992 2.1825 106.887 2.2125C106.787 2.2375 106.674 2.2125 106.549 2.1375C106.429 2.0675 106.292 1.9825 106.137 1.8825C105.982 1.7825 105.792 1.6875 105.567 1.5975C105.347 1.5025 105.084 1.4225 104.779 1.3575C104.479 1.2925 104.122 1.26 103.707 1.26C103.102 1.26 102.554 1.36 102.064 1.56C101.574 1.755 101.157 2.0375 100.812 2.4075C100.467 2.7725 100.202 3.2175 100.017 3.7425C99.8317 4.2625 99.7392 4.8475 99.7392 5.4975C99.7392 6.1725 99.8342 6.7775 100.024 7.3125C100.219 7.8425 100.494 8.295 100.849 8.67C101.209 9.04 101.644 9.3225 102.154 9.5175C102.664 9.7125 103.237 9.81 103.872 9.81C104.372 9.81 104.814 9.755 105.199 9.645C105.589 9.53 105.969 9.3725 106.339 9.1725V6.81H104.667C104.572 6.81 104.494 6.7825 104.434 6.7275C104.379 6.6725 104.352 6.605 104.352 6.525V5.7H107.652Z" fill="#3F1C78"/>
</svg>
