<svg width="22" height="31" viewBox="0 0 22 31" fill="none" xmlns="http://www.w3.org/2000/svg">
<g clip-path="url(#clip0_156_1216)">
<path d="M18.4229 3.43726C16.487 1.43968 13.9194 0.352297 11.1891 0.37134C5.64393 0.412824 1.11916 5.13589 1.10258 10.9001C1.09723 12.768 1.56728 14.6051 2.46207 16.2127C3.32974 17.7717 4.57523 19.0839 6.06364 20.0072C6.81861 20.4754 7.28765 21.3323 7.28765 22.2432V23.4959C6.9361 23.7081 6.69859 24.1027 6.69859 24.5547C6.69859 24.8442 6.79623 25.1102 6.95848 25.32C6.79623 25.5299 6.69859 25.7958 6.69859 26.0853C6.69859 26.3748 6.79623 26.6408 6.95848 26.8506C6.79623 27.0604 6.69859 27.3264 6.69859 27.6159C6.69859 28.2911 7.22711 28.8404 7.87672 28.8404H8.31396L8.90308 30.371H13.6248L14.2138 28.8405H14.651C15.3006 28.8405 15.8291 28.2911 15.8291 27.616C15.8291 27.3265 15.7315 27.0605 15.5693 26.8507C15.7315 26.6409 15.8291 26.3749 15.8291 26.0854C15.8291 25.7959 15.7315 25.5299 15.5693 25.3201C15.7315 25.1103 15.8291 24.8443 15.8291 24.5548C15.8291 24.1027 15.5916 23.7081 15.2401 23.496V22.2433C15.2401 21.3337 15.7133 20.4742 16.475 20.0004C17.9562 19.079 19.1964 17.7719 20.0617 16.2201C20.9538 14.6202 21.4252 12.7917 21.4252 10.9323C21.4252 8.09687 20.359 5.43507 18.4229 3.43726ZM13.0265 29.4526H9.50128L9.26563 28.8404H13.2621L13.0265 29.4526ZM14.651 27.9221H7.87677C7.71436 27.9221 7.58227 27.7847 7.58227 27.616C7.58227 27.4472 7.71441 27.3099 7.87677 27.3099H14.651C14.8134 27.3099 14.9455 27.4472 14.9455 27.616C14.9455 27.7847 14.8134 27.9221 14.651 27.9221ZM14.651 26.3914H7.87677C7.71436 26.3914 7.58227 26.2541 7.58227 26.0853C7.58227 25.9166 7.71441 25.7792 7.87677 25.7792H14.651C14.8134 25.7792 14.9455 25.9166 14.9455 26.0853C14.9455 26.2541 14.8134 26.3914 14.651 26.3914ZM14.651 24.8608H7.87677C7.71436 24.8608 7.58227 24.7235 7.58227 24.5547C7.58227 24.3859 7.71441 24.2486 7.87677 24.2486H14.651C14.8134 24.2486 14.9455 24.386 14.9455 24.5547C14.9455 24.7235 14.8134 24.8608 14.651 24.8608ZM9.58505 23.3302V15.6159C9.58505 15.4809 9.69075 15.371 9.8207 15.371C9.95064 15.371 10.0563 15.4809 10.0563 15.6159V23.3302H9.58505ZM12.4714 23.3302V15.6159C12.4714 15.4809 12.5772 15.371 12.7071 15.371C12.837 15.371 12.9427 15.4809 12.9427 15.6159V23.3302H12.4714ZM19.2971 15.7595C18.5068 17.1768 17.374 18.3708 16.0212 19.2123C14.9943 19.851 14.3564 21.0123 14.3564 22.2432V23.3302H13.8263V15.6159C13.8263 14.9745 13.3242 14.4526 12.707 14.4526C12.0899 14.4526 11.5878 14.9745 11.5878 15.6159V23.3302H10.9399V15.6159C10.9399 14.9745 10.4378 14.4526 9.82064 14.4526C9.2035 14.4526 8.70143 14.9745 8.70143 15.6159V23.3302H8.17128V22.2431C8.17128 21.0106 7.53723 19.8517 6.5165 19.2185C5.15696 18.3753 4.01943 17.1768 3.22696 15.7528C2.41043 14.2855 1.98136 12.6085 1.98621 10.9027C2.00137 5.63997 6.13264 1.32747 11.1955 1.28962C11.2186 1.28945 11.2413 1.28933 11.2645 1.28933C13.7304 1.28933 16.0493 2.28202 17.8005 4.089C19.5682 5.91308 20.5416 8.34337 20.5416 10.9323C20.5416 12.6301 20.1113 14.2994 19.2971 15.7595Z" fill="#0047FF"/>
</g>
<defs>
<clipPath id="clip0_156_1216">
<rect width="22" height="30" fill="white" transform="translate(0 0.371094)"/>
</clipPath>
</defs>
</svg>
