<svg width="18" height="18" viewBox="0 0 18 18" fill="none" xmlns="http://www.w3.org/2000/svg">
<circle cx="9.5" cy="9.5" r="6.5" fill="white"/>
<path fill-rule="evenodd" clip-rule="evenodd" d="M6.02975 0.343702C7.9834 -0.114568 10.0166 -0.114568 11.9703 0.343702C14.7916 1.00549 16.9945 3.20842 17.6563 6.02975C18.1146 7.9834 18.1146 10.0166 17.6563 11.9703C16.9945 14.7916 14.7916 16.9945 11.9703 17.6563C10.0166 18.1146 7.9834 18.1146 6.02975 17.6563C3.20842 16.9945 1.0055 14.7916 0.343702 11.9703C-0.114568 10.0166 -0.114568 7.9834 0.343702 6.02974C1.0055 3.20841 3.20842 1.00549 6.02975 0.343702ZM7.7139 6.90158C7.4896 6.67727 7.1259 6.67727 6.90158 6.90158C6.67727 7.1259 6.67727 7.4896 6.90158 7.7139L8.1877 9L6.90158 10.2861C6.67727 10.5104 6.67727 10.8741 6.90158 11.0984C7.1259 11.3227 7.4896 11.3227 7.7139 11.0984L9 9.8123L10.2861 11.0984C10.5104 11.3227 10.8741 11.3227 11.0984 11.0984C11.3227 10.8741 11.3227 10.5104 11.0984 10.2861L9.8123 9L11.0984 7.7139C11.3227 7.4896 11.3227 7.1259 11.0984 6.90158C10.8741 6.67727 10.5104 6.67727 10.2861 6.90158L9 8.1877L7.7139 6.90158Z" fill="#F48686"/>
</svg>
