<svg width="16" height="6" viewBox="0 0 16 6" fill="none" xmlns="http://www.w3.org/2000/svg">
<path fill-rule="evenodd" clip-rule="evenodd" d="M11.4928 1.44152C11.8556 1.44152 12.1496 1.11888 12.1496 0.721029C12.1496 0.322945 11.8556 0 11.4928 0C11.1305 0 10.8367 0.322945 10.8367 0.721029C10.8367 1.11888 11.1305 1.44152 11.4928 1.44152ZM6.46316 1.83061C6.43353 1.91234 6.22024 2.5738 5.70441 3.25935V0.328057L4.32999 0.626291V5.93958H5.70441V4.2972C6.10248 4.9527 6.29905 5.93958 6.29905 5.93958H7.94532C7.78248 5.19632 7.07015 3.82584 7.07015 3.82584C7.70945 2.93594 7.99026 1.98771 8.03492 1.83061H6.46316ZM10.0764 1.77515C8.84539 1.81853 8.22049 2.42491 8.22049 3.63032V5.93958H9.56351V4.05645C9.56351 3.33464 9.64959 3.02525 10.4297 2.99574V1.7963C10.2984 1.7657 10.0764 1.77515 10.0764 1.77515ZM2.02494 2.41569C1.8566 2.40353 1.46685 2.37588 1.46685 1.99065C1.46685 1.5258 2.02798 1.5258 2.23844 1.5258C2.60851 1.5258 3.08779 1.64586 3.43005 1.75826C3.43005 1.75826 3.62098 1.83216 3.78347 1.90784L3.79856 1.91234V0.639227L3.77782 0.632488C3.37389 0.477329 2.9042 0.328057 2.03341 0.328057C0.531988 0.328057 0 1.28837 0 2.11103C0 2.58526 0.185138 3.70135 1.90464 3.8301C2.05041 3.83994 2.43727 3.86441 2.43727 4.2625C2.43727 4.59117 2.12054 4.78499 1.58785 4.78499C1.00407 4.78499 0.437797 4.62154 0.0938387 4.46654V5.77776C0.608752 5.92594 1.18921 6 1.86951 6C3.33755 6 3.99506 5.09143 3.99506 4.19092C3.99506 3.16988 3.25931 2.50648 2.02494 2.41569ZM10.8271 5.93958H12.1592V1.83526H10.8271V5.93958ZM14.6676 0.589728V5.93958H16V0.328057L14.6676 0.589728ZM12.7235 0.589728L14.0546 0.328057V5.93958H12.7235V0.589728Z" fill="url(#paint0_linear_250_12)"/>
<defs>
<linearGradient id="paint0_linear_250_12" x1="4.32703" y1="4.27926e-08" x2="5.76712" y2="7.35409" gradientUnits="userSpaceOnUse">
<stop stop-color="#6B195F"/>
<stop offset="1" stop-color="#4C255B"/>
</linearGradient>
</defs>
</svg>
