<svg width="26" height="23" viewBox="0 0 26 23" fill="none" xmlns="http://www.w3.org/2000/svg">
<path d="M25.2614 7.16564C24.8987 3.30973 22.0729 0.51218 18.5366 0.51218C16.1806 0.51218 14.0235 1.73671 12.8097 3.69929C11.6068 1.71133 9.53807 0.511719 7.21986 0.511719C3.684 0.511719 0.8578 3.30926 0.495564 7.16518C0.466891 7.3355 0.349332 8.23186 0.706789 9.69363C1.22195 11.8021 2.41188 13.7199 4.14707 15.2384L12.8039 22.8261L21.6094 15.2389C23.3446 13.7199 24.5345 11.8025 25.0497 9.69363C25.4071 8.23232 25.2896 7.33596 25.2614 7.16564ZM24.1192 9.48224C23.649 11.4079 22.5589 13.1623 20.97 14.5525L12.8097 21.5845L4.78934 14.5544C3.19751 13.1614 2.10794 11.4074 1.63723 9.48178C1.29889 8.09846 1.43795 7.31703 1.43843 7.31196L1.4456 7.26534C1.75622 3.88714 4.18434 1.43485 7.21986 1.43485C9.45969 1.43485 11.4314 2.76416 12.3671 4.90351L12.8073 5.91111L13.2474 4.90351C14.1683 2.79693 16.2442 1.43531 18.5371 1.43531C21.5721 1.43531 24.0007 3.88761 24.3176 7.30965C24.3185 7.31704 24.4576 8.09893 24.1192 9.48224Z" fill="#0047FF"/>
</svg>
