<svg width="33" height="20" viewBox="0 0 33 20" fill="none" xmlns="http://www.w3.org/2000/svg">
<path d="M31.6115 19.4199H1.3885C0.622854 19.4199 0 18.797 0 18.0314V17.1669C0 16.9446 0.180143 16.7644 0.402465 16.7644H2.58785V1.77534C2.58785 0.975245 3.23871 0.324219 4.03897 0.324219H28.9613C29.7614 0.324219 30.4125 0.975245 30.4125 1.77534V16.7643H32.5979C32.8202 16.7643 33.0003 16.9444 33.0003 17.1667V18.0312C33 18.797 32.3771 19.4199 31.6115 19.4199ZM0.804929 17.5693V18.0314C0.804929 18.3532 1.06669 18.6149 1.3885 18.6149H31.6115C31.9333 18.6149 32.1951 18.3532 32.1951 18.0314V17.5693H0.804929ZM28.6997 16.7644H29.6074V1.77534C29.6074 1.41908 29.3174 1.12915 28.9612 1.12915H4.03881C3.68255 1.12915 3.39261 1.41908 3.39261 1.77534V16.7643H4.30025V16.0598C4.30025 15.8375 4.4804 15.6573 4.70272 15.6573H8.99025C9.21257 15.6573 9.39272 15.8375 9.39272 16.0598V16.7643H23.6071V16.0598C23.6071 15.8375 23.7873 15.6573 24.0096 15.6573H28.2971C28.5194 15.6573 28.6996 15.8375 28.6996 16.0598V16.7644H28.6997ZM24.4122 16.7644H27.8948V16.4624H24.4122V16.7644ZM5.10518 16.7644H8.58779V16.4624H5.10518V16.7644ZM28.2973 15.0829H4.70272C4.4804 15.0829 4.30025 14.9028 4.30025 14.6805V2.29968C4.30025 2.07735 4.4804 1.89721 4.70272 1.89721H28.2973C28.5196 1.89721 28.6997 2.07735 28.6997 2.29968V14.6805C28.6997 14.9028 28.5196 15.0829 28.2973 15.0829ZM5.10518 14.278H27.8948V2.70214H5.10518V14.278Z" fill="#0047FF"/>
</svg>
