<svg width="56" height="17" viewBox="0 0 56 17" fill="none" xmlns="http://www.w3.org/2000/svg">
<path fill-rule="evenodd" clip-rule="evenodd" d="M8.8138 6.48112V10.4416H6.95002V6.48112H6.60059V5.9375H9.20209V6.48112H8.8138Z" fill="#2B2A29"/>
<path fill-rule="evenodd" clip-rule="evenodd" d="M0.776367 3.60628L7.88198 0.5L14.9876 3.60628V5.35358H0.776367V3.60628Z" fill="#2B2A29"/>
<path fill-rule="evenodd" clip-rule="evenodd" d="M0 14.6713H4.15466V15.4867H0V14.6713ZM11.9204 14.6713H16.075V15.4867H11.9204V14.6713ZM1.0872 13.2734H4.15466V14.05H1.0872V13.2734ZM11.9204 13.2734H14.9878V14.05H11.9204V13.2734Z" fill="#2B2A29"/>
<path fill-rule="evenodd" clip-rule="evenodd" d="M13.4735 6.44227V12.1501H13.823V12.6549H11.2215V12.1501H11.6097V6.44227H11.2215V5.9375H13.823V6.44227H13.4735ZM4.15462 6.44227V12.1501H4.54291V12.6549H1.94141V12.1501H2.29088V6.44227H1.94141V5.9375H4.54291V6.44227H4.15462Z" fill="#2B2A29"/>
<path d="M7.9987 11.2188C7.50117 11.2224 7.01548 11.3708 6.60087 11.6459C6.19307 11.8951 5.86867 12.26 5.66897 12.6942C5.60033 12.8299 5.54817 12.9733 5.51367 13.1213L5.78544 13.199C5.84842 12.9344 5.96318 12.685 6.12315 12.465C6.28309 12.2451 6.48505 12.0591 6.71735 11.9177C7.093 11.6567 7.54137 11.5208 7.9987 11.5294C8.34569 11.5154 8.69118 11.5818 9.00824 11.7235C9.44389 11.9393 9.80795 12.2764 10.0566 12.6942C10.1703 12.9444 10.2613 13.2043 10.3284 13.4708L10.0566 13.2766L9.90129 13.4708L10.5225 13.9756L10.9885 13.3932L10.7944 13.2378L10.6002 13.4708C10.5313 13.132 10.4136 12.8051 10.2507 12.5001C10.0306 12.1702 9.75466 11.8811 9.43534 11.6459C9.17859 11.497 8.9048 11.3797 8.61995 11.2964L7.9987 11.2188Z" fill="#2B2A29"/>
<path d="M8.03768 16.4951C8.54117 16.4856 9.03457 16.3522 9.47432 16.1068C9.87409 15.8315 10.1952 15.4568 10.4062 15.0196C10.4809 14.8867 10.5334 14.7424 10.5615 14.5925L10.2897 14.5149C10.1466 15.052 9.81601 15.5203 9.35784 15.835C8.96798 16.0967 8.50711 16.2322 8.03768 16.2233C7.70005 16.225 7.36706 16.145 7.06696 15.9904C6.72056 15.8296 6.41896 15.5862 6.18878 15.2815C5.95856 14.9768 5.80678 14.6202 5.74676 14.243L5.97976 14.4372L6.1739 14.243L5.55262 13.7383L5.04785 14.3596L5.28085 14.5149L5.47499 14.2819C5.51479 14.6282 5.63441 14.9604 5.82443 15.2526C6.02241 15.5997 6.30237 15.8929 6.63982 16.1068C6.89475 16.2502 7.16955 16.3549 7.45525 16.4175C7.64245 16.4811 7.84032 16.5075 8.03768 16.4951Z" fill="#2B2A29"/>
<path d="M8.46494 14.517C8.47441 14.4687 8.47232 14.419 8.4588 14.3717C8.44531 14.3245 8.42079 14.2811 8.38727 14.2452L8.03784 14.0898L7.68836 13.9346C7.59392 13.8757 7.51253 13.7981 7.44919 13.7066C7.38585 13.6151 7.34192 13.5116 7.3201 13.4025C7.29828 13.2933 7.29901 13.1809 7.32229 13.0721C7.34557 12.9632 7.39086 12.8604 7.4554 12.7697C7.59853 12.6463 7.77341 12.5656 7.96017 12.5367V12.1484H8.23198V12.5367C8.32997 12.546 8.42514 12.5749 8.51183 12.6216C8.59852 12.6683 8.67498 12.7318 8.73675 12.8085C8.85162 12.9801 8.90622 13.1849 8.89204 13.3909H8.46494C8.47028 13.3278 8.46271 13.2643 8.44268 13.2042C8.42265 13.1441 8.3906 13.0888 8.34846 13.0415C8.32467 12.9907 8.28582 12.9486 8.23717 12.9208C8.18849 12.893 8.13242 12.8809 8.07665 12.8862C8.02559 12.8846 7.97479 12.8941 7.92783 12.9142C7.88086 12.9344 7.8389 12.9646 7.80484 13.0026C7.75144 13.0831 7.72433 13.178 7.72718 13.2745C7.73496 13.357 7.76153 13.4367 7.80484 13.5074L8.15432 13.7016C8.28242 13.7217 8.40295 13.7753 8.50375 13.8569L8.73675 14.0122C8.77556 14.0898 8.85323 14.1287 8.85323 14.2452C8.90264 14.3273 8.92943 14.4211 8.93089 14.517C8.92549 14.7024 8.85699 14.8805 8.73675 15.0218C8.58723 15.1539 8.39254 15.2234 8.19313 15.2159V15.5653H7.92132V15.2159C7.81884 15.222 7.71636 15.2041 7.62199 15.1637C7.52762 15.1232 7.444 15.0613 7.37774 14.9829C7.25172 14.8149 7.18359 14.6105 7.18359 14.4005H7.6107C7.6047 14.4632 7.61263 14.5264 7.6339 14.5857C7.65521 14.6449 7.68931 14.6988 7.73386 14.7433C7.77838 14.7878 7.83222 14.8219 7.89146 14.8433C7.95074 14.8645 8.01397 14.8725 8.07665 14.8664L8.38727 14.7888C8.43669 14.7066 8.46348 14.6129 8.46494 14.517Z" fill="#2B2A29"/>
<path d="M33.7579 3.15138H33.7159L32.6169 6.57515H34.8149L33.7579 3.15138ZM25.7271 2.68645H23.6559V4.58853H25.8116C26.4879 4.58853 27.0796 4.29264 27.0796 3.61635C27.0796 2.94006 26.5724 2.68645 25.7271 2.68645ZM25.9807 6.06794H23.6559V8.3927H25.8961C26.7837 8.3927 27.291 7.97002 27.291 7.08237C27.291 6.19472 26.6147 6.06794 25.9807 6.06794ZM55.5264 9.8721H53.2016L50.5387 6.06794L49.6933 6.9133V9.8721H47.8758V1.20703H49.6933V4.71532L52.9904 1.20703H55.3152L51.8069 4.75761L55.5264 9.8721ZM55.146 15.7052H54.1314C54.0287 15.4065 53.9856 15.0905 54.0049 14.7753C54.0049 14.1835 53.9625 13.9299 53.286 13.9299H52.3562V15.7052H51.4265V11.267H53.6665C54.8503 11.267 55.0616 12.1123 55.0616 12.4928C55.0765 12.718 55.0188 12.9422 54.8971 13.1324C54.7754 13.3225 54.5959 13.4687 54.385 13.5495C54.7655 13.7186 54.9347 13.8453 54.9347 14.6907C54.9347 15.5361 54.9347 15.4938 55.146 15.5784V15.7052ZM50.6655 15.7052H47.2841V11.2247H50.5811V12.0278H48.2139V12.9577H50.3695V13.7608H48.2139V14.9021H50.6655V15.7052ZM46.6924 12.0278H44.4519V13.0423H46.3963V13.8031H44.4519V15.7052H43.5222V11.267H46.6924V12.0278ZM41.0705 15.7897C39.4222 15.7897 39.1685 14.8598 39.1685 14.3103H40.0563C40.0563 14.5639 40.1827 15.0289 40.9861 15.0289C41.789 15.0289 41.9159 14.9443 41.9159 14.4794C41.9159 14.0144 41.5778 14.0144 41.1129 13.9299L40.648 13.8031C39.9295 13.634 39.2106 13.4649 39.2106 12.4928C39.2106 11.5206 39.5066 11.1402 40.9437 11.1402C42.3808 11.1402 42.6768 12.0278 42.6768 12.5773H41.789C41.747 12.3659 41.6622 11.901 40.8592 11.901C40.0563 11.901 40.0983 12.0278 40.0983 12.4505C40.0983 12.8732 40.3944 12.8309 40.5632 12.8732L41.6202 13.169C42.2539 13.2959 42.8036 13.5495 42.8036 14.3526C42.8036 15.1557 41.451 15.7897 41.0705 15.7897ZM38.9149 1.20703H40.8169L44.2831 7.25144V1.20703H45.9738V9.8721H44.1983L40.648 3.70089H40.6056V9.8721H38.9149V1.20703ZM38.492 15.7052H37.5622L35.7447 12.535V15.7052H34.8569V11.267H35.8291L37.6046 14.3526V11.267H38.492V15.7052ZM33.293 15.7052L33.0394 14.7753H31.3911L31.053 15.7052H30.0808L31.6871 11.2247H32.7437L34.3076 15.7052H33.293ZM28.7704 15.7052C28.7086 15.3992 28.6803 15.0874 28.6859 14.7753C28.6859 14.1835 28.6436 13.9299 27.9673 13.9299H26.9951V15.7052H26.1074V11.267H28.3477C29.5311 11.267 29.7427 12.1123 29.7427 12.4928C29.7573 12.718 29.7 12.9422 29.5783 13.1324C29.4565 13.3225 29.2771 13.4687 29.0662 13.5495C29.4043 13.7186 29.6159 13.8453 29.6159 14.6907C29.6159 15.5361 29.6159 15.4938 29.8271 15.5784V15.7052H28.7704ZM21.9229 9.8721V1.20703H26.1497C28.2632 1.20703 28.8126 2.51738 28.8126 3.40499C28.8404 3.77921 28.7543 4.15302 28.5658 4.47743C28.3772 4.80179 28.0949 5.06154 27.7559 5.22254C28.1824 5.36398 28.5483 5.64577 28.7939 6.02192C29.0395 6.39808 29.1506 6.84641 29.1086 7.29373C29.1086 7.62573 29.041 7.95427 28.9102 8.25944C28.7795 8.56462 28.5881 8.84001 28.3477 9.06899C27.8405 9.57621 27.3755 9.8721 25.6002 9.8721H21.9229ZM25.558 12.0278H24.2054V15.7052H23.2755V12.0278H21.9229V11.2247H25.558V12.0278ZM32.7013 1.20703H34.7725L37.8583 9.8721H35.8715L35.3222 8.0968H32.1096L31.5179 9.8721H29.6159L32.7013 1.20703ZM53.4976 12.0278H52.3562V13.2113H53.4129C53.9201 13.2113 54.1314 13.0423 54.1314 12.5773C54.1314 12.1123 54.047 12.0278 53.4976 12.0278ZM32.194 12.2392L31.6447 14.0144H32.7437L32.194 12.2392ZM28.1786 12.0278H26.9951V13.2113H28.0941C28.559 13.2113 28.8126 13.0423 28.8126 12.5773C28.8136 12.4974 28.7971 12.4183 28.7644 12.3455C28.7317 12.2726 28.6834 12.2078 28.6231 12.1555C28.5627 12.1032 28.4917 12.0647 28.4149 12.0426C28.3382 12.0206 28.2575 12.0155 28.1786 12.0278Z" fill="black"/>
</svg>
