<svg width="75" height="17" viewBox="0 0 75 17" fill="none" xmlns="http://www.w3.org/2000/svg">
<path d="M21.0872 8.13441C21.0872 8.25306 21.0279 8.31241 20.8499 8.31241H16.2814C16.2964 8.88991 16.5325 9.43959 16.941 9.84806C17.3494 10.2566 17.8991 10.4926 18.4766 10.5077C18.8394 10.5241 19.2002 10.4451 19.5229 10.2785C19.8457 10.1119 20.1191 9.86362 20.3159 9.55837L20.5532 9.43972C20.6161 9.43972 20.6765 9.46469 20.721 9.50921C20.7655 9.55373 20.7905 9.61409 20.7905 9.67702V9.79568C20.5474 10.1696 20.2125 10.475 19.8178 10.6827C19.4231 10.8904 18.9818 10.9936 18.5359 10.9823C17.8438 10.8827 17.2108 10.5369 16.7529 10.0084C16.295 9.47988 16.043 8.80401 16.043 8.10476C16.043 7.40546 16.295 6.72963 16.7529 6.20113C17.2108 5.67259 17.8438 5.32681 18.5359 5.22718C20.0192 5.22718 21.0872 6.65114 21.0872 8.13441ZM74.663 7.65976V10.6263C74.663 10.6893 74.6381 10.7496 74.5938 10.7941C74.5494 10.8386 74.4887 10.8636 74.4259 10.8636C74.3628 10.8636 74.3025 10.8386 74.2581 10.7941C74.2137 10.7496 74.1885 10.6893 74.1885 10.6263V7.65976C74.1885 6.71045 73.6545 5.70184 72.5274 5.70184C71.3999 5.70184 70.6289 7.1851 70.6289 8.37176V10.6263C70.6289 10.6893 70.6036 10.7496 70.5592 10.7941C70.5148 10.8386 70.4541 10.8636 70.3914 10.8636C70.3283 10.8636 70.268 10.8386 70.2236 10.7941C70.1792 10.7496 70.1539 10.6893 70.1539 10.6263V7.65976C70.1539 6.71045 69.6199 5.70184 68.4929 5.70184C67.3654 5.70184 66.5349 6.82914 66.5943 8.31241V10.6263C66.5943 10.6893 66.5691 10.7496 66.5247 10.7941C66.4803 10.8386 66.4196 10.8636 66.3569 10.8636C66.2937 10.8636 66.2335 10.8386 66.1891 10.7941C66.1447 10.7496 66.1194 10.6893 66.1194 10.6263V5.58318C66.1194 5.52025 66.1447 5.45989 66.1891 5.41537C66.2335 5.37085 66.2937 5.34584 66.3569 5.34584C66.4196 5.34584 66.4803 5.37085 66.5247 5.41537C66.5691 5.45989 66.5943 5.52025 66.5943 5.58318V6.4138C66.7756 6.03755 67.0664 5.72481 67.4285 5.51642C67.7906 5.30808 68.2073 5.21374 68.6236 5.24576C69.0403 5.27781 69.4375 5.43471 69.7633 5.69605C70.0892 5.95735 70.3287 6.31087 70.4509 6.71045C70.6224 6.29795 70.9099 5.94399 71.2781 5.69133C71.6468 5.43862 72.0806 5.29806 72.5274 5.28653C73.8919 5.28653 74.663 6.41379 74.663 7.65976ZM63.0343 5.64249V10.6263C63.0343 10.6893 63.0091 10.7496 62.9647 10.7941C62.9203 10.8386 62.86 10.8636 62.7969 10.8636C62.7341 10.8636 62.6739 10.8386 62.6291 10.7941C62.5847 10.7496 62.5598 10.6893 62.5598 10.6263V9.67702C62.401 10.0533 62.1378 10.3763 61.8014 10.6076C61.4649 10.839 61.069 10.969 60.6609 10.9823C59.2963 10.9823 58.5253 9.79568 58.5253 8.54972V5.64249C58.5253 5.57956 58.5501 5.51919 58.5945 5.47471C58.6393 5.43019 58.6996 5.40518 58.7623 5.40518C58.8255 5.40518 58.8858 5.43019 58.9302 5.47471C58.975 5.51919 58.9998 5.57956 58.9998 5.64249V8.54972C58.9998 9.55837 59.5338 10.567 60.6609 10.567C61.7883 10.567 62.5598 9.08372 62.5598 7.48176V5.64249C62.5598 5.57956 62.5847 5.51919 62.6291 5.47471C62.6739 5.43019 62.7341 5.40518 62.7969 5.40518C62.86 5.40518 62.9203 5.43019 62.9647 5.47471C63.0091 5.51919 63.0343 5.57956 63.0343 5.64249ZM55.6178 8.13441C55.6178 8.25306 55.4993 8.31241 55.3807 8.31241H50.8122C50.8261 8.88005 51.0542 9.42143 51.4501 9.82842C51.846 10.2354 52.3808 10.4779 52.9478 10.5077C53.3197 10.5287 53.6903 10.4521 54.0235 10.2856C54.3567 10.119 54.6402 9.86834 54.8467 9.55837L55.0247 9.43972C55.0875 9.43972 55.1478 9.46469 55.1926 9.50921C55.237 9.55373 55.2618 9.61409 55.2618 9.67702V9.79568C54.9441 10.3063 54.4626 10.6945 53.8965 10.8975C53.3303 11.1005 52.712 11.1063 52.1421 10.914C51.5723 10.7218 51.0839 10.3426 50.7564 9.83816C50.4289 9.33365 50.2811 8.7333 50.3373 8.13441C50.3373 6.65114 51.4053 5.22718 52.9478 5.22718C53.6822 5.27301 54.3706 5.60127 54.8683 6.14325C55.3661 6.6852 55.6345 7.39878 55.6178 8.13441ZM55.1433 7.8971C55.1144 7.32416 54.874 6.7823 54.4683 6.37669C54.0626 5.97104 53.5209 5.73055 52.9478 5.70184C52.3808 5.73153 51.846 5.97413 51.4501 6.38109C51.0542 6.78804 50.8261 7.32946 50.8122 7.8971H55.1433ZM48.0827 5.58318C48.0827 5.64611 48.0579 5.70648 48.0135 5.751C47.9687 5.79548 47.9084 5.82049 47.8457 5.82049C46.5402 5.99849 45.8877 7.1258 45.8877 8.43106V10.6263C45.8877 10.6893 45.8624 10.7496 45.818 10.7941C45.7736 10.8386 45.7133 10.8636 45.6502 10.8636C45.5317 10.8636 45.4722 10.745 45.4722 10.6263V5.58318C45.4722 5.46453 45.5317 5.34584 45.6502 5.34584C45.7133 5.34584 45.7736 5.37085 45.818 5.41537C45.8624 5.45989 45.8877 5.52025 45.8877 5.58318V6.5918C46.0885 6.24089 46.3716 5.94407 46.7125 5.72701C47.0538 5.50991 47.4424 5.37911 47.8457 5.34584C47.9084 5.34584 47.9687 5.37085 48.0135 5.41537C48.0579 5.45989 48.0827 5.52025 48.0827 5.58318ZM42.4462 8.13441C42.4462 8.25306 42.3277 8.31241 42.2091 8.31241H37.5812C37.6099 8.88535 37.8504 9.42721 38.2561 9.83282C38.6618 10.2385 39.2035 10.479 39.7766 10.5077C40.1481 10.5287 40.5192 10.4521 40.8519 10.2856C41.1851 10.119 41.4686 9.86834 41.6751 9.55837L41.8531 9.43972C41.9159 9.43972 41.9766 9.46469 42.021 9.50921C42.0654 9.55373 42.0902 9.61409 42.0902 9.67702V9.79568C41.834 10.1704 41.4878 10.4751 41.0837 10.6823C40.6796 10.8895 40.2304 10.9926 39.7766 10.9823C39.1913 11.0301 38.6052 10.8996 38.0956 10.608C37.5859 10.3163 37.1765 9.87714 36.9213 9.34827C36.6661 8.8194 36.577 8.22569 36.6658 7.64521C36.7546 7.06474 37.017 6.52479 37.4187 6.09637C37.8202 5.66799 38.342 5.37125 38.9159 5.24527C39.4894 5.11924 40.0874 5.16987 40.6316 5.39048C41.1758 5.61108 41.6405 5.99128 41.9643 6.48109C42.2886 6.97089 42.4564 7.54729 42.4462 8.13441ZM41.9122 7.8971C41.9126 7.32502 41.6894 6.77546 41.2906 6.36541C40.8915 5.9554 40.3485 5.71731 39.7766 5.70184C39.2035 5.73055 38.6618 5.97104 38.2561 6.37669C37.8504 6.7823 37.6099 7.32416 37.5812 7.8971H41.9122ZM34.1993 7.7191V10.6263C34.1993 10.6893 34.1744 10.7496 34.1299 10.7941C34.0853 10.8386 34.025 10.8636 33.962 10.8636C33.8991 10.8636 33.8387 10.8386 33.7942 10.7941C33.7497 10.7496 33.7247 10.6893 33.7247 10.6263V7.7191C33.7247 6.71045 33.1907 5.70184 32.0634 5.70184C30.9362 5.70184 30.0462 6.9478 30.1649 8.25306V10.6263C30.1649 10.6893 30.1398 10.7496 30.0953 10.7941C30.0508 10.8386 29.9905 10.8636 29.9275 10.8636C29.8646 10.8636 29.8042 10.8386 29.7597 10.7941C29.7152 10.7496 29.6902 10.6893 29.6902 10.6263V1.01469C29.6902 0.951719 29.7152 0.891353 29.7597 0.846874C29.8042 0.802353 29.8646 0.777344 29.9275 0.777344C29.9905 0.777344 30.0508 0.802353 30.0953 0.846874C30.1398 0.891353 30.1649 0.951719 30.1649 1.01469V6.4138C30.3581 6.07885 30.6342 5.79927 30.9667 5.60184C31.2992 5.40441 31.6769 5.29582 32.0634 5.28653C33.4281 5.28653 34.1993 6.4138 34.1993 7.7191ZM26.6643 5.34584C26.7272 5.34584 26.7876 5.37085 26.8321 5.41537C26.8766 5.45989 26.9016 5.52025 26.9016 5.58318C26.9016 5.64611 26.8766 5.70648 26.8321 5.751C26.7876 5.79548 26.7272 5.82049 26.6643 5.82049H25.4777V10.6263C25.4777 10.6893 25.4527 10.7496 25.4082 10.7941C25.3637 10.8386 25.3033 10.8636 25.2404 10.8636C25.1774 10.8636 25.1171 10.8386 25.0725 10.7941C25.028 10.7496 25.0031 10.6893 25.0031 10.6263V5.82049H23.8164C23.7535 5.82049 23.6931 5.79548 23.6486 5.751C23.6041 5.70648 23.5791 5.64611 23.5791 5.58318C23.5791 5.52025 23.6041 5.45989 23.6486 5.41537C23.6931 5.37085 23.7535 5.34584 23.8164 5.34584H25.0031V3.56592C25.0031 3.53476 25.0092 3.50388 25.0211 3.47508C25.033 3.44629 25.0505 3.42014 25.0725 3.3981C25.0946 3.37606 25.1207 3.35859 25.1495 3.34665C25.1783 3.33472 25.2092 3.32861 25.2404 3.32861C25.2715 3.32861 25.3024 3.33472 25.3312 3.34665C25.36 3.35859 25.3861 3.37606 25.4082 3.3981C25.4302 3.42014 25.4477 3.44629 25.4596 3.47508C25.4716 3.50388 25.4777 3.53476 25.4777 3.56592V5.34584H26.6643ZM20.6125 7.8971C20.6127 7.32502 20.3896 6.77546 19.9907 6.36541C19.5917 5.9554 19.0485 5.71731 18.4766 5.70184C17.8991 5.71683 17.3494 5.95295 16.941 6.36141C16.5325 6.76992 16.2964 7.3196 16.2814 7.8971H20.6125Z" fill="#3C3C3B"/>
<path d="M0.832031 9.08594L5.72623 16.0023V11.9873L0.832031 9.08594Z" fill="#8B8B8B"/>
<path d="M0.832031 8.1492L5.72623 11.0506V5.92188L0.832031 8.1492Z" fill="#393939"/>
<path d="M0.832031 8.15118L5.72623 5.92386V0.00390625L0.832031 8.15118Z" fill="#8B8B8B"/>
<path d="M10.6501 9.08594L5.72656 16.0023V11.9873L10.6501 9.08594Z" fill="#343434"/>
<path d="M10.6501 8.1492L5.72656 11.0506V5.92188L10.6501 8.1492Z" fill="#151515"/>
<path d="M10.6501 8.15118L5.72656 5.92386V0.00390625L10.6501 8.15118Z" fill="#343434"/>
</svg>
