<svg width="10" height="10" viewBox="0 0 10 10" fill="none" xmlns="http://www.w3.org/2000/svg">
<circle cx="5" cy="5" r="3.125" fill="white"/>
<path fill-rule="evenodd" clip-rule="evenodd" d="M3.7624 1.39321C4.57642 1.20226 5.42358 1.20226 6.23763 1.39321C7.41317 1.66896 8.33104 2.58684 8.60679 3.7624C8.79775 4.57642 8.79775 5.42358 8.60679 6.23763C8.33104 7.41317 7.41317 8.33104 6.23763 8.60679C5.42358 8.79775 4.57642 8.79775 3.7624 8.60679C2.58684 8.33104 1.66896 7.41317 1.39321 6.23763C1.20226 5.42358 1.20226 4.57642 1.39321 3.76239C1.66896 2.58684 2.58684 1.66896 3.7624 1.39321ZM6.27183 4.36554C6.36204 4.26892 6.35679 4.11748 6.26017 4.02729C6.16354 3.93711 6.01213 3.94233 5.92192 4.03896L4.69492 5.35363L4.07233 4.73104C3.97886 4.63758 3.82733 4.63758 3.73388 4.73104C3.64041 4.8245 3.64041 4.97604 3.73388 5.0695L4.53163 5.86725C4.5775 5.91313 4.64008 5.93842 4.70496 5.93729C4.76988 5.93617 4.8315 5.90875 4.87579 5.86129L6.27183 4.36554Z" fill="#3DDDA3"/>
</svg>
