<svg width="23" height="19" viewBox="0 0 23 19" fill="none" xmlns="http://www.w3.org/2000/svg">
<path d="M4.1688 18.9603V17.6993C4.1688 17.217 3.89258 16.9011 3.4184 16.9011C3.18131 16.9011 2.92351 16.9844 2.74626 17.2586C2.60815 17.0284 2.4102 16.9011 2.11326 16.9011C1.9153 16.9011 1.71734 16.9648 1.56082 17.1949V16.9427H1.14648V18.9603H1.56082V17.8462C1.56082 17.4887 1.73806 17.3198 2.01428 17.3198C2.2905 17.3198 2.42861 17.5083 2.42861 17.8462V18.9603H2.84294V17.8462C2.84294 17.4887 3.0409 17.3198 3.2964 17.3198C3.57263 17.3198 3.71074 17.5083 3.71074 17.8462V18.9603H4.1688ZM10.3147 16.9427H9.64258V16.3331H9.22825V16.9427H8.85305V17.3418H9.22825V18.2673C9.22825 18.7301 9.40549 19.0019 9.87967 19.0019C10.0569 19.0019 10.2549 18.9382 10.393 18.855L10.2733 18.4755C10.1536 18.5587 10.0155 18.5807 9.9165 18.5807C9.71854 18.5807 9.64028 18.4534 9.64028 18.2453V17.3418H10.3124V16.9427H10.3147ZM13.8319 16.8987C13.5948 16.8987 13.436 17.026 13.337 17.1925V16.9403H12.9227V18.9578H13.337V17.8217C13.337 17.4863 13.4751 17.2953 13.733 17.2953C13.8112 17.2953 13.9102 17.3173 13.9908 17.3369L14.1105 16.9158C14.0276 16.8987 13.9102 16.8987 13.8319 16.8987ZM8.51698 17.1092C8.31902 16.9623 8.0428 16.8987 7.74586 16.8987C7.27168 16.8987 6.95633 17.1508 6.95633 17.5499C6.95633 17.8854 7.19342 18.0764 7.60775 18.1376L7.80571 18.1596C8.02209 18.2012 8.14178 18.2649 8.14178 18.3702C8.14178 18.5171 7.98295 18.6224 7.70673 18.6224C7.43051 18.6224 7.21184 18.5171 7.07373 18.4118L6.87577 18.7472C7.09214 18.9162 7.38908 18.9994 7.68602 18.9994C8.23846 18.9994 8.55611 18.7252 8.55611 18.3481C8.55611 17.9907 8.29831 17.8021 7.90469 17.7385L7.70673 17.7164C7.52949 17.6944 7.39138 17.6528 7.39138 17.5279C7.39138 17.381 7.52949 17.2978 7.74817 17.2978C7.98526 17.2978 8.22234 17.403 8.34204 17.4667L8.51698 17.1092ZM19.5405 16.8987C19.3034 16.8987 19.1446 17.026 19.0456 17.1925V16.9403H18.6313V18.9578H19.0456V17.8217C19.0456 17.4863 19.1837 17.2953 19.4415 17.2953C19.5198 17.2953 19.6188 17.3173 19.6993 17.3369L19.819 16.9207C19.7385 16.8987 19.6211 16.8987 19.5405 16.8987ZM14.2463 17.9515C14.2463 18.5612 14.6422 19.0019 15.2545 19.0019C15.5307 19.0019 15.7287 18.9382 15.9266 18.7717L15.7287 18.4142C15.5698 18.5416 15.4133 18.6028 15.2338 18.6028C14.8977 18.6028 14.6606 18.3506 14.6606 17.9515C14.6606 17.572 14.8977 17.3198 15.2338 17.3002C15.411 17.3002 15.5698 17.3639 15.7287 17.4887L15.9266 17.1313C15.7287 16.9623 15.5307 16.9011 15.2545 16.9011C14.6422 16.8987 14.2463 17.3418 14.2463 17.9515ZM18.0788 17.9515V16.9427H17.6645V17.1949C17.5264 17.0064 17.3284 16.9011 17.0706 16.9011C16.5366 16.9011 16.1223 17.3418 16.1223 17.9515C16.1223 18.5612 16.5366 19.0019 17.0706 19.0019C17.3468 19.0019 17.5448 18.8966 17.6645 18.7081V18.9603H18.0788V17.9515ZM16.5573 17.9515C16.5573 17.594 16.7737 17.3002 17.1305 17.3002C17.4665 17.3002 17.7036 17.5744 17.7036 17.9515C17.7036 18.309 17.4665 18.6028 17.1305 18.6028C16.776 18.5807 16.5573 18.3065 16.5573 17.9515ZM11.5991 16.8987C11.0467 16.8987 10.6508 17.3198 10.6508 17.949C10.6508 18.5807 11.0467 18.9994 11.6199 18.9994C11.8961 18.9994 12.1723 18.9162 12.391 18.7252L12.193 18.4094C12.0342 18.5367 11.8362 18.6199 11.6406 18.6199C11.3828 18.6199 11.1273 18.4926 11.0674 18.1376H12.4692C12.4692 18.0739 12.4692 18.0323 12.4692 17.9686C12.4877 17.3198 12.1309 16.8987 11.5991 16.8987ZM11.5991 17.2782C11.857 17.2782 12.0342 17.4471 12.0733 17.7605H11.0858C11.125 17.4887 11.3022 17.2782 11.5991 17.2782ZM21.893 17.9515V16.1445H21.4786V17.1949C21.3405 17.0064 21.1426 16.9011 20.8848 16.9011C20.3507 16.9011 19.9364 17.3418 19.9364 17.9515C19.9364 18.5612 20.3507 19.0019 20.8848 19.0019C21.161 19.0019 21.359 18.8966 21.4786 18.7081V18.9603H21.893V17.9515ZM20.3715 17.9515C20.3715 17.594 20.5878 17.3002 20.9446 17.3002C21.2807 17.3002 21.5178 17.5744 21.5178 17.9515C21.5178 18.309 21.2807 18.6028 20.9446 18.6028C20.5878 18.5807 20.3715 18.3065 20.3715 17.9515ZM6.50057 17.9515V16.9427H6.08624V17.1949C5.94813 17.0064 5.75017 16.9011 5.49236 16.9011C4.95833 16.9011 4.544 17.3418 4.544 17.9515C4.544 18.5612 4.95833 19.0019 5.49236 19.0019C5.76858 19.0019 5.96654 18.8966 6.08624 18.7081V18.9603H6.50057V17.9515ZM4.96064 17.9515C4.96064 17.594 5.17701 17.3002 5.53379 17.3002C5.86986 17.3002 6.10695 17.5744 6.10695 17.9515C6.10695 18.309 5.86986 18.6028 5.53379 18.6028C5.17701 18.5807 4.96064 18.3065 4.96064 17.9515Z" fill="black"/>
<path d="M14.6031 1.61719H8.37891V13.5118H14.6031V1.61719Z" fill="#FF5A00"/>
<path d="M8.79303 7.56572C8.79303 5.1491 9.86109 3.00425 11.5 1.61843C10.2938 0.609665 8.77232 0 7.11269 0C3.18114 0 0 3.38376 0 7.56572C0 11.7477 3.18114 15.1314 7.11269 15.1314C8.77232 15.1314 10.2938 14.5218 11.5 13.513C9.85879 12.1468 8.79303 9.98234 8.79303 7.56572Z" fill="#EB001B"/>
<path d="M23 7.56572C23 11.7477 19.8189 15.1314 15.8873 15.1314C14.2277 15.1314 12.7062 14.5218 11.5 13.513C13.1596 12.1247 14.207 9.98234 14.207 7.56572C14.207 5.1491 13.1389 3.00425 11.5 1.61843C12.7039 0.609665 14.2254 0 15.885 0C19.8189 0 23 3.4058 23 7.56572Z" fill="#F79E1B"/>
</svg>
