<svg width="73" height="16" viewBox="0 0 73 16" fill="none" xmlns="http://www.w3.org/2000/svg">
<path d="M8.50819 16C13.2071 16 17.0164 12.4183 17.0164 7.99998C17.0164 3.58171 13.2071 0 8.50819 0C3.80924 0 0 3.58171 0 7.99998C0 12.4183 3.80924 16 8.50819 16Z" fill="#26A17B"/>
<path d="M9.428 8.29208V8.29094C9.37633 8.29432 9.10972 8.30902 8.51642 8.30902C8.04202 8.30902 7.70935 8.2966 7.59163 8.29094V8.29208C5.76731 8.21641 4.40656 7.91826 4.40656 7.56029C4.40656 7.20345 5.76848 6.9042 7.59163 6.82854V7.99507C7.71052 8.00297 8.05281 8.02219 8.52482 8.02219C9.09171 8.02219 9.37516 7.99959 9.428 7.99507V6.82964C11.2487 6.90645 12.6059 7.20459 12.6059 7.56143C12.6059 7.91826 11.2475 8.21641 9.428 8.29322M9.428 6.70881V5.66539H11.9682V4.07422H5.05269V5.66539H7.59285V6.70881C5.5283 6.79804 3.97656 7.18199 3.97656 7.64275C3.97656 8.10348 5.52948 8.48743 7.59285 8.57776V11.9227H9.42917V8.57776C11.4901 8.48857 13.0395 8.10462 13.0395 7.64386C13.0395 7.18423 11.4901 6.79918 9.42917 6.70995" fill="white"/>
<path d="M27.0206 3.56556V5.85079H29.3827V7.56549H27.0043V11.0423C27.0043 11.8102 27.4549 12.1849 28.1154 12.1849C28.4456 12.1849 28.8279 12.087 29.1403 11.9402L29.7308 13.6381C29.124 13.866 28.6197 13.9639 27.9771 13.9807C26.1193 14.0464 24.9041 13.0507 24.9041 11.0423V7.56549H23.3066V5.85079H24.9041V3.77816L27.0206 3.56556ZM67.744 5.74371L67.9001 6.67371C68.5603 5.67796 69.4453 5.53111 70.3141 5.53111C71.1991 5.53111 72.05 5.85691 72.5184 6.29743L71.5634 8.02743C71.1292 7.6848 70.7308 7.5043 70.036 7.5043C68.9249 7.5043 67.9001 8.05957 67.9001 9.54479V13.7895H65.782V5.74067L67.744 5.74371ZM62.5529 8.82896C62.4146 7.78421 61.5459 7.26108 60.3308 7.26108C59.1855 7.26108 58.2465 7.78421 57.9343 8.82896H62.5529ZM57.9001 10.4779C58.0383 11.4737 58.9591 12.1926 60.4527 12.1926C61.2333 12.1926 62.2581 11.9142 62.7447 11.4415L64.0981 12.6989C63.1952 13.5799 61.7199 14.0052 60.417 14.0052C57.4659 14.0052 55.7106 12.2905 55.7106 9.71155C55.7106 7.26263 57.4822 5.49897 60.2605 5.49897C63.1253 5.49897 64.9148 7.16475 64.5847 10.4779H57.9001ZM48.5591 2.36328V6.83587C49.3237 5.90587 50.2608 5.62748 51.2336 5.62748C53.6639 5.62748 54.7408 7.1785 54.7408 9.54635V13.791H52.6228V9.56314C52.6228 8.09322 51.8061 7.47372 50.6771 7.47372C49.4263 7.47372 48.5591 8.46951 48.5591 9.6779V13.7925H46.441V2.3648L48.5591 2.36328ZM42.9338 3.47378V5.75902H45.2958V7.47372H42.9175V10.9505C42.9175 11.7184 43.3699 12.0932 44.0286 12.0932C44.3587 12.0932 44.7412 11.9952 45.0534 11.8484L45.6441 13.5463C45.0371 13.7742 44.533 13.8721 43.8903 13.8889C42.0324 13.9547 40.8173 12.9574 40.8173 10.9505V7.47372H39.22V5.75902H40.8173V3.68639L42.9338 3.47378ZM37.0822 8.82896C36.9439 7.78421 36.0752 7.26108 34.86 7.26108C33.7148 7.26108 32.7761 7.78421 32.4638 8.82896H37.0822ZM32.4296 10.4779C32.5679 11.4737 33.4887 12.1926 34.9821 12.1926C35.763 12.1926 36.7878 11.9142 37.274 11.4415L38.6278 12.6989C37.7249 13.5799 36.2492 14.0052 34.9463 14.0052C31.9937 14.0052 30.24 12.2905 30.24 9.71155C30.24 7.26263 32.0116 5.49897 34.7885 5.49897C37.6531 5.49897 39.4411 7.16475 39.1125 10.4779H32.4296Z" fill="#5B5A5D"/>
</svg>
