<svg width="80" height="16" viewBox="0 0 80 16" fill="none" xmlns="http://www.w3.org/2000/svg">
<path d="M10.081 11.0187C10.081 12.5898 9.58502 13.8127 8.59597 14.6991C7.60691 15.5709 6.22981 16.001 4.46468 16.001C3.72362 16.001 3.02632 15.922 2.36695 15.7435C1.70466 15.5622 1.13865 15.3164 0.663086 14.9829V11.2645C1.22326 11.6419 1.87388 11.9491 2.60327 12.2065C3.33266 12.4581 3.99495 12.5898 4.5843 12.5898C5.08321 12.5898 5.45957 12.4815 5.71632 12.265C5.97015 12.0485 6.09852 11.7267 6.09852 11.3288C6.09852 11.1445 6.05768 10.9573 5.9789 10.7905C5.89429 10.6179 5.78051 10.4512 5.63463 10.2873C5.48583 10.1147 5.08904 9.74903 4.44426 9.18732C3.65652 8.51736 3.08467 7.8357 2.72873 7.14527C2.37278 6.44898 2.19481 5.68833 2.19481 4.85746C2.19481 3.92713 2.41363 3.09041 2.85418 2.35024C3.29474 1.61007 3.91618 1.03958 4.72143 0.627071C5.52376 0.21749 6.42237 0.015625 7.42018 0.015625C9.02485 0.015625 10.469 0.39595 11.7528 1.15953L10.3874 4.31915C9.23783 3.69015 8.26044 3.38297 7.45519 3.38297C7.02631 3.38297 6.69371 3.48244 6.4603 3.68138C6.23273 3.87739 6.11603 4.16702 6.11603 4.54735C6.11603 4.89549 6.22981 5.22023 6.45447 5.52157C6.67912 5.82583 7.108 6.22663 7.7382 6.72983C8.52886 7.34713 9.11821 8.00246 9.50041 8.67827C9.88845 9.357 10.081 10.1323 10.081 11.0187Z" fill="#F25822"/>
<path d="M17.0369 15.7955H13.0953L15.4819 3.67193H12.2871L12.9815 0.234375H23.3447L22.6328 3.67193H19.4264L17.0369 15.7955Z" fill="#F25822"/>
<path d="M21.5938 15.7965L24.7068 0.238281H28.7097L25.5937 15.7965H21.5938Z" fill="#F25822"/>
<path d="M36.6657 3.46096C35.9363 3.46096 35.2799 3.73597 34.6963 4.28597C34.1128 4.83891 33.6548 5.60249 33.3192 6.57378C32.9866 7.548 32.8203 8.59828 32.8203 9.73633C32.8203 10.6901 33.0071 11.3981 33.3834 11.872C33.7598 12.3284 34.2995 12.5624 35.0056 12.5624C35.557 12.5624 36.1318 12.501 36.6978 12.3577C37.2726 12.2026 37.9436 11.951 38.7109 11.6087V15.055C37.3455 15.6957 35.8634 15.9971 34.2733 15.9971C32.5286 15.9971 31.1748 15.4705 30.2383 14.4319C29.2959 13.3816 28.8291 11.8925 28.8291 9.9616C28.8291 8.06875 29.1675 6.33973 29.8532 4.76577C30.533 3.19181 31.4637 2.00987 32.6336 1.20241C33.8065 0.400805 35.1486 0 36.6628 0C38.4425 0 40.0588 0.465167 41.5118 1.40135L40.0209 4.63997C39.3965 4.25087 38.8218 3.96416 38.2966 3.7623C37.7715 3.55751 37.2317 3.46096 36.6657 3.46096Z" fill="#F25822"/>
<path d="M52.5691 4.89873C52.5691 6.68626 51.9973 8.09639 50.8419 9.10572C49.6865 10.1267 48.1081 10.6299 46.1067 10.6299H45.2402L44.2278 15.7965H40.2832L43.3933 0.238281H47.1541C48.8988 0.238281 50.238 0.642011 51.1599 1.44655C52.1081 2.25108 52.5691 3.40376 52.5691 4.89873ZM45.9491 7.22749H46.5881C47.1978 7.22749 47.6938 7.02563 48.0702 6.60434C48.4466 6.18891 48.6333 5.66816 48.6333 5.02453C48.6333 4.60617 48.5078 4.26973 48.2686 4.01228C48.0294 3.75775 47.6997 3.62903 47.2708 3.62903H46.6727L45.9491 7.22749Z" fill="#F25822"/>
<path d="M60.6514 12.8826H56.1321L54.8688 15.7965H50.7842L58.2765 0.238281H63.3472L64.5843 15.7965H60.7506L60.6514 12.8826ZM57.5734 9.56211H60.5259L60.3509 5.05086L60.3334 4.13515C60.3334 3.6027 60.3451 3.13753 60.3772 2.73965C60.2138 3.34817 60.0125 3.93329 59.7586 4.5067L57.5734 9.56211Z" fill="#F25822"/>
<path d="M71.7528 6.00069L74.8979 0.234375H79.2918L73.127 9.75129L71.9045 15.7955H67.9541L69.1678 9.75714L66.7812 0.240226H70.8454L71.7528 6.00069Z" fill="#F25822"/>
</svg>
