<svg width="49" height="17" viewBox="0 0 49 17" fill="none" xmlns="http://www.w3.org/2000/svg">
<path d="M31.9155 0.5C28.4363 0.5 25.3271 2.31737 25.3271 5.67511C25.3271 9.5258 30.8414 9.79176 30.8414 11.7262C30.8414 12.5408 29.9151 13.2699 28.3332 13.2699C26.088 13.2699 24.41 12.2511 24.41 12.2511L23.692 15.6394C23.692 15.6394 25.6251 16.5 28.1915 16.5C31.9953 16.5 34.9885 14.5934 34.9885 11.1782C34.9885 7.1093 29.4513 6.85124 29.4513 5.05572C29.4513 4.41765 30.2117 3.71852 31.7891 3.71852C33.569 3.71852 35.0211 4.45948 35.0211 4.45948L35.7237 1.18693C35.7237 1.18693 34.1437 0.5 31.9155 0.5ZM0.0842451 0.746985L0 1.24096C0 1.24096 1.4637 1.51092 2.782 2.04945C4.47942 2.66697 4.60034 3.02646 4.88621 4.14303L8.00137 16.2453H12.1772L18.6105 0.746985H14.4442L10.3104 11.2844L8.62363 2.35239C8.46894 1.33013 7.68535 0.746985 6.7262 0.746985H0.0842451ZM20.2858 0.746985L17.0175 16.2453H20.9904L24.2473 0.746985H20.2858ZM42.4442 0.746985C41.4862 0.746985 40.9786 1.26388 40.6061 2.16715L34.7856 16.2453H38.9519L39.7579 13.8989H44.8337L45.3239 16.2453H49L45.7929 0.746985H42.4442ZM42.9861 4.93415L44.221 10.7499H40.9125L42.9861 4.93415Z" fill="#1434CB"/>
</svg>
