<svg width="24" height="24" viewBox="0 0 24 24" fill="none" xmlns="http://www.w3.org/2000/svg">
<path d="M22.5 17.7966C23.4537 16.0768 24 14.1013 24 12C24 9.89874 23.4537 7.92316 22.5 6.20337V5.98674H22.368C20.2876 2.41326 16.4248 0 12 0C5.38295 0 0 5.38295 0 12C0 18.6171 5.38295 24 12 24C16.4248 24 20.2876 21.5874 22.368 18.0133H22.5V17.7966ZM1.94274 12.9474H5.51368C5.58632 14.0343 5.78147 15.096 6.09474 16.1185H2.78021C2.33937 15.1333 2.04758 14.0672 1.94274 12.9474ZM18.4863 11.0526C18.4137 9.96568 18.2185 8.90337 17.9053 7.88147H21.2198C21.6606 8.86674 21.9524 9.93221 22.0573 11.0526H18.4863ZM16.584 11.0526H12.9474V7.88147H15.9044C16.2707 8.89516 16.4994 9.95937 16.584 11.0526ZM12.9474 5.98674V3.28421C13.7728 4.10021 14.4682 5.00905 15.0272 5.98674H12.9474ZM11.0526 3.28421V5.98674H8.97284C9.53179 5.00905 10.2272 4.10084 11.0526 3.28421ZM11.0526 7.88147V11.0526H7.416C7.50063 9.95937 7.72926 8.89516 8.09558 7.88147H11.0526ZM5.51368 11.0526H1.94274C2.04758 9.93221 2.33937 8.86674 2.78021 7.88147H6.09474C5.78147 8.90337 5.58695 9.96568 5.51368 11.0526ZM7.416 12.9474H11.0526V16.1185H8.09558C7.72926 15.1048 7.50063 14.04 7.416 12.9474ZM11.0526 18.0133V20.7158C10.2272 19.8998 9.53179 18.9909 8.97284 18.0139H11.0526V18.0133ZM12.9474 20.7158V18.0139H15.0272C14.4682 18.9903 13.7728 19.8992 12.9474 20.7158ZM12.9474 16.1185V12.9474H16.584C16.4994 14.04 16.2707 15.1048 15.9044 16.1185H12.9474ZM18.4863 12.9474H22.0573C21.9524 14.0672 21.6606 15.1333 21.2198 16.1185H17.9053C18.2185 15.096 18.4131 14.0343 18.4863 12.9474ZM20.1019 5.98674H17.1632C16.5164 4.62505 15.6499 3.36126 14.58 2.24084C16.8215 2.83453 18.7547 4.176 20.1019 5.98674ZM9.42 2.24084C8.35011 3.36126 7.48421 4.62505 6.83684 5.98674H3.89811C5.24526 4.176 7.17853 2.83453 9.42 2.24084ZM3.89811 18.0133H6.83684C7.48358 19.3737 8.35011 20.6375 9.42 21.7592C7.17853 21.1655 5.24526 19.8246 3.89811 18.0133ZM14.58 21.7592C15.6499 20.6387 16.5158 19.3749 17.1632 18.0133H20.1019C18.7547 19.8246 16.8215 21.1655 14.58 21.7592Z" fill="#0057FF"/>
</svg>
