<svg width="20" height="20" viewBox="0 0 20 20" fill="none" xmlns="http://www.w3.org/2000/svg">
<g clip-path="url(#clip0_156_1786)">
<path d="M15.8393 19.5364C15.7799 19.5364 15.7206 19.527 15.6629 19.5076L10.0001 17.6008L4.33703 19.5076C4.16758 19.565 3.98134 19.5361 3.83645 19.4312C3.69184 19.3261 3.60716 19.1575 3.60905 18.9786L3.6725 13.0037L0.108922 8.20661C0.00241425 8.06311 -0.0282477 7.87687 0.0269716 7.70687C0.0821445 7.53686 0.216539 7.40413 0.387099 7.35062L6.08934 5.56437L9.55007 0.693284C9.65385 0.547559 9.82131 0.460938 10.0001 0.460938C10.1787 0.460938 10.3464 0.547327 10.4502 0.693284L13.9107 5.56465L19.6129 7.35062C19.7835 7.40418 19.9175 7.53691 19.973 7.70687C20.0282 7.87687 19.9979 8.06311 19.8911 8.20661L16.3275 13.0035L16.3909 18.9784C16.3929 19.1569 16.3079 19.3258 16.1635 19.431C16.068 19.5002 15.9543 19.5364 15.8393 19.5364Z" fill="#FFC700"/>
<mask id="mask0_156_1786" style="mask-type:alpha" maskUnits="userSpaceOnUse" x="0" y="0" width="20" height="20">
<g clip-path="url(#clip1_156_1786)">
<path d="M15.8393 19.5364C15.7799 19.5364 15.7206 19.527 15.6629 19.5076L10.0001 17.6008L4.33703 19.5076C4.16758 19.565 3.98134 19.5361 3.83645 19.4312C3.69184 19.3261 3.60716 19.1575 3.60905 18.9786L3.6725 13.0037L0.108922 8.20661C0.00241425 8.06311 -0.0282477 7.87687 0.0269716 7.70687C0.0821445 7.53686 0.216539 7.40413 0.387099 7.35062L6.08934 5.56437L9.55007 0.693284C9.65385 0.547559 9.82131 0.460938 10.0001 0.460938C10.1787 0.460938 10.3464 0.547327 10.4502 0.693284L13.9107 5.56465L19.6129 7.35062C19.7835 7.40418 19.9175 7.53691 19.973 7.70687C20.0282 7.87687 19.9979 8.06311 19.8911 8.20661L16.3275 13.0035L16.3909 18.9784C16.3929 19.1569 16.3079 19.3258 16.1635 19.431C16.068 19.5002 15.9543 19.5364 15.8393 19.5364Z" fill="black"/>
</g>
</mask>
<g mask="url(#mask0_156_1786)">
<rect x="10" y="-8" width="11" height="38" fill="black"/>
</g>
</g>
<defs>
<clipPath id="clip0_156_1786">
<rect width="20" height="20" fill="white"/>
</clipPath>
<clipPath id="clip1_156_1786">
<rect width="20" height="20" fill="white"/>
</clipPath>
</defs>
</svg>
