<svg width="91" height="17" viewBox="0 0 91 17" fill="none" xmlns="http://www.w3.org/2000/svg">
<path d="M89.2284 1.7162C88.0771 0.907864 86.3345 0.500194 84.0503 0.500194H78.0683L75.8443 12.8722H68.0077L68.5114 10.0653H73.232L73.7914 6.91263L69.0735 6.91959L69.5785 4.12516H74.4411L75.088 0.500917H65.2133L63.1021 12.2366H59.4783L61.6038 0.500299H56.4419L54.3307 12.236H50.8006L52.9281 0.500299H47.7689L45.5423 12.8724H37.6493L38.1483 10.0654H42.8879L43.448 6.93064L38.7128 6.92577L39.2152 4.12579H44.1322L44.7751 0.5H14.0037L12.2523 10.3039L8.76434 0.5H3.40879L0.526367 16.5H5.64098L7.38564 6.4257L10.7703 16.5H29.1006L31.3293 4.12424H34.1961L31.9674 16.5H80.1981L81.5965 8.68796L83.8585 16.5H88.9758L86.6317 10.1166L87.168 9.99834C88.3492 9.73887 89.2704 9.18165 89.9119 8.34618C90.5528 7.50307 90.8793 6.42061 90.8793 5.12038C90.8793 3.60665 90.3389 2.49292 89.227 1.71527L89.2284 1.7162ZM24.6498 12.8722H16.8207L17.3264 10.0653H22.2371L22.7938 6.90368H17.9304L18.3988 4.12595H26.2165L24.6483 12.8722L24.6498 12.8722ZM85.0119 7.48295C84.4974 7.85164 83.7513 8.03111 82.731 8.03111H81.7195L82.4954 3.73745H83.2394C84.0867 3.73745 84.7044 3.87658 85.1307 4.16039C85.4634 4.383 85.8591 4.82336 85.8591 5.65604C85.8579 6.66335 85.3975 7.20457 85.0106 7.48283L85.0119 7.48295Z" fill="#83BA3B"/>
</svg>
