<svg width="61" height="16" viewBox="0 0 61 16" fill="none" xmlns="http://www.w3.org/2000/svg">
<path d="M16.2581 9.95791C15.7417 12.0069 14.4353 13.7681 12.6243 14.8568C10.8134 15.9455 8.6451 16.2732 6.59328 15.7683C4.5335 15.2572 2.76115 13.9488 1.66612 12.1309C0.571048 10.313 0.242982 8.13449 0.754139 6.07472C1.26526 4.01495 2.5737 2.24259 4.3916 1.14756C6.20949 0.0524884 8.38793 -0.275559 10.4477 0.235569C11.4684 0.49097 12.4287 0.945273 13.2736 1.57252C14.1184 2.19974 14.8311 2.98752 15.3709 3.89071C15.9107 4.79391 16.2669 5.79476 16.4191 6.83589C16.5714 7.87702 16.5166 8.93798 16.2581 9.95791Z" fill="#F7931A"/>
<path d="M12.0586 6.85016C12.2312 5.81463 11.4258 5.23935 10.3327 4.83668L10.6779 3.39844L9.81501 3.16834L9.41229 4.60653L8.72198 4.43397L9.06712 2.99573L8.2042 2.76562L7.85902 4.20386L7.28374 4.08879L6.07565 3.80115L5.84554 4.72161L6.47836 4.89417C6.53896 4.90129 6.59759 4.92037 6.65078 4.95035C6.70396 4.98033 6.75063 5.02056 6.78811 5.06875C6.82558 5.11694 6.8531 5.17209 6.86907 5.23102C6.88501 5.28992 6.8891 5.35143 6.88103 5.41196L6.47836 7.02276L5.90304 9.32388C5.84555 9.43895 5.78801 9.61152 5.50037 9.55402L4.86755 9.38142L4.46484 10.4169L5.55791 10.7046L6.19068 10.8197L5.84554 12.3154L6.70846 12.5455L7.05364 11.0498L7.80149 11.2799L7.39881 12.7181L8.31927 12.8907L8.66445 11.4525C10.1602 11.7401 11.2532 11.625 11.771 10.2444C11.8566 10.0558 11.9036 9.85211 11.9093 9.64517C11.9151 9.43823 11.8793 9.23224 11.8043 9.03927C11.7293 8.84633 11.6164 8.67032 11.4724 8.5216C11.3283 8.37292 11.156 8.25448 10.9656 8.17332C11.2658 8.09955 11.5342 7.93099 11.7311 7.69263C11.928 7.45432 12.0428 7.15888 12.0586 6.85016ZM10.0451 9.66906C9.815 10.7621 7.97409 10.1868 7.34128 10.0142L7.85902 8.11579C8.4343 8.23086 10.3327 8.5185 10.0451 9.66906ZM10.3327 6.85016C10.1026 7.82815 8.54937 7.3104 8.08913 7.19533L8.49184 5.46949C9.00962 5.58453 10.5629 5.81463 10.3327 6.85016Z" fill="white"/>
<path d="M23.0531 5.74748C23.4624 5.73692 23.8688 5.82099 24.2403 5.9931C24.5546 6.15405 24.8331 6.37685 25.0591 6.64814C25.3015 6.93006 25.4702 7.26763 25.5504 7.63067C25.6702 8.02869 25.7255 8.44332 25.7141 8.85886C25.7186 9.49168 25.5932 10.1187 25.3457 10.7011C25.1165 11.2756 24.7834 11.803 24.3631 12.2568C23.9375 12.7026 23.4208 13.0517 22.8484 13.2803C22.2751 13.5598 21.6439 13.7001 21.0061 13.6897H20.5558L19.8189 13.6078L18.9182 13.444L18.0176 13.1165L20.5148 2.67705L22.7256 2.30859L21.8658 6.03406L22.439 5.82935L23.0531 5.74748ZM21.1699 11.9293C21.4998 11.9313 21.8245 11.8466 22.1115 11.6837C22.4136 11.522 22.6786 11.2988 22.8893 11.0286C23.1056 10.7384 23.2845 10.422 23.4215 10.087C23.5384 9.74464 23.5938 9.38429 23.5853 9.02261C23.6005 8.64348 23.5306 8.26575 23.3806 7.91725C23.2818 7.78624 23.1505 7.68336 22.9997 7.61871C22.8489 7.55409 22.6839 7.52998 22.5209 7.54879C22.3398 7.54119 22.159 7.56901 21.9887 7.63067C21.7735 7.6675 21.5741 7.76724 21.4155 7.91725L20.4739 11.8474C20.4739 11.8474 20.5299 11.8931 20.7433 11.9112C20.9568 11.9293 21.1699 11.9293 21.1699 11.9293Z" fill="#4D4D4D"/>
<path d="M28.0478 13.4854H25.9189L27.7203 5.91168H29.8491L28.0478 13.4854ZM29.0712 4.97006C28.78 4.9709 28.4951 4.88543 28.2525 4.72444C28.1322 4.6275 28.039 4.50126 27.9816 4.35788C27.9243 4.21449 27.9048 4.05877 27.925 3.90566C27.9066 3.70655 27.9495 3.50662 28.0478 3.3325C28.1035 3.1605 28.2021 3.00553 28.3343 2.88217C28.4725 2.74825 28.6411 2.64991 28.8256 2.59559C29.0049 2.5119 29.2009 2.46992 29.3987 2.47279C29.6772 2.47257 29.9488 2.55834 30.1766 2.71842C30.2986 2.81581 30.3957 2.94088 30.4598 3.08328C30.5239 3.22564 30.5531 3.38129 30.5451 3.5372C30.5479 3.73509 30.5059 3.93102 30.4222 4.11036C30.3518 4.28509 30.2393 4.43979 30.0947 4.56069L29.6444 4.88819C29.4618 4.95788 29.266 4.98589 29.0712 4.97006Z" fill="#4D4D4D"/>
<path d="M31.6912 4.02675L33.9431 3.69922L33.4109 5.90995H35.7853L35.3349 7.67031H32.9604L32.3465 10.3314L32.2234 10.9454C32.2306 11.1119 32.2583 11.2769 32.3056 11.4367C32.3809 11.5752 32.4945 11.6889 32.633 11.7642C32.837 11.861 33.0626 11.9033 33.2878 11.8871L33.9431 11.8052L34.5979 11.6005L34.7618 13.279L33.8201 13.5246C33.4306 13.6125 33.0323 13.6537 32.633 13.6475C32.0989 13.6788 31.5652 13.5805 31.0773 13.3609C30.7404 13.1739 30.4688 12.8882 30.2994 12.5421C30.1461 12.1802 30.0761 11.7884 30.0947 11.3958C30.1256 10.9136 30.1941 10.4345 30.2994 9.96291L31.6912 4.02675Z" fill="#4D4D4D"/>
<path d="M35.7026 10.4562C35.6916 9.83025 35.7886 9.20702 35.9895 8.61398C36.2144 8.05895 36.5327 7.54662 36.9309 7.09921C37.3223 6.66905 37.7955 6.32112 38.3228 6.07576C38.9197 5.82824 39.5602 5.70295 40.2059 5.7073C40.6053 5.70325 41.0035 5.74444 41.3933 5.8301L42.2939 6.15763L41.5572 7.83612L40.9838 7.63145C40.7351 7.54053 40.4709 7.49882 40.2059 7.50862C39.8887 7.49567 39.5726 7.55529 39.2816 7.68301C38.9909 7.81072 38.7327 8.00308 38.5275 8.24553C38.0968 8.80714 37.8791 9.50351 37.9136 10.2106C37.8761 10.6329 37.9923 11.0544 38.241 11.3978C38.3708 11.5746 38.5457 11.7134 38.7471 11.7998C38.9488 11.8862 39.1699 11.917 39.3872 11.8891C39.6646 11.8886 39.9406 11.8472 40.2059 11.7663L40.902 11.5616L41.025 13.281L40.165 13.5676C39.7755 13.6555 39.3769 13.6967 38.978 13.6904C38.4579 13.7108 37.9401 13.6128 37.4631 13.4039C37.0699 13.2599 36.7182 13.0208 36.4396 12.7079C36.178 12.4113 35.9827 12.0624 35.8665 11.6844C35.7465 11.2864 35.6913 10.8718 35.7026 10.4562Z" fill="#4D4D4D"/>
<path d="M45.1598 13.6871C44.6976 13.6968 44.2381 13.6133 43.8089 13.4414C43.4625 13.2949 43.1544 13.0708 42.9084 12.7864C42.6551 12.4992 42.4606 12.1655 42.3353 11.8039C42.2153 11.4058 42.16 10.9912 42.1714 10.5757C42.1699 9.98021 42.2524 9.38756 42.417 8.81531C42.6214 8.25547 42.9118 7.73068 43.2767 7.25961C43.6347 6.80694 44.0803 6.43103 44.5867 6.15425C45.1538 5.85279 45.787 5.69798 46.429 5.70392C46.8779 5.69396 47.3242 5.77762 47.7391 5.94954C48.0956 6.08002 48.4178 6.29003 48.6808 6.56362C48.9299 6.8625 49.1112 7.21162 49.213 7.58711C49.3474 7.98267 49.4167 8.39749 49.4174 8.81531C49.4023 9.39895 49.3058 9.97764 49.1309 10.5347C48.967 11.1161 48.6884 11.6588 48.3122 12.1314C47.9435 12.6176 47.4669 13.0113 46.9196 13.2813C46.3726 13.5513 45.77 13.6902 45.1598 13.6871ZM46.2242 7.50524C45.9157 7.51334 45.6163 7.61308 45.3646 7.79182C45.131 7.98505 44.9365 8.22133 44.7915 8.48777C44.6272 8.76928 44.5031 9.07244 44.4232 9.38843C44.3445 9.69628 44.3032 10.0124 44.3002 10.33C44.2892 10.7221 44.3589 11.1123 44.505 11.4763C44.6019 11.6118 44.7313 11.7205 44.882 11.7921C45.0323 11.8637 45.1984 11.896 45.3646 11.8857C45.6598 11.8721 45.9441 11.7724 46.1833 11.5992C46.4298 11.4076 46.6379 11.1715 46.7977 10.9032C46.962 10.6217 47.0861 10.3185 47.166 10.0025C47.2443 9.69469 47.2856 9.37859 47.2886 9.06093C47.3094 8.66386 47.2247 8.26834 47.043 7.91465C46.9559 7.77944 46.8336 7.67016 46.6898 7.59816C46.5456 7.52617 46.3851 7.49407 46.2242 7.50524Z" fill="#4D4D4D"/>
<path d="M51.7108 13.4856H49.582L51.3834 5.91184H53.5531L51.7108 13.4856ZM52.7752 4.97026C52.4834 4.97628 52.1969 4.89035 51.9565 4.7246C51.8316 4.62959 51.7328 4.50494 51.6684 4.36197C51.6041 4.21897 51.5765 4.06218 51.5882 3.90581C51.589 3.70834 51.631 3.51321 51.7108 3.33269C51.796 3.16652 51.9065 3.01458 52.0383 2.88236C52.1617 2.75014 52.3169 2.6515 52.4887 2.59578C52.6693 2.51576 52.8642 2.47397 53.0618 2.47295C53.3536 2.46693 53.6402 2.55286 53.8805 2.71858C54.0028 2.81597 54.0997 2.94103 54.1641 3.08343C54.228 3.22584 54.2572 3.38145 54.2492 3.53736C54.2519 3.73525 54.2099 3.93121 54.1262 4.11052C54.041 4.27669 53.9305 4.42863 53.7988 4.56085L53.3483 4.88839C53.1651 4.95553 52.9698 4.98343 52.7752 4.97026Z" fill="#4D4D4D"/>
<path d="M55.0673 6.23939L55.5995 6.0756L56.2543 5.91186L57.1143 5.78906H58.1375C59.2432 5.78906 60.021 6.11656 60.4302 6.7716C60.8398 7.42663 60.9624 8.28633 60.6759 9.43261L59.6932 13.5265H57.5644L58.5062 9.51453L58.6288 8.77762C58.6697 8.57496 58.6697 8.36616 58.6288 8.1635C58.5876 7.99627 58.4853 7.85042 58.3423 7.75413C58.1663 7.62312 57.9463 7.56453 57.7283 7.59038C57.4391 7.57702 57.1499 7.60457 56.8687 7.67225L55.4765 13.5265H53.3477L55.0673 6.23939Z" fill="#4D4D4D"/>
</svg>
