<svg width="61" height="17" viewBox="0 0 61 17" fill="none" xmlns="http://www.w3.org/2000/svg">
<path d="M7.94965 16.5009C12.2937 16.5009 15.8154 12.9793 15.8154 8.6352C15.8154 4.29111 12.2937 0.769531 7.94965 0.769531C3.6056 0.769531 0.0839844 4.29111 0.0839844 8.6352C0.0839844 12.9793 3.6056 16.5009 7.94965 16.5009Z" fill="#64B3DF"/>
<path d="M18.8936 12.4744V4.7607H21.4014C22.0244 4.73703 22.6481 4.77522 23.2634 4.8747C23.7066 4.99496 24.0954 5.26312 24.3653 5.63467C24.6857 6.07473 24.8466 6.61085 24.8213 7.1546C24.8421 7.56419 24.7501 7.97165 24.5553 8.33255C24.4267 8.6484 24.2003 8.91473 23.9093 9.09252C23.6583 9.27279 23.3743 9.4019 23.0734 9.47251C22.5465 9.56336 22.0119 9.60155 21.4774 9.5865H20.4515V12.5124H18.8936V12.4744ZM20.4515 6.09065V8.25656H21.3255C21.7342 8.27943 22.1441 8.24102 22.5414 8.14256C22.7489 8.08431 22.9259 7.9482 23.0354 7.76258C23.1593 7.5841 23.2256 7.37192 23.2254 7.1546C23.2175 6.90294 23.1236 6.66154 22.9594 6.47063C22.8051 6.28653 22.5889 6.16493 22.3514 6.12865H20.4515V6.09065Z" fill="black"/>
<path d="M32.2683 12.4715H30.5583L29.9124 10.7236H26.7965L26.1505 12.4715H24.5166L27.5185 4.75781H29.1524L32.2683 12.4715ZM29.3804 9.43162L28.3164 6.58174L27.2905 9.43162H29.3804Z" fill="black"/>
<path d="M34.1302 12.4715V9.24162L31.3184 4.75781H33.1423L34.9662 7.83568L36.7141 4.75781H38.5381L35.6882 9.24162V12.4715H34.1302Z" fill="black"/>
<path d="M39.2988 12.4715V4.75781H44.9986V6.08776H40.8568V7.79768H44.7326V9.08963H40.8568V11.1795H45.1506V12.5095H39.2988V12.4715Z" fill="#64B3DF"/>
<path d="M46.4805 12.4715V4.75781H52.2182V6.08776H48.0384V7.79768H51.9142V9.08963H48.0384V11.1795H52.3702V12.5095H46.4805V12.4715Z" fill="#64B3DF"/>
<path d="M53.7002 12.4744V4.76076H56.9681C57.5722 4.72926 58.1772 4.80648 58.754 4.98875C59.126 5.12813 59.4448 5.38063 59.6659 5.71072C59.8943 6.07486 60.0129 6.49695 60.0079 6.92667C60.0247 7.45876 59.8339 7.97653 59.476 8.37061C59.0675 8.77913 58.5306 9.03414 57.956 9.09258C58.2638 9.26707 58.5454 9.48457 58.792 9.73855C59.1374 10.1248 59.4429 10.545 59.7039 10.9925L60.6159 12.5124H58.754L57.652 10.8025L56.8161 9.66256C56.6827 9.53568 56.5284 9.43286 56.3601 9.35857L55.5621 9.28257H55.2581V12.5124H53.7002V12.4744ZM55.2581 8.02863H56.3981C56.8681 8.04113 57.3382 8.01571 57.804 7.95263C57.9807 7.89366 58.1293 7.77195 58.222 7.61064C58.3345 7.44273 58.3881 7.24225 58.374 7.04067C58.3919 6.80937 58.3242 6.57959 58.184 6.39469C58.021 6.24931 57.8257 6.14508 57.614 6.09071H55.2581V8.02863Z" fill="#64B3DF"/>
<path d="M60.5014 2.02235C60.503 2.22157 60.4631 2.4189 60.3848 2.60201C60.3061 2.78513 60.1906 2.95 60.0455 3.0863C59.909 3.23161 59.7441 3.34709 59.561 3.42559C59.3782 3.50406 59.1806 3.5438 58.9815 3.54228C58.7759 3.54916 58.5711 3.512 58.3811 3.43338C58.1911 3.35472 58.0201 3.2364 57.8795 3.0863C57.7302 2.95308 57.6124 2.78878 57.5334 2.60494C57.4547 2.4211 57.4171 2.22226 57.4236 2.02235C57.4213 1.81742 57.4604 1.61417 57.5391 1.42478C57.6174 1.2354 57.7332 1.06384 57.8795 0.920394C58.0236 0.777152 58.1961 0.665884 58.3861 0.593858C58.5757 0.521836 58.7786 0.490674 58.9815 0.502415C59.1783 0.493691 59.3744 0.526389 59.5579 0.598392C59.7411 0.670399 59.9071 0.7801 60.0455 0.920394C60.1917 1.06384 60.3076 1.2354 60.3859 1.42478C60.4642 1.61417 60.5037 1.81742 60.5014 2.02235ZM58.9815 0.692407C58.8056 0.687144 58.63 0.71795 58.4662 0.782923C58.3025 0.847901 58.1539 0.945663 58.0293 1.07022C57.9046 1.19478 57.807 1.34351 57.742 1.50724C57.677 1.67098 57.6462 1.84626 57.6516 2.02235C57.6489 2.19794 57.6812 2.37228 57.7466 2.53533C57.8119 2.69838 57.9084 2.84691 58.0315 2.97231C58.2892 3.21379 58.6285 3.34944 58.9815 3.35229C59.3216 3.34013 59.6453 3.20512 59.8935 2.97231C60.0162 2.84691 60.1131 2.69838 60.1784 2.53533C60.2438 2.37228 60.2761 2.19794 60.2734 2.02235C60.2803 1.84619 60.2503 1.67052 60.1849 1.50686C60.1192 1.34316 60.02 1.19512 59.8935 1.07239C59.7749 0.950603 59.6332 0.854117 59.4766 0.788798C59.3197 0.723483 59.1514 0.690686 58.9815 0.692407ZM58.9435 1.14838L59.3995 1.22438C59.4793 1.26101 59.5469 1.31995 59.594 1.39408C59.6415 1.46825 59.6662 1.55447 59.6655 1.64236C59.6617 1.7719 59.607 1.89471 59.5135 1.98435L59.2475 2.06035L59.5515 2.21234C59.5895 2.29681 59.6153 2.38645 59.6275 2.47833V2.74432C59.6275 2.78232 59.6275 2.82031 59.6655 2.82031H59.3615V2.63032C59.3615 2.44033 59.3235 2.28834 59.2095 2.25034L58.8675 2.17434H58.6395V2.85831H58.3355V1.14838H58.9435ZM59.3615 1.68036C59.363 1.63039 59.3535 1.58069 59.3341 1.53471C59.3144 1.48877 59.2847 1.4477 59.2475 1.41437H58.6395V2.02235H59.2095C59.2593 1.99909 59.3003 1.96106 59.3277 1.91344C59.3546 1.86583 59.3668 1.81096 59.3615 1.75636V1.68036Z" fill="black"/>
<path d="M4.91016 13.4237V3.84808H7.98803C8.76392 3.81015 9.54163 3.86115 10.3059 4.00007C10.8446 4.15662 11.3222 4.47498 11.6739 4.91203C12.0764 5.46107 12.2777 6.13197 12.2438 6.81195C12.2573 7.32695 12.1396 7.83688 11.9019 8.29389C11.7096 8.65522 11.4365 8.9673 11.1039 9.20585C10.7932 9.42024 10.4453 9.57485 10.0779 9.66183C9.4271 9.78662 8.7643 9.83758 8.10202 9.81383H6.81008V13.4237H4.91016ZM6.81008 5.48201V8.1799H7.87403C8.39814 8.21436 8.92438 8.16302 9.43197 8.0279C9.6668 7.94248 9.86705 7.78228 10.0019 7.57192C10.1558 7.34879 10.2355 7.08292 10.2299 6.81195C10.2418 6.50428 10.1326 6.20421 9.92595 5.97599C9.72839 5.74602 9.46183 5.58609 9.16598 5.52001H6.81008V5.48201Z" fill="#FEFEFE"/>
</svg>
