<svg width="32" height="32" viewBox="0 0 32 32" fill="none" xmlns="http://www.w3.org/2000/svg">
<path d="M16 0C7.17785 0 0 7.17723 0 16C0 24.8228 7.17785 32 16 32C24.8222 32 32 24.8228 32 16C32 7.17723 24.8222 0 16 0ZM17.2308 25.2308C17.2308 25.9102 16.6794 26.4615 16 26.4615C15.3206 26.4615 14.7692 25.9102 14.7692 25.2308V24C14.7692 23.3206 15.3206 22.7692 16 22.7692C16.6794 22.7692 17.2308 23.3206 17.2308 24V25.2308ZM17.2308 20.3077C17.2308 20.9871 16.6794 21.5385 16 21.5385C15.3206 21.5385 14.7692 20.9871 14.7692 20.3077V6.76923C14.7692 6.08985 15.3206 5.53846 16 5.53846C16.6794 5.53846 17.2308 6.08985 17.2308 6.76923V20.3077Z" fill="#F05D5D"/>
</svg>
