<svg width="69" height="17" viewBox="0 0 69 17" fill="none" xmlns="http://www.w3.org/2000/svg">
<path d="M6.80469 9.39062V12.9461L10.7553 16.5015V12.9461L6.80469 9.39062Z" fill="#0C002D"/>
<path d="M4.8295 7.60938L0.878906 11.1649V14.7204L6.80459 9.38713L4.8295 7.60938Z" fill="url(#paint0_radial_156_1861)"/>
<path d="M0.878906 0.5L6.80459 5.83309V9.38863L0.878906 4.05552V0.5Z" fill="#0C002D"/>
<path d="M25.3303 6.22103V10.7729H24.4502V9.98998C24.2453 10.2761 23.9615 10.5096 23.6264 10.6675C23.2913 10.8255 22.9165 10.9026 22.5384 10.8912C22.1952 10.8867 21.8565 10.8209 21.5416 10.6979C21.2269 10.5748 20.9423 10.3968 20.7043 10.1742C20.4663 9.95158 20.2798 9.68872 20.1553 9.40082C20.0309 9.11296 19.971 8.80573 19.9793 8.49691C19.9711 8.18812 20.0309 7.88089 20.1553 7.59303C20.2798 7.30513 20.4664 7.04231 20.7043 6.81971C20.9423 6.59707 21.2269 6.41911 21.5416 6.29603C21.8565 6.17295 22.1952 6.10725 22.5384 6.10265C22.9165 6.09132 23.2913 6.1684 23.6264 6.32636C23.9615 6.48433 24.2453 6.71778 24.4502 7.00394V6.22103H25.3303ZM24.4502 8.49691C24.4473 8.17808 24.3396 7.86718 24.1407 7.60332C23.9418 7.33947 23.6606 7.13446 23.3325 7.01412C23.0045 6.89375 22.6442 6.86342 22.297 6.92694C21.9499 6.99049 21.6313 7.14502 21.3815 7.3711C21.1317 7.59718 20.9618 7.88474 20.8932 8.19753C20.8246 8.51035 20.8603 8.83443 20.9959 9.129C21.1315 9.42356 21.3609 9.67546 21.6552 9.85294C21.9495 10.0305 22.2955 10.1257 22.6498 10.1265C22.8883 10.1304 23.1252 10.0908 23.3462 10.0102C23.5673 9.92954 23.7679 9.8095 23.9361 9.65727C24.1043 9.50504 24.2365 9.32378 24.3249 9.12437C24.4132 8.92495 24.4559 8.71154 24.4502 8.49691Z" fill="#0C002D"/>
<path d="M30.9297 6.21875L28.8662 11.0528C28.4414 12.0725 27.6523 12.6551 26.6206 12.5914V11.8539C27.2983 11.8995 27.7232 11.5262 27.9862 10.9254L28.0771 10.7524L25.8721 6.21875H26.8128L28.5324 9.7874L29.989 6.21875H30.9297Z" fill="#0C002D"/>
<path d="M39.7631 10.1448C40.049 10.1572 40.3339 10.1025 40.589 9.98598C40.8446 9.86946 41.0617 9.6952 41.2198 9.48027L41.9683 9.86261C41.7265 10.1915 41.395 10.459 41.0054 10.6392C40.6153 10.8193 40.1809 10.9062 39.7431 10.8913C38.1145 10.8913 37.0319 9.86261 37.0319 8.49702C37.0193 8.1803 37.0793 7.86463 37.2078 7.56958C37.3364 7.27454 37.5308 7.00646 37.7793 6.78193C38.0279 6.55741 38.3249 6.38125 38.6523 6.2644C38.9797 6.14758 39.3301 6.09254 39.6824 6.10277C41.2098 6.10277 42.2009 7.23165 42.2009 8.50613C42.2009 8.62502 42.1909 8.74373 42.1706 8.86121H37.9323C38.1042 9.68057 38.8223 10.1448 39.7631 10.1448ZM37.9323 8.1693H41.3109C41.2765 7.80422 41.0891 7.46458 40.7865 7.21943C40.4842 6.97423 40.089 6.8419 39.6824 6.84927C39.2594 6.83012 38.8442 6.95549 38.5194 7.20028C38.1949 7.4451 37.9853 7.79122 37.9323 8.1693Z" fill="#0C002D"/>
<path d="M48.1046 4.40234V10.775H47.2245V9.99209C47.0197 10.2782 46.7356 10.5117 46.4008 10.6696C46.0656 10.8276 45.6908 10.9047 45.3126 10.8933C44.9697 10.8888 44.6308 10.823 44.3159 10.7C44.0011 10.5769 43.7167 10.3989 43.4785 10.1763C43.2407 9.95368 43.054 9.69082 42.9296 9.40293C42.8051 9.11507 42.7455 8.80784 42.7537 8.49901C42.7455 8.19023 42.8051 7.883 42.9296 7.59514C43.054 7.30724 43.2407 7.04442 43.4785 6.82178C43.7167 6.59918 44.0011 6.42121 44.3159 6.29814C44.6308 6.17506 44.9697 6.10932 45.3126 6.10476C45.6908 6.09343 46.0656 6.1705 46.4008 6.32847C46.7356 6.48644 47.0197 6.71989 47.2245 7.00601V4.40234H48.1046ZM47.2245 8.49905C47.2216 8.18019 47.1138 7.86929 46.9149 7.60543C46.716 7.34157 46.4349 7.13657 46.1067 7.01623C45.7789 6.89586 45.4186 6.86552 45.0715 6.92904C44.7241 6.9926 44.4056 7.14712 44.1559 7.3732C43.9059 7.59932 43.7363 7.88685 43.6674 8.19963C43.5989 8.51246 43.6348 8.83654 43.7704 9.1311C43.9059 9.42567 44.1352 9.67756 44.4296 9.85505C44.7237 10.0326 45.07 10.1278 45.4241 10.1287C45.6626 10.1325 45.8997 10.0929 46.1204 10.0123C46.3415 9.93165 46.5423 9.81161 46.7104 9.65938C46.8786 9.50715 47.0108 9.32589 47.0993 9.12647C47.1875 8.92706 47.2301 8.71365 47.2245 8.49901V8.49905Z" fill="#0C002D"/>
<path d="M51.7192 10.1448C52.0052 10.1572 52.2896 10.1025 52.5452 9.98598C52.8004 9.8695 53.0178 9.6952 53.1756 9.48027L53.9241 9.86261C53.6826 10.1916 53.3508 10.459 52.9611 10.6392C52.5715 10.8193 52.1367 10.9062 51.6989 10.8913C50.0703 10.8913 48.9881 9.86261 48.9881 8.49705C48.9751 8.1803 49.0351 7.86463 49.1636 7.56958C49.2921 7.2745 49.4866 7.00642 49.7351 6.78186C49.984 6.55733 50.2811 6.38122 50.6085 6.26436C50.9355 6.14754 51.2863 6.09254 51.6381 6.10277C53.1656 6.10277 54.1567 7.23165 54.1567 8.50613C54.1567 8.62502 54.1467 8.74373 54.1263 8.86121H49.8881C50.0599 9.68057 50.7785 10.1448 51.7192 10.1448ZM49.8881 8.1693H53.2667C53.2323 7.80426 53.0448 7.46462 52.7426 7.21943C52.44 6.97423 52.0452 6.8419 51.6381 6.84927C51.2152 6.83012 50.8 6.95549 50.4755 7.20031C50.1511 7.4451 49.9411 7.79122 49.8881 8.1693Z" fill="#0C002D"/>
<path d="M57.4408 10.1448C57.7268 10.1572 58.0116 10.1025 58.2668 9.98598C58.5224 9.8695 58.7394 9.6952 58.8976 9.48027L59.6461 9.86261C59.4042 10.1916 59.0727 10.459 58.6827 10.6392C58.2931 10.8193 57.8583 10.9062 57.4205 10.8913C55.7919 10.8913 54.7097 9.86261 54.7097 8.49705C54.6971 8.1803 54.7567 7.86463 54.8852 7.56958C55.0141 7.2745 55.2086 7.00642 55.4571 6.78186C55.7056 6.55733 56.0027 6.38122 56.3301 6.26436C56.6575 6.14754 57.0079 6.09254 57.3601 6.10277C58.8872 6.10277 59.8787 7.23165 59.8787 8.50613C59.8787 8.62502 59.8683 8.74373 59.8483 8.86121H55.6101C55.7819 9.68057 56.5001 10.1448 57.4408 10.1448ZM55.6101 8.1693H58.9883C58.9542 7.80426 58.7668 7.46462 58.4642 7.21943C58.162 6.97423 57.7672 6.8419 57.3601 6.84927C56.9371 6.83012 56.5216 6.95553 56.1971 7.20031C55.8727 7.4451 55.663 7.79122 55.6101 8.1693Z" fill="#0C002D"/>
<path d="M68.083 7.94203V10.7733H67.203V7.96933C67.203 7.25012 66.7578 6.85866 66.09 6.85866C65.3822 6.85866 64.8459 7.25923 64.8459 8.24244V10.7733H63.9659V7.96933C63.9659 7.25012 63.5514 6.85866 62.8936 6.85866C62.2158 6.85866 61.5991 7.25923 61.5991 8.24244V10.7733H60.7188V6.22143H61.5991V6.83137C61.7558 6.6004 61.978 6.41117 62.2429 6.28317C62.5077 6.15513 62.8058 6.09298 63.1062 6.10305C63.4103 6.09057 63.7122 6.15679 63.9755 6.29395C64.2392 6.4311 64.4533 6.6334 64.5929 6.87685C64.7578 6.63281 64.9918 6.43254 65.2707 6.29658C65.55 6.16061 65.8641 6.09383 66.1811 6.10305C67.3041 6.10305 68.083 6.80407 68.083 7.94203Z" fill="#0C002D"/>
<path d="M35.0696 8.22605C35.5592 8.07279 35.9718 7.768 36.2348 7.36614C36.4974 6.96428 36.5929 6.49148 36.5041 6.0321C36.4155 5.57268 36.1481 5.15663 35.7503 4.85814C35.3522 4.55962 34.8492 4.39813 34.3313 4.40243H31.499V10.7751H32.4397V5.19449H34.3313C34.6714 5.20767 34.9929 5.3386 35.2285 5.55998C35.464 5.78132 35.5955 6.07599 35.5955 6.38252C35.5955 6.68905 35.464 6.98372 35.2285 7.20506C34.9929 7.42644 34.6714 7.55737 34.3313 7.57055H33.0063V8.33528H34.1087L35.6966 10.7751H36.7389L35.0696 8.22605Z" fill="#0C002D"/>
<path d="M17.3985 4.40295H14.8291V10.7756H15.7699V5.19497H17.3985C17.5808 5.19223 17.7617 5.22316 17.9302 5.28579C18.0987 5.34842 18.2512 5.44146 18.3782 5.5592C18.5052 5.67691 18.604 5.8168 18.6687 5.97022C18.7332 6.12366 18.7622 6.28737 18.7538 6.45127C18.7614 6.61501 18.7318 6.77839 18.6669 6.93146C18.602 7.08458 18.5031 7.22414 18.3763 7.3417C18.2495 7.45929 18.0973 7.55237 17.9292 7.61526C17.7611 7.67819 17.5805 7.7096 17.3985 7.70763H16.3365V8.49962H17.3985C17.6996 8.50551 17.999 8.45666 18.2786 8.35591C18.5583 8.25517 18.8125 8.10465 19.0259 7.91338C19.2394 7.72212 19.4077 7.49404 19.5209 7.24277C19.6341 6.99154 19.6897 6.72235 19.6845 6.45127C19.6906 6.18 19.6355 5.91047 19.5227 5.65887C19.4098 5.40727 19.2415 5.1789 19.0278 4.98745C18.8142 4.79604 18.5597 4.64555 18.2796 4.5451C17.9996 4.44462 17.6998 4.39628 17.3985 4.40295Z" fill="#0C002D"/>
<defs>
<radialGradient id="paint0_radial_156_1861" cx="0" cy="0" r="1" gradientUnits="userSpaceOnUse" gradientTransform="translate(0.864828 14.8507) scale(14.1217 12.7096)">
<stop stop-color="#EC38BC"/>
<stop offset="0.5" stop-color="#7303C0"/>
<stop offset="1" stop-color="#0C002D"/>
</radialGradient>
</defs>
</svg>
