<svg width="48" height="16" viewBox="0 0 48 16" fill="none" xmlns="http://www.w3.org/2000/svg">
<path d="M20.1268 5.16034H19.1812C19.1182 5.16034 19.0709 5.20834 19.0709 5.27234V9.09634C18.803 9.46434 18.2908 9.82434 17.7077 9.82434C17.0379 9.82434 16.6203 9.54434 16.6203 8.67234V5.26434C16.6203 5.20034 16.573 5.15234 16.51 5.15234H15.5644C15.5014 5.15234 15.4541 5.20034 15.4541 5.26434V9.12034C15.4541 10.2563 16.0293 10.8963 17.1798 10.8963C18.0229 10.8963 18.6848 10.4563 19.063 10.0163V10.6483C19.063 10.7123 19.1103 10.7603 19.1812 10.7683H20.1268C20.1898 10.7683 20.2371 10.7203 20.2371 10.6563V5.27234C20.2371 5.20834 20.1898 5.16034 20.1268 5.16034Z" fill="#49CC68"/>
<path d="M30.9772 5.00762C30.1341 5.00762 29.4485 5.46363 29.0939 5.90363V3.12762C29.0939 3.06362 29.0467 3.01562 28.9836 3.01562H28.038C27.975 3.01562 27.9277 3.06362 27.9277 3.12762V10.6476C27.9277 10.7116 27.975 10.7596 28.038 10.7596H28.9836C29.0467 10.7596 29.0939 10.7116 29.0939 10.6476V6.83963C29.3618 6.46363 29.8661 6.09562 30.465 6.09562C31.119 6.09562 31.5366 6.35163 31.5366 7.23163V10.6476C31.5366 10.7116 31.5839 10.7596 31.647 10.7596L32.5925 10.7516C32.6556 10.7516 32.7028 10.7036 32.7028 10.6396V6.78363C32.7028 5.63163 32.1276 5.00762 30.9772 5.00762Z" fill="#49CC68"/>
<path d="M11.0657 3.904V3.896C10.3407 1.56 8.29203 0 5.94387 0C3.58784 0 1.53124 1.576 0.814182 3.912C0.33352 5.376 0.498994 7.352 1.27121 9.184C2.31921 11.688 4.2261 13.424 5.91235 13.424C5.92023 13.424 5.92811 13.424 5.93599 13.424C5.94387 13.424 5.95175 13.424 5.95963 13.424C7.64589 13.424 9.55278 11.688 10.6008 9.184C11.3651 7.352 11.5385 5.384 11.0578 3.912C11.0578 3.904 11.0578 3.904 11.0657 3.904ZM5.93599 0.888C6.91308 0.888 7.82712 1.208 8.58357 1.776C7.73257 1.736 6.80276 2.12 5.93599 2.888C5.06922 2.128 4.13942 1.744 3.28841 1.776C4.03698 1.208 4.95891 0.888 5.93599 0.888ZM3.26477 10.888C2.79199 10.32 2.36648 9.616 2.03554 8.824C1.35 7.184 1.18453 5.448 1.60215 4.184C1.82279 3.52 2.19313 3.04 2.67379 2.808C3.42237 2.448 4.39157 2.704 5.3135 3.488C4.72252 4.16 4.21034 4.992 3.82423 5.912C3.08354 7.672 2.91806 9.488 3.26477 10.888ZM6.62941 12.384C6.41666 12.488 6.18026 12.544 5.93599 12.544C5.69172 12.544 5.45533 12.488 5.24258 12.384C3.80059 11.688 3.50904 8.888 4.60432 6.28C4.95103 5.448 5.40805 4.712 5.93599 4.104C6.46393 4.704 6.92096 5.448 7.26766 6.28C8.36294 8.888 8.07139 11.68 6.62941 12.384ZM9.82857 8.824C9.49762 9.608 9.07212 10.312 8.59933 10.896C8.93816 9.496 8.77269 7.68 8.03987 5.92C7.65377 5 7.14159 4.176 6.55061 3.496C7.48042 2.712 8.44962 2.448 9.19031 2.816C9.67097 3.048 10.0413 3.52 10.262 4.192C10.6717 5.456 10.5141 7.184 9.82857 8.824Z" fill="#49CC68"/>
<path d="M24.5002 5.01562C23.7989 5.01562 23.1843 5.35962 22.7824 5.91962V5.26363C22.7824 5.19963 22.7351 5.15163 22.6721 5.15163H21.7265C21.6635 5.15163 21.6162 5.19963 21.6162 5.26363V12.7836C21.6162 12.8476 21.6635 12.8956 21.7265 12.8956H22.6721C22.7351 12.8956 22.7824 12.8476 22.7824 12.7836V9.98362C23.2237 10.5756 23.8225 10.8956 24.5002 10.9036C25.887 10.9036 26.872 9.79962 26.872 7.95163C26.872 6.10363 25.887 5.01562 24.5002 5.01562ZM24.1535 9.82363C23.6098 9.82363 23.0346 9.47162 22.7824 9.05562V6.83962C23.0503 6.42362 23.6098 6.09562 24.1535 6.09562C25.0675 6.09562 25.6664 6.85563 25.6664 7.95163C25.6664 9.03963 25.0675 9.82363 24.1535 9.82363Z" fill="#49CC68"/>
<path d="M47.706 3.01562H46.7604C46.6974 3.01562 46.6501 3.06362 46.6501 3.12762V5.92762C46.2246 5.31962 45.61 5.00762 44.9323 5.00762C43.5534 5.00762 42.5605 6.13563 42.5605 7.94362C42.5605 9.80762 43.5692 10.8956 44.9323 10.8956C45.6336 10.8956 46.2404 10.5516 46.6501 9.99162V10.6476C46.6501 10.7116 46.7053 10.7596 46.7604 10.7596H47.706C47.769 10.7596 47.8163 10.7116 47.8163 10.6476V3.12762C47.8163 3.06362 47.769 3.01562 47.706 3.01562ZM46.6501 9.06363C46.398 9.47963 45.8227 9.81562 45.279 9.81562C44.3492 9.81562 43.7661 9.03963 43.7661 7.94362C43.7661 6.86363 44.3492 6.08762 45.279 6.08762C45.8227 6.08762 46.398 6.42362 46.6501 6.83962V9.06363Z" fill="#49CC68"/>
<path d="M41.3869 3.01562H40.4414C40.3783 3.01562 40.3311 3.06362 40.3311 3.12762V10.6476C40.3311 10.7116 40.3862 10.7596 40.4414 10.7596H41.3869C41.45 10.7596 41.4973 10.7116 41.4973 10.6476V3.12762C41.4973 3.06362 41.45 3.01562 41.3869 3.01562Z" fill="#49CC68"/>
<path d="M7.3542 14.72C6.88142 14.864 6.42439 14.936 5.97525 14.936H5.91221C5.46307 14.936 4.99816 14.856 4.52538 14.712C4.25747 14.632 3.9738 14.792 3.89501 15.072C3.81621 15.36 3.96592 15.656 4.23383 15.736C4.79329 15.912 5.36063 16 5.91221 16H5.97525C6.52683 16 7.08629 15.912 7.64575 15.736C7.91366 15.656 8.06337 15.36 7.98457 15.08C7.90578 14.8 7.62211 14.64 7.3542 14.72Z" fill="#49CC68"/>
<path d="M36.5087 5.01562C34.8067 5.01562 33.7666 6.33562 33.7666 7.95163C33.7666 9.55162 34.8146 10.8956 36.5087 10.9036C38.2108 10.9036 39.2509 9.55162 39.2509 7.95163C39.2509 6.33562 38.2108 5.01562 36.5087 5.01562ZM36.5166 9.82363C35.5317 9.82363 34.9801 8.95162 34.9801 7.95163C34.9801 6.96763 35.5317 6.09562 36.5166 6.09562C37.5095 6.09562 38.0532 6.95963 38.0532 7.95163C38.0532 8.95162 37.5095 9.82363 36.5166 9.82363Z" fill="#49CC68"/>
</svg>
