<svg width="44" height="16" viewBox="0 0 44 16" fill="none" xmlns="http://www.w3.org/2000/svg">
<path fill-rule="evenodd" clip-rule="evenodd" d="M10.8299 13.907C12.1844 13.907 13.6539 14.3705 15.2809 15.809C15.4439 15.953 15.6609 15.774 15.5184 15.595C13.9199 13.5805 12.4414 13.197 10.9669 12.873C9.16291 12.476 8.23541 11.463 7.58891 10.351C7.46041 10.13 7.40241 10.169 7.39091 10.4535C7.37641 10.801 7.40091 11.2615 7.47891 11.7145C7.40591 11.7175 7.33291 11.717 7.25891 11.717C4.67891 11.717 2.58691 9.629 2.58691 7.0535C2.58691 4.4785 4.67891 2.391 7.25941 2.391C9.83941 2.391 11.9314 4.4785 11.9314 7.0535C11.9314 7.237 11.9224 7.4185 11.9014 7.596C11.5604 7.5345 10.8889 7.5275 10.4179 7.568C10.2409 7.5835 10.2659 7.666 10.3999 7.69C11.9444 7.9685 13.0049 8.924 13.2479 10.6575C13.2529 10.6975 13.3059 10.709 13.3264 10.6745C13.9831 9.58101 14.3291 8.32905 14.3269 7.0535C14.3269 3.1585 11.1624 0 7.25941 0C3.35591 0 0.191406 3.158 0.191406 7.0535C0.191406 10.9495 3.35591 14.108 7.25941 14.108C8.29441 14.108 9.32241 13.907 10.8299 13.907ZM11.3559 11.346C11.6704 11.611 11.7659 11.9265 11.5999 12.149C11.5074 12.271 11.3574 12.3385 11.1774 12.3385C11.0018 12.3385 10.8318 12.277 10.6969 12.1645C10.4109 11.915 10.3269 11.511 10.5134 11.2815C10.5864 11.1915 10.7049 11.142 10.8469 11.142C11.0194 11.142 11.2004 11.2145 11.3559 11.346ZM12.8069 10.672C12.8529 10.981 12.7554 11.109 12.6569 11.109C12.5494 11.109 12.4149 10.984 12.2564 10.7365C12.0994 10.4925 12.0419 10.2125 12.1199 10.071C12.1709 9.9775 12.2784 9.9365 12.4139 9.988C12.6764 10.0865 12.7789 10.4875 12.8069 10.672ZM22.6039 9.057L21.7889 8.0785C21.7698 8.05543 21.7576 8.02739 21.7539 7.99766C21.7502 7.96793 21.755 7.93776 21.7678 7.91067C21.7806 7.88358 21.8009 7.86071 21.8262 7.84474C21.8516 7.82877 21.8809 7.82036 21.9109 7.8205H23.6154C23.6964 7.5795 23.7424 7.322 23.7424 7.054C23.7424 5.829 22.8284 4.7725 21.5744 4.7725C20.3204 4.7725 19.4064 5.829 19.4064 7.054C19.4064 8.279 20.3204 9.321 21.5744 9.321C21.9544 9.321 22.3024 9.224 22.6044 9.0565L22.6039 9.057ZM26.2909 10.7095C26.3794 10.8075 26.3069 10.9645 26.1734 10.9645H24.3134C24.276 10.9645 24.2391 10.9564 24.2052 10.9406C24.1714 10.9248 24.1414 10.9017 24.1174 10.873L23.8024 10.4945C23.139 10.9247 22.3651 11.1533 21.5744 11.1525C19.3099 11.1525 17.4679 9.314 17.4679 7.054C17.4679 4.794 19.3099 2.9555 21.5744 2.9555C23.8389 2.9555 25.6809 4.794 25.6809 7.054C25.6809 7.869 25.4409 8.628 25.0284 9.267L26.2909 10.7095ZM43.4754 3.145H41.9569C41.9035 3.14513 41.8523 3.1664 41.8146 3.20416C41.7768 3.24192 41.7555 3.2931 41.7554 3.3465V10.763C41.7554 10.8745 41.8454 10.9645 41.9569 10.9645H43.4754C43.5869 10.9645 43.6774 10.8745 43.6774 10.763V3.346C43.6774 3.29243 43.6561 3.24105 43.6182 3.20316C43.5804 3.16528 43.529 3.144 43.4754 3.144V3.145ZM40.9204 3.145H39.2224C39.1793 3.14483 39.1372 3.15848 39.1024 3.18394C39.0676 3.20941 39.0418 3.24534 39.0289 3.2865L37.6849 7.6695L36.2074 3.2815C36.1939 3.24147 36.1681 3.2067 36.1338 3.18212C36.0994 3.15753 36.0582 3.14437 36.0159 3.1445H34.8309C34.7886 3.14434 34.7473 3.15749 34.7128 3.18207C34.6784 3.20665 34.6525 3.24143 34.6389 3.2815L33.1619 7.6695L31.8179 3.2865C31.8051 3.24525 31.7794 3.2092 31.7445 3.18365C31.7097 3.15809 31.6676 3.14437 31.6244 3.1445H29.9259C29.894 3.14455 29.8626 3.15215 29.8342 3.16666C29.8057 3.18117 29.7812 3.20219 29.7624 3.228C29.7437 3.25357 29.7313 3.28327 29.7265 3.31459C29.7216 3.34591 29.7243 3.37795 29.7344 3.408L32.2294 10.8285C32.2569 10.9105 32.3344 10.9655 32.4209 10.9655H33.7689C33.8559 10.9655 33.9329 10.9105 33.9604 10.829L35.4234 6.4935L36.8859 10.8285C36.9134 10.9105 36.9909 10.9655 37.0774 10.9655H38.4259C38.5129 10.9655 38.5899 10.9105 38.6174 10.8285L41.1124 3.408C41.1225 3.37797 41.1252 3.34598 41.1205 3.31467C41.1157 3.28336 41.1035 3.25365 41.0849 3.228C41.0661 3.20215 41.0414 3.18111 41.0129 3.1666C40.9844 3.15209 40.9529 3.14452 40.9209 3.1445L40.9204 3.145ZM29.0914 3.3465V10.763C29.0914 10.8745 29.0014 10.9645 28.8894 10.9645H27.3714C27.3179 10.9645 27.2666 10.9433 27.2287 10.9055C27.1909 10.8677 27.1695 10.8165 27.1694 10.763V3.346C27.1694 3.2345 27.2594 3.144 27.3714 3.144H28.8894C29.0009 3.144 29.0914 3.234 29.0914 3.346V3.3465Z" fill="#FF8C00"/>
</svg>
