<svg width="31" height="26" viewBox="0 0 31 26" fill="none" xmlns="http://www.w3.org/2000/svg">
<path fill-rule="evenodd" clip-rule="evenodd" d="M6.4334 18.6176L15.8592 22.5788C16.1331 22.6636 16.4285 22.6455 16.69 22.5279L18.5776 21.5269C19.1115 20.8084 19.1939 20.4532 19.001 19.7029L17.7472 17.9728C17.5642 17.7521 17.307 17.6057 17.0237 17.5612L6.82766 16.9772C5.38559 16.7505 5.03885 18.1859 6.4334 18.6176ZM16.6926 19.0029L10.2344 18.6331L16.1967 21.1388L17.5814 20.4045C17.6126 20.354 17.6287 20.3227 17.6365 20.3059C17.6365 20.3057 17.6365 20.3054 17.6364 20.3052L16.6926 19.0029ZM17.6373 20.3277C17.6373 20.3275 17.6372 20.3251 17.6375 20.3209C17.6376 20.3257 17.6375 20.3278 17.6373 20.3277ZM6.79543 17.1976C6.79419 17.1967 6.79339 17.1964 6.79325 17.1963C6.79325 17.1962 6.79325 17.1962 6.79325 17.1962V17.1963C6.79339 17.1964 6.79412 17.1969 6.79543 17.1976ZM6.5244 18.4115C6.5228 18.4117 6.52199 18.4118 6.52199 18.4117C6.52199 18.4117 6.5228 18.4117 6.5244 18.4115Z" fill="#0047FF"/>
<path fill-rule="evenodd" clip-rule="evenodd" d="M15.5003 1.7474C8.25117 1.7474 2.37533 7.62054 2.37533 14.8645C2.37533 18.464 3.82501 21.7236 6.1745 24.0945L5.13864 25.1211C2.52962 22.4883 0.916992 18.8639 0.916992 14.8645C0.916992 6.81438 7.44653 0.289062 15.5003 0.289062C23.5541 0.289062 30.0837 6.81438 30.0837 14.8645C30.0837 18.9729 28.382 22.6853 25.6468 25.3338L24.6323 24.2862C27.0957 21.9008 28.6253 18.5618 28.6253 14.8645C28.6253 7.62054 22.7495 1.7474 15.5003 1.7474Z" fill="#0047FF"/>
<path fill-rule="evenodd" clip-rule="evenodd" d="M14.7705 5.39193V1.7461L16.2288 1.74609V5.39193H14.7705Z" fill="#0047FF"/>
<path fill-rule="evenodd" clip-rule="evenodd" d="M24.765 24.4015L22.1055 21.7421L23.1367 20.7109L25.7961 23.3703L24.765 24.4015Z" fill="#0047FF"/>
<path fill-rule="evenodd" clip-rule="evenodd" d="M8.29686 7.9685L5.71875 5.39061L6.74994 4.35938L9.32805 6.93731L8.29686 7.9685Z" fill="#0047FF"/>
<path fill-rule="evenodd" clip-rule="evenodd" d="M25.4785 13.4141H29.1243V14.8724H25.4785V13.4141Z" fill="#0047FF"/>
<path fill-rule="evenodd" clip-rule="evenodd" d="M1.68457 13.4141H5.33043V14.8724H1.68457V13.4141Z" fill="#0047FF"/>
<path fill-rule="evenodd" clip-rule="evenodd" d="M21.7607 6.85062L24.4203 4.19141L25.4515 5.22268L22.7919 7.88188L21.7607 6.85062Z" fill="#0047FF"/>
<path fill-rule="evenodd" clip-rule="evenodd" d="M8.35174 21.8867L5.69233 24.5461L4.66113 23.515L7.32048 20.8555L8.35174 21.8867Z" fill="#0047FF"/>
</svg>
