<svg width="36" height="36" viewBox="0 0 36 36" fill="none" xmlns="http://www.w3.org/2000/svg">
<path d="M11.2221 24.9539C11.2221 23.0484 9.85098 21.4523 8.04394 21.1078V1.50469C8.04394 1.09687 7.71348 0.773438 7.31269 0.773438C6.90488 0.773438 6.58144 1.10391 6.58144 1.50469V21.1078C4.77441 21.4523 3.40332 23.0414 3.40332 24.9539C3.40332 26.8594 4.77441 28.4555 6.58144 28.8V34.4953C6.58144 34.9031 6.91191 35.2266 7.31269 35.2266C7.72051 35.2266 8.04394 34.8961 8.04394 34.4953V28.8C9.85098 28.4555 11.2221 26.8594 11.2221 24.9539ZM7.30566 27.4008C5.95566 27.4008 4.85879 26.3039 4.85879 24.9539C4.85879 23.6039 5.95566 22.507 7.30566 22.507C8.65566 22.507 9.75254 23.6039 9.75254 24.9539C9.75254 26.3039 8.65566 27.4008 7.30566 27.4008Z" fill="#0047FF"/>
<path d="M21.9164 11.6367C21.9164 9.73125 20.5453 8.13516 18.7383 7.79063V1.50469C18.7383 1.09687 18.4078 0.773438 18.007 0.773438C17.5992 0.773438 17.2758 1.10391 17.2758 1.50469V7.79063C15.4687 8.13516 14.0977 9.72422 14.0977 11.6367C14.0977 13.5422 15.4687 15.1383 17.2758 15.4828V34.4953C17.2758 34.9031 17.6063 35.2266 18.007 35.2266C18.4148 35.2266 18.7383 34.8961 18.7383 34.4953V15.4828C20.5383 15.1383 21.9164 13.5492 21.9164 11.6367ZM18 14.0906C16.65 14.0906 15.5531 12.9938 15.5531 11.6438C15.5531 10.2938 16.65 9.19688 18 9.19688C19.35 9.19688 20.4469 10.2938 20.4469 11.6438C20.4469 12.9867 19.35 14.0906 18 14.0906Z" fill="#0047FF"/>
<path d="M32.6107 20.4398C32.6107 18.5344 31.2396 16.9383 29.4326 16.5938V1.50469C29.4326 1.09687 29.1021 0.773438 28.7014 0.773438C28.2936 0.773438 27.9701 1.10391 27.9701 1.50469V16.5938C26.1631 16.9383 24.792 18.5273 24.792 20.4398C24.792 22.3523 26.1631 23.9414 27.9701 24.2859V34.4953C27.9701 34.9031 28.3006 35.2266 28.7014 35.2266C29.1092 35.2266 29.4326 34.8961 29.4326 34.4953V24.2859C31.2396 23.9414 32.6107 22.3453 32.6107 20.4398ZM28.6943 22.8867C27.3443 22.8867 26.2475 21.7898 26.2475 20.4398C26.2475 19.0898 27.3443 17.993 28.6943 17.993C30.0443 17.993 31.1412 19.0898 31.1412 20.4398C31.1412 21.7898 30.0443 22.8867 28.6943 22.8867Z" fill="#0047FF"/>
</svg>
