<svg width="48" height="16" viewBox="0 0 48 16" fill="none" xmlns="http://www.w3.org/2000/svg">
<path fill-rule="evenodd" clip-rule="evenodd" d="M33.9402 3.84404C35.0022 3.84404 35.8629 2.98368 35.8629 1.92274C35.8629 0.861186 35.0022 0 33.9402 0C32.8795 0 32.0191 0.861186 32.0191 1.92274C32.0191 2.98368 32.8795 3.84404 33.9402 3.84404ZM19.2145 4.88164C19.1278 5.09957 18.5033 6.86346 16.9931 8.69159V0.874819L12.9691 1.67011V15.8389H16.9931V11.4592C18.1585 13.2072 18.734 15.8389 18.734 15.8389H23.5539C23.0772 13.8568 20.9916 10.2022 20.9916 10.2022C22.8634 7.82917 23.6855 5.30056 23.8163 4.88164H19.2145ZM29.7933 4.73373C26.1891 4.84941 24.3595 6.46643 24.3595 9.68085V15.8389H28.2916V10.8172C28.2916 8.89238 28.5436 8.06734 30.8276 7.98864V4.79013C30.4432 4.70853 29.7933 4.73373 29.7933 4.73373ZM6.22052 6.44185C5.72765 6.40942 4.58656 6.33567 4.58656 5.30841C4.58656 4.06879 6.2294 4.06879 6.8456 4.06879C7.92905 4.06879 9.33227 4.38897 10.3343 4.6887C10.3343 4.6887 10.8933 4.88577 11.369 5.08758L11.4132 5.09957V1.70461L11.3525 1.68663C10.1699 1.27288 8.79478 0.874819 6.24531 0.874819C1.84952 0.874819 0.291992 3.43565 0.291992 5.62942C0.291992 6.89403 0.834029 9.87027 5.86832 10.2136C6.29509 10.2398 7.42771 10.3051 7.42771 11.3667C7.42771 12.2431 6.50042 12.76 4.94082 12.76C3.23167 12.76 1.57375 12.3241 0.566729 11.9108V15.4074C2.07427 15.8025 3.77371 16 5.76545 16C10.0635 16 11.9885 13.5772 11.9885 11.1758C11.9885 8.45301 9.83444 6.68395 6.22052 6.44185ZM31.991 15.8389H35.8912V4.89403H31.991V15.8389ZM43.2352 1.57261V15.8389H47.136V0.874819L43.2352 1.57261ZM37.5434 1.57261L41.4405 0.874819V15.8389H37.5434V1.57261Z" fill="url(#paint0_linear_156_1136)"/>
<defs>
<linearGradient id="paint0_linear_156_1136" x1="12.9605" y1="1.14113e-07" x2="16.4804" y2="19.7351" gradientUnits="userSpaceOnUse">
<stop stop-color="#6B195F"/>
<stop offset="1" stop-color="#4C255B"/>
</linearGradient>
</defs>
</svg>
