<svg width="31" height="34" viewBox="0 0 31 34" fill="none" xmlns="http://www.w3.org/2000/svg">
<path d="M1 27.3721V7C1 3.68629 3.68629 1 7 1H24C27.3137 1 30 3.68629 30 7V27.3721C30 30.6858 27.3137 33.3721 24 33.3721H7C3.68629 33.3721 1 30.6858 1 27.3721Z" stroke="#0047FF"/>
<path d="M10.4414 14.7765V14.168C10.4414 13.7307 10.5362 13.3328 10.7259 12.9746C10.9156 12.6163 11.187 12.3291 11.54 12.1131C11.893 11.8971 12.3119 11.7891 12.7966 11.7891C13.2919 11.7891 13.7134 11.8971 14.0611 12.1131C14.4142 12.3291 14.6855 12.6163 14.8752 12.9746C15.0649 13.3328 15.1597 13.7307 15.1597 14.168V14.7765C15.1597 15.2033 15.0649 15.5958 14.8752 15.9541C14.6908 16.3124 14.4221 16.5996 14.069 16.8156C13.7213 17.0316 13.3024 17.1396 12.8124 17.1396C12.3224 17.1396 11.8983 17.0316 11.54 16.8156C11.187 16.5996 10.9156 16.3124 10.7259 15.9541C10.5362 15.5958 10.4414 15.2033 10.4414 14.7765ZM11.54 14.168V14.7765C11.54 15.0189 11.5848 15.2481 11.6743 15.4641C11.7692 15.6801 11.9114 15.8566 12.1011 15.9936C12.2908 16.1254 12.5279 16.1912 12.8124 16.1912C13.0969 16.1912 13.3314 16.1254 13.5158 15.9936C13.7002 15.8566 13.8372 15.6801 13.9268 15.4641C14.0164 15.2481 14.0611 15.0189 14.0611 14.7765V14.168C14.0611 13.9203 14.0137 13.6885 13.9189 13.4725C13.8293 13.2512 13.6897 13.0747 13.5 12.943C13.3156 12.806 13.0811 12.7375 12.7966 12.7375C12.5174 12.7375 12.2829 12.806 12.0932 12.943C11.9088 13.0747 11.7692 13.2512 11.6743 13.4725C11.5848 13.6885 11.54 13.9203 11.54 14.168ZM16.0449 21.2573V20.6408C16.0449 20.2088 16.1397 19.8136 16.3294 19.4553C16.5191 19.097 16.7904 18.8099 17.1434 18.5938C17.4965 18.3778 17.9153 18.2698 18.4001 18.2698C18.8953 18.2698 19.3169 18.3778 19.6646 18.5938C20.0176 18.8099 20.289 19.097 20.4787 19.4553C20.6683 19.8136 20.7632 20.2088 20.7632 20.6408V21.2573C20.7632 21.6893 20.6683 22.0845 20.4787 22.4428C20.2942 22.8011 20.0255 23.0882 19.6725 23.3042C19.3248 23.5203 18.9059 23.6283 18.4159 23.6283C17.9259 23.6283 17.5044 23.5203 17.1513 23.3042C16.7983 23.0882 16.5243 22.8011 16.3294 22.4428C16.1397 22.0845 16.0449 21.6893 16.0449 21.2573ZM17.1434 20.6408V21.2573C17.1434 21.4996 17.1882 21.7315 17.2778 21.9528C17.3726 22.1688 17.5149 22.3453 17.7046 22.4823C17.8943 22.614 18.1314 22.6799 18.4159 22.6799C18.7004 22.6799 18.9349 22.614 19.1193 22.4823C19.309 22.3453 19.4486 22.1688 19.5382 21.9528C19.6277 21.7367 19.6725 21.5049 19.6725 21.2573V20.6408C19.6725 20.3932 19.6251 20.1613 19.5303 19.9453C19.4407 19.7293 19.3011 19.5554 19.1114 19.4237C18.927 19.2867 18.6899 19.2182 18.4001 19.2182C18.1208 19.2182 17.8864 19.2867 17.6967 19.4237C17.5123 19.5554 17.3726 19.7293 17.2778 19.9453C17.1882 20.1613 17.1434 20.3932 17.1434 20.6408ZM18.7636 13.591L13.1443 22.585L12.3224 22.0634L17.9417 13.0694L18.7636 13.591Z" fill="#0047FF"/>
</svg>
