<svg width="18" height="16" viewBox="0 0 18 16" fill="none" xmlns="http://www.w3.org/2000/svg">
<path d="M8.90133 0C10.1689 0 11.3749 0.290404 12.4571 0.809885C12.6268 0.886455 12.7976 0.978097 12.9668 1.06982L12.2247 1.72712L11.1123 0.58089L9.19547 2.26183L8.06669 1.05435L4.54191 4.1874L6.79859 6.64791L5.91761 7.41185L8.14405 9.87236L7.26299 10.636L10.4478 14.1358L12.3327 12.424L13.9722 14.2584C13.6472 14.503 13.2917 14.748 12.9057 14.9616C11.7306 15.6187 10.3699 16 8.91695 16C4.44883 16 0.816457 12.4094 0.816457 7.99313C0.800679 3.60674 4.43369 0 8.90133 0ZM7.41701 7.50374L9.34948 5.79201L11.0813 7.70226L9.14842 9.41382L7.41701 7.50374ZM8.79326 10.8048L10.71 9.07796L12.4571 10.9881L10.5245 12.6999L8.79326 10.8048ZM6.04195 4.24873L7.97386 2.537L9.70527 4.44725L7.77271 6.1589L6.04195 4.24873ZM9.58141 3.33149L11.0192 2.04784L12.3181 3.46916L10.8803 4.76798L9.58141 3.33149ZM12.1479 9.21522L13.5853 7.93149L14.8841 9.36765L13.4462 10.6522L12.1479 9.21522ZM13.4154 12.1039L14.8533 10.8199L16.1511 12.2412L14.7137 13.5398L13.4154 12.1039ZM14.003 5.5016L14.9613 4.6457L15.8267 5.59356L14.8685 6.44915L14.003 5.5016ZM12.7662 2.67435L13.7246 1.80344L14.5907 2.76607L13.6315 3.6219L12.7662 2.67435ZM15.2241 8.32909L16.1824 7.47327L17.0636 8.42081L16.09 9.2764L15.2241 8.32909ZM10.9111 6.20477L12.349 4.92103L13.6472 6.34204L12.21 7.62601L10.9111 6.20477Z" fill="#036CB5"/>
</svg>
