<svg width="228" height="76" viewBox="0 0 228 76" fill="none" xmlns="http://www.w3.org/2000/svg">
<g clip-path="url(#clip0_156_1090)">
<path d="M78.1206 20.5742H82.4606L94.5507 46.7114H88.6607L85.7157 39.899H75.0206L72.0756 46.7114H66.1855L78.1206 20.5742ZM83.7007 35.3111L80.4456 27.6646L77.1906 35.3111H83.7007Z" fill="#56ABFF"/>
<path d="M97.6504 20.5742H105.71C119.04 20.5742 121.365 28.6378 121.365 33.7818C121.365 36.5623 120.59 46.7114 105.865 46.7114H97.6504V20.5742ZM105.71 42.1234C108.655 42.1234 115.94 41.8453 115.94 33.9208C115.94 25.7182 108.345 25.4402 105.4 25.4402H103.075V42.1234H105.71Z" fill="#56ABFF"/>
<path d="M125.241 20.5742H133.611C143.376 20.5742 144.616 26.4134 144.616 28.9159C144.616 33.0867 141.516 36.7014 136.711 37.1185L144.926 46.7114H138.261L130.666 37.1185H130.511V46.7114H125.086V20.5742H125.241ZM130.666 33.0867H133.921C135.161 33.0867 139.346 32.9477 139.346 29.194C139.346 25.4403 135.161 25.3012 133.921 25.3012H130.666V33.0867Z" fill="#56ABFF"/>
<path d="M177.321 33.9214C177.321 41.4289 170.656 47.5462 161.976 47.5462C153.296 47.5462 146.631 41.5679 146.631 33.9214C146.631 26.414 153.296 20.2969 161.976 20.2969C170.656 20.2969 177.321 26.2749 177.321 33.9214ZM171.896 33.7824C171.896 28.9165 167.711 24.8847 161.976 24.8847C156.241 24.8847 152.056 28.9165 152.056 33.7824C152.056 38.7874 156.396 42.8192 161.976 42.8192C167.711 42.6802 171.896 38.6484 171.896 33.7824Z" fill="#56ABFF"/>
<path d="M50.3749 0H43.0898V55.8889H50.3749V0Z" fill="#1976D2"/>
<path d="M39.5253 25.7188H32.2402V72.5709H39.5253V25.7188Z" fill="#1E88E5"/>
<path d="M28.8299 22.2461H21.5449V55.8906H28.8299V22.2461Z" fill="#2196F3"/>
<path d="M17.9803 12.7891H10.6953V38.5091H17.9803V12.7891Z" fill="#42A5F5"/>
<path d="M7.28501 29.75H0V47.2676H7.28501V29.75Z" fill="#64B5F6"/>
<path d="M184.769 20.6289H199.649V25.3558H190.194V31.334H199.184V36.0609H190.194V46.766H184.769V20.6289Z" fill="#F44336"/>
<path d="M211.273 33.6975L201.198 20.6289H207.553L214.528 29.6657L221.503 20.6289H227.858L217.783 33.6975L227.858 46.766H221.348L214.373 37.7292L207.398 46.766H201.198L211.273 33.6975Z" fill="#F44336"/>
</g>
<path d="M72.402 71.5306H71.3891V59.126H66.7178V58.2543H77.0733V59.126H72.402V71.5306Z" fill="#1976D2"/>
<path d="M86.4257 71.5306V65.1285C86.4257 64.1357 86.1995 63.4153 85.7472 62.9673C85.2948 62.5132 84.5933 62.2862 83.6426 62.2862C82.3641 62.2862 81.4266 62.5859 80.83 63.1852C80.2399 63.7785 79.9449 64.7441 79.9449 66.082V71.5306H78.9713V57.4007H79.9449V61.8957L79.8957 63.158H79.9646C80.3645 62.5647 80.8693 62.1349 81.4791 61.8685C82.0888 61.6021 82.846 61.4689 83.7508 61.4689C86.1766 61.4689 87.3895 62.6706 87.3895 65.074V71.5306H86.4257Z" fill="#1976D2"/>
<path d="M95.1684 71.7122C93.6146 71.7122 92.4017 71.2703 91.5297 70.3864C90.6643 69.5025 90.2316 68.2645 90.2316 66.6723C90.2316 65.0983 90.6512 63.839 91.4904 62.8946C92.3296 61.9442 93.4605 61.4689 94.8832 61.4689C96.142 61.4689 97.1353 61.8745 97.863 62.6858C98.5908 63.497 98.9546 64.5988 98.9546 65.9912V66.7177H91.2544C91.2675 68.0738 91.6084 69.109 92.2771 69.8234C92.9524 70.5377 93.9162 70.8949 95.1684 70.8949C95.7781 70.8949 96.3125 70.8556 96.7714 70.7769C97.2369 70.6982 97.8237 70.5286 98.5317 70.2683V71.0856C97.9286 71.3278 97.3713 71.4912 96.8599 71.576C96.3485 71.6668 95.7847 71.7122 95.1684 71.7122ZM94.8832 62.268C93.8539 62.268 93.0278 62.5828 92.405 63.2125C91.7821 63.836 91.4183 64.738 91.3134 65.9186H97.922C97.922 64.7744 97.6532 63.8814 97.1156 63.2397C96.578 62.5919 95.8339 62.268 94.8832 62.268Z" fill="#1976D2"/>
<path d="M114.306 66.8448H108.464L106.458 71.5306H105.347L111.129 58.1998H111.769L117.433 71.5306H116.302L114.306 66.8448ZM108.828 66.0094H113.972L112.015 61.2237C111.851 60.8484 111.654 60.3278 111.425 59.6618C111.247 60.243 111.054 60.7697 110.844 61.2419L108.828 66.0094Z" fill="#1976D2"/>
<path d="M123.442 61.4689C123.894 61.4689 124.38 61.5113 124.898 61.5961L124.711 62.4587C124.265 62.3558 123.803 62.3044 123.324 62.3044C122.413 62.3044 121.665 62.6615 121.082 63.3759C120.498 64.0903 120.207 64.9923 120.207 66.082V71.5306H119.233V61.6596H120.059L120.157 63.4395H120.226C120.665 62.713 121.134 62.2045 121.633 61.9139C122.131 61.6172 122.734 61.4689 123.442 61.4689Z" fill="#1976D2"/>
<path d="M129.903 70.9131C130.519 70.9131 131.057 70.8646 131.516 70.7678V71.4942C131.044 71.6395 130.5 71.7122 129.884 71.7122C128.939 71.7122 128.241 71.4791 127.789 71.013C127.343 70.5468 127.12 69.8143 127.12 68.8154V62.4406H125.537V61.9139L127.12 61.5052L127.612 59.2713H128.113V61.6596H131.25V62.4406H128.113V68.6882C128.113 69.445 128.258 70.005 128.546 70.3682C128.835 70.7315 129.287 70.9131 129.903 70.9131Z" fill="#1976D2"/>
<path d="M147.9 66.5815C147.9 68.1918 147.477 69.451 146.631 70.3591C145.786 71.2612 144.619 71.7122 143.13 71.7122C142.193 71.7122 141.367 71.5033 140.652 71.0856C139.937 70.6679 139.39 70.0685 139.01 69.2876C138.629 68.5066 138.439 67.6046 138.439 66.5815C138.439 64.9711 138.862 63.718 139.708 62.822C140.554 61.9199 141.714 61.4689 143.189 61.4689C144.658 61.4689 145.809 61.926 146.641 62.8401C147.48 63.7482 147.9 64.9953 147.9 66.5815ZM139.462 66.5815C139.462 67.9376 139.783 68.997 140.426 69.7598C141.075 70.5165 141.99 70.8949 143.17 70.8949C144.35 70.8949 145.261 70.5165 145.904 69.7598C146.553 68.997 146.877 67.9376 146.877 66.5815C146.877 65.2193 146.549 64.1629 145.894 63.4122C145.245 62.6615 144.33 62.2862 143.15 62.2862C141.97 62.2862 141.059 62.6615 140.416 63.4122C139.78 64.1569 139.462 65.2133 139.462 66.5815Z" fill="#1976D2"/>
<path d="M154.833 62.4406H152.316V71.5306H151.342V62.4406H149.355V61.9139L151.342 61.5779V60.8151C151.342 59.6043 151.581 58.7174 152.06 58.1544C152.545 57.5853 153.335 57.3008 154.43 57.3008C155.02 57.3008 155.61 57.3825 156.2 57.546L155.974 58.3269C155.449 58.1756 154.928 58.0999 154.41 58.0999C153.65 58.0999 153.109 58.3088 152.788 58.7265C152.473 59.1382 152.316 59.8101 152.316 60.7424V61.6596H154.833V62.4406Z" fill="#1976D2"/>
<path d="M166.123 71.5306H165.11V59.126H160.439V58.2543H170.794V59.126H166.123V71.5306Z" fill="#1976D2"/>
<path d="M176.901 61.4689C177.354 61.4689 177.839 61.5113 178.357 61.5961L178.17 62.4587C177.724 62.3558 177.262 62.3044 176.783 62.3044C175.872 62.3044 175.125 62.6615 174.541 63.3759C173.958 64.0903 173.666 64.9923 173.666 66.082V71.5306H172.692V61.6596H173.518L173.617 63.4395H173.685C174.125 62.713 174.594 62.2045 175.092 61.9139C175.59 61.6172 176.193 61.4689 176.901 61.4689Z" fill="#1976D2"/>
<path d="M187.031 71.5306L186.785 69.9687H186.706C186.168 70.6043 185.614 71.0553 185.044 71.3217C184.48 71.582 183.812 71.7122 183.038 71.7122C181.989 71.7122 181.173 71.464 180.589 70.9676C180.006 70.4711 179.714 69.784 179.714 68.9062C179.714 67.9436 180.147 67.1959 181.012 66.6632C181.884 66.1305 183.143 65.8489 184.788 65.8187L186.824 65.7642V65.1104C186.824 64.172 186.618 63.4637 186.205 62.9854C185.792 62.5072 185.126 62.268 184.208 62.268C183.218 62.268 182.192 62.5223 181.13 63.0308L180.766 62.2499C181.94 61.7413 183.1 61.4871 184.248 61.4871C185.421 61.4871 186.296 61.7686 186.873 62.3316C187.457 62.8946 187.749 63.7724 187.749 64.9651V71.5306H187.031ZM183.097 70.8949C184.238 70.8949 185.136 70.5952 185.792 69.9959C186.454 69.3905 186.785 68.552 186.785 67.4805V66.5088L184.916 66.5815C183.415 66.6481 182.343 66.866 181.7 67.2353C181.064 67.5985 180.747 68.1676 180.747 68.9425C180.747 69.56 180.95 70.0413 181.356 70.3864C181.769 70.7254 182.35 70.8949 183.097 70.8949Z" fill="#1976D2"/>
<path d="M195.134 61.4689C195.908 61.4689 196.576 61.5991 197.14 61.8594C197.704 62.1197 198.209 62.5647 198.655 63.1943H198.714C198.674 62.4315 198.655 61.6838 198.655 60.9513V57.4007H199.619V71.5306H198.979L198.733 70.0231H198.655C197.842 71.1492 196.675 71.7122 195.154 71.7122C193.679 71.7122 192.551 71.2884 191.771 70.4409C190.991 69.5933 190.6 68.3583 190.6 66.7358C190.6 65.0286 190.987 63.724 191.761 62.822C192.535 61.9199 193.659 61.4689 195.134 61.4689ZM195.134 62.2862C193.967 62.2862 193.089 62.6646 192.499 63.4213C191.915 64.1781 191.623 65.2768 191.623 66.7177C191.623 69.5146 192.8 70.9131 195.154 70.9131C196.36 70.9131 197.245 70.5892 197.809 69.9414C198.373 69.2936 198.655 68.2251 198.655 66.7358V66.5815C198.655 65.0559 198.376 63.9601 197.819 63.2942C197.268 62.6222 196.373 62.2862 195.134 62.2862Z" fill="#1976D2"/>
<path d="M204.191 71.5306H203.218V61.6596H204.191V71.5306ZM203.08 58.9172C203.08 58.336 203.287 58.0454 203.7 58.0454C203.903 58.0454 204.06 58.1211 204.172 58.2724C204.29 58.4238 204.349 58.6387 204.349 58.9172C204.349 59.1896 204.29 59.4045 204.172 59.5619C204.06 59.7193 203.903 59.798 203.7 59.798C203.287 59.798 203.08 59.5044 203.08 58.9172Z" fill="#1976D2"/>
<path d="M215.235 71.5306V65.1285C215.235 64.1357 215.009 63.4153 214.557 62.9673C214.104 62.5132 213.403 62.2862 212.452 62.2862C211.174 62.2862 210.236 62.5859 209.64 63.1852C209.05 63.7785 208.755 64.7441 208.755 66.082V71.5306H207.781V61.6596H208.607L208.794 63.0127H208.853C209.548 61.9835 210.784 61.4689 212.56 61.4689C214.986 61.4689 216.199 62.6706 216.199 65.074V71.5306H215.235Z" fill="#1976D2"/>
<path d="M228 61.6596V62.2862L225.788 62.4133C226.378 63.0914 226.673 63.836 226.673 64.6472C226.673 65.5977 226.329 66.3696 225.64 66.9629C224.958 67.5501 224.04 67.8437 222.887 67.8437C222.401 67.8437 222.06 67.8256 221.864 67.7892C221.477 67.9769 221.182 68.1979 220.979 68.4521C220.775 68.7064 220.674 68.9758 220.674 69.2603C220.674 69.5751 220.802 69.8052 221.057 69.9505C221.32 70.0958 221.756 70.1684 222.365 70.1684H224.234C225.394 70.1684 226.283 70.3864 226.899 70.8223C227.515 71.2521 227.823 71.8908 227.823 72.7383C227.823 73.7796 227.364 74.5818 226.447 75.1448C225.535 75.7138 224.234 75.9984 222.542 75.9984C221.198 75.9984 220.156 75.7592 219.415 75.281C218.681 74.8027 218.314 74.1368 218.314 73.2832C218.314 72.6051 218.54 72.0421 218.992 71.5941C219.451 71.1461 220.071 70.8404 220.851 70.677C220.53 70.5498 220.271 70.3712 220.074 70.1412C219.884 69.9051 219.789 69.6357 219.789 69.333C219.789 68.6731 220.244 68.0919 221.156 67.5895C220.533 67.3534 220.048 66.9841 219.7 66.4816C219.353 65.9731 219.179 65.3919 219.179 64.738C219.179 63.7513 219.517 62.9612 220.192 62.3679C220.874 61.7686 221.792 61.4689 222.946 61.4689C223.647 61.4689 224.191 61.5325 224.578 61.6596H228ZM219.346 73.2015C219.346 74.5575 220.438 75.2356 222.621 75.2356C225.427 75.2356 226.83 74.4092 226.83 72.7565C226.83 72.1632 226.61 71.7334 226.171 71.467C225.732 71.2006 225.021 71.0674 224.037 71.0674H222.287C220.326 71.0674 219.346 71.7788 219.346 73.2015ZM220.162 64.738C220.162 65.5008 220.412 66.0941 220.91 66.5179C221.415 66.9356 222.087 67.1445 222.926 67.1445C223.817 67.1445 224.499 66.9356 224.971 66.5179C225.45 66.1002 225.689 65.4948 225.689 64.7017C225.689 63.8602 225.443 63.2306 224.952 62.8129C224.467 62.3891 223.785 62.1772 222.906 62.1772C222.054 62.1772 221.382 62.4043 220.89 62.8583C220.405 63.3063 220.162 63.9329 220.162 64.738Z" fill="#1976D2"/>
<defs>
<clipPath id="clip0_156_1090">
<rect width="227.744" height="74.3908" fill="white"/>
</clipPath>
</defs>
</svg>
