<svg width="80" height="35" viewBox="0 0 80 35" fill="none" xmlns="http://www.w3.org/2000/svg">
<path d="M27.4097 10.4296C27.8187 10.4783 28.1953 10.6714 28.469 10.9727C28.7428 11.2741 28.8949 11.6629 28.8962 12.0661V30.0593C28.9012 30.2764 28.8587 30.492 28.7718 30.6918C28.6849 30.8915 28.5552 31.0708 28.3919 31.2178C28.1313 31.4836 27.7844 31.6523 27.4105 31.6949V34.7799C27.4105 34.8375 27.3872 34.8927 27.3458 34.9336C27.3043 34.9745 27.2478 34.9977 27.189 34.9981V34.9981C27.1298 34.998 27.0733 34.975 27.0314 34.9341C26.9894 34.8932 26.9653 34.8378 26.965 34.7799V31.6949C26.5915 31.6518 26.2451 31.4831 25.9845 31.2178C25.821 31.0709 25.6914 30.8917 25.6045 30.6919C25.5176 30.4921 25.4757 30.2764 25.4809 30.0593V12.0661C25.4819 11.6632 25.6332 11.2746 25.9065 10.9732C26.1798 10.6719 26.5563 10.4786 26.965 10.4296V4.8384C26.9653 4.78058 26.9894 4.72524 27.0314 4.6845C27.0733 4.64377 27.1299 4.62098 27.189 4.62109V4.62109C27.2478 4.62131 27.3035 4.64428 27.3449 4.68501C27.3864 4.72574 27.4105 4.78091 27.4105 4.8384L27.4097 10.4296Z" fill="url(#paint0_linear_190_84)"/>
<path d="M21.3192 5.80853C21.7275 5.8584 22.1034 6.05198 22.3765 6.35312C22.6496 6.65427 22.8013 7.04238 22.8033 7.44496V25.4382C22.8084 25.6551 22.7658 25.8706 22.6789 26.0702C22.5919 26.2698 22.4624 26.4489 22.2989 26.5955C22.0392 26.8616 21.6928 27.0307 21.3192 27.0734V31.531C21.3186 31.5884 21.2949 31.6434 21.2533 31.6839C21.2116 31.7245 21.1552 31.7475 21.0965 31.7479C21.0376 31.7479 20.9814 31.7251 20.9397 31.6844C20.898 31.6437 20.8744 31.5886 20.8742 31.531V27.0738C20.5006 27.0308 20.1537 26.8618 19.8936 26.5959C19.7303 26.4492 19.6009 26.2701 19.5141 26.0705C19.4272 25.8709 19.385 25.6555 19.3901 25.4386V7.44538C19.3917 7.04276 19.5434 6.65451 19.8165 6.3533C20.0895 6.05209 20.4653 5.85857 20.8737 5.80895V0.218163C20.8737 0.160374 20.8971 0.104947 20.9389 0.0640451C20.9806 0.0231436 21.037 0.000110073 21.0961 0V0C21.1551 0.000219497 21.212 0.0232881 21.2537 0.064166C21.2954 0.105044 21.3187 0.160408 21.3188 0.218163L21.3192 5.80853Z" fill="url(#paint1_linear_190_84)"/>
<path d="M75.0492 14.2129C74.8705 14.2088 74.6932 14.2406 74.5275 14.3064C74.3619 14.3721 74.2117 14.4705 74.0864 14.5952C73.9615 14.7185 73.8632 14.8647 73.797 15.0257C73.7307 15.1867 73.6981 15.3591 73.701 15.5326C73.6953 15.7748 73.7633 16.0133 73.8968 16.2173C74.0303 16.4214 74.223 16.5819 74.4501 16.6783C75.1602 16.9357 75.8864 17.1488 76.6241 17.3164C77.4703 17.5099 78.2574 17.8962 78.9219 18.444C79.6407 19.1174 80.0008 20.0677 80.0008 21.3086C80.0025 21.8914 79.8858 22.4688 79.6587 23.0075C79.4316 23.5463 79.0977 24.0358 78.6766 24.4479C78.2554 24.86 77.7552 25.1866 77.2046 25.4089C76.6539 25.6313 76.0643 25.7448 75.4686 25.7432H72.075C71.869 25.7446 71.665 25.7049 71.4752 25.6266C71.2853 25.5484 71.1135 25.4333 70.9706 25.2882C70.8193 25.1504 70.6996 24.9829 70.6192 24.7966C70.5388 24.6103 70.4994 24.4095 70.5039 24.2073V24.1814C70.507 23.7732 70.6732 23.3822 70.9667 23.0922C71.2602 22.8021 71.6578 22.6357 72.075 22.6286H75.5963C75.7742 22.6307 75.9509 22.5982 76.1156 22.5328C76.2804 22.4674 76.43 22.3704 76.556 22.2477C76.6821 22.125 76.7817 21.9789 76.8493 21.818C76.917 21.6571 76.9513 21.4845 76.9499 21.3105C76.9495 21.0816 76.8785 20.8583 76.7464 20.6694C76.6143 20.4805 76.4272 20.3348 76.2093 20.2514C76.0801 20.1956 75.3519 19.9832 74.026 19.618C73.1719 19.4179 72.3813 19.0155 71.7236 18.4461C71.0053 17.7609 70.6463 16.7903 70.6463 15.5345C70.651 14.3597 71.13 13.2342 71.979 12.4034C72.828 11.5725 73.9784 11.1037 75.1792 11.0988H77.5745C77.9943 11.1 78.3962 11.2638 78.6928 11.5544C78.9894 11.845 79.1566 12.2388 79.1572 12.6495V12.6754C79.1627 12.8774 79.1241 13.0783 79.0442 13.2647C78.9643 13.451 78.844 13.6186 78.6928 13.7563C78.5483 13.9036 78.3745 14.0203 78.182 14.0993C77.9896 14.1783 77.7832 14.2179 77.5745 14.2157L75.0492 14.2129ZM55.4115 30.9691C54.9967 30.9643 54.6004 30.8009 54.3071 30.5139C54.0138 30.2269 53.8468 29.839 53.8419 29.4332V18.3963C53.8477 16.9502 54.2913 15.5383 55.1166 14.3386C55.942 13.1389 57.1121 12.2053 58.4793 11.6557C59.8465 11.1061 61.3496 10.965 62.7986 11.2504C64.2477 11.5358 65.5777 12.2348 66.6211 13.2592C67.6644 14.2836 68.3738 15.5874 68.6604 17.0061C68.947 18.4248 68.7982 19.8948 68.2316 21.2304C67.665 22.5661 66.7064 23.7077 65.4772 24.5109C64.2481 25.3142 62.8032 25.7431 61.3251 25.7436C59.4397 25.7436 58.0019 25.3196 57.0259 24.4733V29.4332C57.019 29.8393 56.8502 30.2269 56.5561 30.5137C56.2621 30.8004 55.8661 30.9637 55.4509 30.9691H55.4115ZM61.3251 22.6023C61.8933 22.6076 62.457 22.5028 62.9836 22.2937C63.5102 22.0846 63.9892 21.7756 64.3929 21.3843C64.7967 20.9931 65.1168 20.5274 65.3356 20.0142C65.5543 19.5011 65.6676 18.9506 65.6676 18.3946C65.6676 17.8386 65.5543 17.2881 65.3356 16.775C65.1168 16.2618 64.7967 15.7963 64.3929 15.405C63.9892 15.0138 63.5102 14.7047 62.9836 14.4957C62.457 14.2866 61.8933 14.1816 61.3251 14.1869C60.4755 14.1889 59.6452 14.4366 58.939 14.8987C58.2329 15.3608 57.6826 16.0168 57.3564 16.7843C57.0301 17.5517 56.9427 18.3964 57.1056 19.2122C57.2686 20.0279 57.6743 20.7782 58.2719 21.369C58.6673 21.7682 59.1421 22.0838 59.6673 22.296C60.1925 22.5081 60.757 22.6123 61.3251 22.6023V22.6023ZM49.1659 9.44413C48.8673 9.44586 48.5724 9.37537 48.3083 9.23893C48.0443 9.10249 47.8189 8.90422 47.6521 8.66196C47.4852 8.41969 47.3819 8.14091 47.3518 7.85026C47.3216 7.55961 47.3657 7.26628 47.4795 6.99616C47.5932 6.72603 47.7736 6.48756 48.0042 6.30201C48.2348 6.11646 48.5085 5.98949 48.8013 5.9325C49.0942 5.87552 49.3972 5.89019 49.6828 5.97528C49.9685 6.06037 50.2283 6.21333 50.439 6.42032C50.6115 6.58226 50.7484 6.77665 50.8422 6.9918C50.9359 7.20695 50.9846 7.43843 50.9846 7.67232C50.9846 7.90621 50.9359 8.13768 50.8422 8.35284C50.7484 8.56799 50.6115 8.76238 50.439 8.92432C50.2742 9.0913 50.0759 9.22354 49.857 9.31295C49.638 9.40235 49.4031 9.44695 49.1659 9.44413V9.44413ZM49.1798 11.0972C49.3863 11.0929 49.5916 11.1312 49.7819 11.2099C49.9722 11.2885 50.1434 11.4056 50.2842 11.5534C50.4334 11.6953 50.5509 11.8654 50.6309 12.0534C50.7109 12.2413 50.7515 12.4431 50.7493 12.6466V24.2081C50.7445 24.6139 50.5775 25.0017 50.2842 25.2887C49.9909 25.5758 49.5946 25.7392 49.1798 25.744H49.1527C48.9444 25.7469 48.7375 25.7081 48.5452 25.6299C48.3528 25.5516 48.1791 25.4355 48.0344 25.2889C47.8831 25.151 47.7632 24.9835 47.6822 24.7973C47.6013 24.6112 47.5613 24.4104 47.5646 24.2081V12.6466C47.5638 12.4429 47.6046 12.241 47.6853 12.0532C47.7661 11.8654 47.885 11.6954 48.0344 11.5534C48.179 11.4067 48.3529 11.2906 48.5452 11.2121C48.7375 11.1337 48.9443 11.0946 49.1527 11.0972H49.1798ZM31.4761 30.9695C31.0613 30.9644 30.6645 30.801 30.371 30.5141C30.0775 30.2271 29.9098 29.8394 29.9043 29.4336V18.3967C29.9099 16.9502 30.3536 15.5379 31.179 14.3378C32.0044 13.1377 33.175 12.2038 34.5425 11.654C35.9099 11.1041 37.4131 10.9631 38.8625 11.2485C40.3119 11.5339 41.6422 12.2331 42.6857 13.2577C43.7293 14.2823 44.4392 15.5863 44.7258 17.0054C45.0124 18.4244 44.8631 19.8947 44.2963 21.2306C43.7295 22.5666 42.7706 23.7082 41.5411 24.5115C40.3116 25.3148 38.8667 25.7437 37.3882 25.744C35.5044 25.744 34.0658 25.3199 33.0898 24.4736V29.4336C33.0829 29.8396 32.9147 30.227 32.6208 30.5137C32.3269 30.8004 31.9306 30.9639 31.5156 30.9695H31.4761ZM37.3882 22.6026C37.9565 22.608 38.5202 22.5032 39.0467 22.2941C39.5733 22.085 40.0523 21.776 40.4561 21.3847C40.8598 20.9935 41.18 20.5277 41.3987 20.0146C41.6174 19.5014 41.7299 18.951 41.7299 18.395C41.7299 17.839 41.6174 17.2885 41.3987 16.7754C41.18 16.2622 40.8598 15.7967 40.4561 15.4054C40.0523 15.0142 39.5733 14.7051 39.0467 14.4961C38.5202 14.287 37.9565 14.182 37.3882 14.1873C36.5388 14.1897 35.7088 14.4376 35.0029 14.8998C34.2971 15.3621 33.7463 16.018 33.4203 16.7854C33.0943 17.5528 33.0073 18.3973 33.1703 19.2129C33.3333 20.0285 33.7391 20.7787 34.3366 21.3694C34.7318 21.7684 35.2071 22.0839 35.732 22.296C36.2569 22.5081 36.8204 22.6123 37.3882 22.6023V22.6026Z" fill="#3F1C78"/>
<path d="M7.48366 14.2107C6.91584 14.2009 6.35201 14.3052 5.82715 14.5174C5.30229 14.7296 4.8276 15.045 4.43252 15.4442C3.63362 16.2396 3.18597 17.3104 3.18597 18.4256C3.18597 19.5408 3.63362 20.6112 4.43252 21.4066C4.83022 21.8014 5.30571 22.1131 5.83017 22.3228C6.35464 22.5325 6.91716 22.6361 7.48366 22.6268C8.04966 22.6298 8.61064 22.5228 9.13413 22.3122C9.65761 22.1016 10.1332 21.7914 10.5334 21.3998C10.9335 21.0082 11.2503 20.543 11.4653 20.0308C11.6804 19.5186 11.7894 18.9695 11.7862 18.4157C11.7954 17.8625 11.6884 17.3133 11.4718 16.8022C11.2552 16.291 10.9336 15.8287 10.5269 15.4442C10.1331 15.0455 9.65977 14.7303 9.13626 14.5181C8.61275 14.3059 8.05024 14.2013 7.48366 14.2107ZM7.48366 11.0945C8.46908 11.0801 9.44706 11.2632 10.3573 11.6329C11.2675 12.0025 12.0907 12.5509 12.776 13.2438C13.4832 13.9138 14.0429 14.7183 14.4205 15.6077C14.7981 16.4972 14.9856 17.4527 14.9716 18.4157V24.2059C14.976 24.4081 14.9367 24.6087 14.8563 24.795C14.7759 24.9813 14.6563 25.1492 14.5052 25.2872C14.362 25.432 14.1903 25.5467 14.0004 25.6249C13.8106 25.703 13.6065 25.7429 13.4005 25.7419H13.3609C13.155 25.7437 12.9508 25.7042 12.7611 25.626C12.5713 25.5478 12.3998 25.4326 12.2573 25.2872C12.1047 25.1501 11.9838 24.9826 11.9026 24.7961C11.8213 24.6097 11.7816 24.4085 11.7862 24.2059C10.8013 25.2299 9.36718 25.7419 7.48366 25.7419C6.49913 25.756 5.52207 25.5725 4.6127 25.2031C3.70332 24.8338 2.88088 24.2863 2.19607 23.5941C1.49998 22.9152 0.947677 22.1085 0.57083 21.2203C0.193983 20.3322 0 19.38 0 18.4184C0 17.4568 0.193983 16.5049 0.57083 15.6168C0.947677 14.7287 1.49998 13.9219 2.19607 13.243C2.88085 12.5508 3.70327 12.0031 4.61265 11.6337C5.52203 11.2642 6.4991 11.0808 7.48366 11.0949V11.0945Z" fill="#3F1C78"/>
<defs>
<linearGradient id="paint0_linear_190_84" x1="25.4805" y1="28.9835" x2="25.4805" y2="4.83373" gradientUnits="userSpaceOnUse">
<stop stop-color="#F50057"/>
<stop offset="1" stop-color="#651FFF"/>
</linearGradient>
<linearGradient id="paint1_linear_190_84" x1="19.3896" y1="0.158739" x2="19.3896" y2="31.3987" gradientUnits="userSpaceOnUse">
<stop stop-color="#F50057"/>
<stop offset="1" stop-color="#651FFF"/>
</linearGradient>
</defs>
</svg>
