<svg width="118" height="27" viewBox="0 0 118 27" fill="none" xmlns="http://www.w3.org/2000/svg">
<g clip-path="url(#clip0_230_385)">
<path d="M12.4949 21.8298C15.8501 21.8298 18.5699 18.9516 18.5699 15.4012C18.5699 11.8508 15.8501 8.97266 12.4949 8.97266C9.13979 8.97266 6.41992 11.8508 6.41992 15.4012C6.41992 18.9516 9.13979 21.8298 12.4949 21.8298Z" fill="#E58613"/>
<path d="M12.4943 20.5207C15.1674 20.5207 17.3343 18.2277 17.3343 15.399C17.3343 12.5704 15.1674 10.2773 12.4943 10.2773C9.82124 10.2773 7.6543 12.5704 7.6543 15.399C7.6543 18.2277 9.82124 20.5207 12.4943 20.5207Z" fill="white"/>
<path d="M12.7048 14.4643C12.9484 14.4621 13.1903 14.5051 13.4198 14.5912C13.6339 14.6716 13.831 14.7956 13.9998 14.9563C14.1666 15.1288 14.2977 15.336 14.3848 15.5648C14.4699 15.8249 14.5089 16.0993 14.4998 16.3743C14.5048 16.6884 14.4539 17.0007 14.3498 17.295C14.2558 17.5602 14.1032 17.7979 13.9048 17.9881C13.6936 18.1875 13.4448 18.3372 13.1748 18.4272C12.8508 18.5314 12.5134 18.5813 12.1748 18.5754C12.0266 18.5833 11.8781 18.5833 11.7298 18.5754C11.5869 18.5653 11.4448 18.5441 11.3048 18.5119C11.174 18.4879 11.0452 18.4525 10.9198 18.4061C10.8059 18.3672 10.6954 18.3177 10.5898 18.2579V17.0992C10.6982 17.1611 10.8101 17.2159 10.9248 17.2632C11.0522 17.3142 11.1824 17.3566 11.3148 17.3902C11.4482 17.4278 11.5834 17.4578 11.7198 17.4801C11.849 17.5004 11.9793 17.511 12.1098 17.5119C12.4063 17.5341 12.701 17.4482 12.9448 17.2685C13.0469 17.175 13.1264 17.0571 13.1768 16.9246C13.2273 16.7921 13.2471 16.6488 13.2348 16.5066C13.2428 16.3728 13.2217 16.2389 13.1731 16.1151C13.1246 15.9913 13.0499 15.8809 12.9548 15.7923C12.6993 15.6091 12.3925 15.5232 12.0848 15.5489H11.8598L11.6198 15.586L11.3998 15.6283L11.2148 15.6812L10.7148 15.3955L10.9398 12.168H14.0998V13.3002H12.0498L11.9498 14.5436L12.2548 14.4854C12.404 14.4652 12.5545 14.4582 12.7048 14.4643Z" fill="black"/>
<path d="M12.5143 6.9127C13.8647 6.9127 14.9593 5.47717 14.9593 3.70635C14.9593 1.93553 13.8647 0.5 12.5143 0.5C11.164 0.5 10.0693 1.93553 10.0693 3.70635C10.0693 5.47717 11.164 6.9127 12.5143 6.9127Z" fill="#678925"/>
<path d="M16.4041 9.54311C16.5912 9.01292 16.7318 8.46564 16.8241 7.90819C17.2091 8.10925 17.4991 9.69126 17.4591 10.5167C18.5714 11.764 19.2258 13.391 19.3041 15.104C20.1041 13.8077 22.4491 4.83941 15.3741 2.61719C15.7541 7.0193 12.9191 7.51666 12.5891 7.52724C12.2591 7.53782 9.18415 7.11983 9.58915 2.69655C4.93915 3.77063 4.54915 8.29973 4.68415 9.9611C5.6929 9.3541 6.81681 8.99261 7.97415 8.9029C8.05073 8.53637 8.2103 8.19502 8.43915 7.90819C8.43915 8.29973 8.46415 8.52195 8.46915 8.8447C8.69415 8.81296 9.29415 8.74946 10.0741 8.71772C11.1135 8.29913 12.2339 8.15646 13.3374 8.30219C14.441 8.44793 15.4939 8.87763 16.4041 9.5537V9.54311Z" fill="#678925"/>
<path d="M24.7292 22.7442C25.4046 21.5069 24.7774 19.7858 23.3283 18.9001C21.8792 18.0144 20.157 18.2995 19.4817 19.5369C18.8063 20.7743 19.4335 22.4953 20.8826 23.381C22.3317 24.2667 24.0539 23.9816 24.7292 22.7442Z" fill="#2F6FA8"/>
<path d="M18.9245 19.2818C19.0945 18.9643 20.9595 16.3664 24.3695 18.9643C25.8395 14.1601 22.3295 11.5569 20.8995 10.832C20.9031 12.0627 20.6433 13.2783 20.1395 14.3876C20.3977 14.6437 20.5948 14.961 20.7145 15.3135L19.9295 14.8744C19.8445 15.0913 19.6095 15.6468 19.2595 16.3558C19.1168 17.5404 18.6986 18.6689 18.0424 19.6404C17.3862 20.6118 16.5124 21.3958 15.4995 21.922C15.8137 22.3033 16.1565 22.6572 16.5245 22.9802C16.2045 23.2024 15.0245 22.8003 14.2895 22.3929C12.7135 22.8412 11.0381 22.6799 9.56445 21.9379C10.7545 23.7791 16.4995 29.3611 21.5495 24.3082C17.7545 22.4405 18.7645 19.5886 18.9245 19.2818Z" fill="#2F6FA8"/>
<path d="M5.49974 19.517C4.81974 18.279 3.09974 17.9985 1.64974 18.8821C0.199737 19.7657 -0.405263 21.4906 0.274737 22.7234C0.954737 23.9562 2.67474 24.2472 4.11974 23.3583C5.56474 22.4694 6.18974 20.7551 5.49974 19.517Z" fill="#C1A840"/>
<path d="M5.68427 15.4465C5.68427 15.1714 5.68427 14.9174 5.72927 14.6317C5.19373 14.7265 4.66799 14.8753 4.15927 15.0762C4.12927 14.6053 5.35427 13.4889 6.03927 13.1502C6.41188 11.9769 7.06464 10.9252 7.93427 10.0973C8.23405 9.76271 8.56964 9.46617 8.93427 9.21374C7.99927 8.96506 -1.22073 11.182 0.589273 19.018C3.99427 16.4624 5.82427 18.8063 5.99427 19.1079C6.16427 19.4095 7.37427 22.4465 3.54927 24.309C6.74427 28.0127 10.6443 26.1132 11.9393 25.1555C10.9287 24.5452 10.062 23.7004 9.40427 22.6846C9.06693 22.7902 8.71141 22.8137 8.36427 22.7534L9.11427 22.2243C9.00427 22.0709 8.75427 21.6952 8.44927 21.2137C7.5951 20.5474 6.90016 19.6788 6.42003 18.6774C5.93991 17.6759 5.68794 16.5695 5.68427 15.4465Z" fill="#C1A840"/>
</g>
<path d="M34.9365 9.91016H36.6729L39.2295 17.2178L41.7861 9.91016H43.5225L39.9268 19.8633H38.5322L34.9365 9.91016ZM34 9.91016H35.7295L36.0439 17.0332V19.8633H34V9.91016ZM42.7295 9.91016H44.4658V19.8633H42.415V17.0332L42.7295 9.91016Z" fill="black"/>
<path d="M49.5449 20C48.9707 20 48.4557 19.9089 48 19.7266C47.5443 19.5397 47.1569 19.2822 46.8379 18.9541C46.5234 18.626 46.2819 18.2454 46.1133 17.8125C45.9447 17.375 45.8604 16.9102 45.8604 16.418V16.1445C45.8604 15.584 45.9401 15.0713 46.0996 14.6064C46.2591 14.1416 46.487 13.7383 46.7832 13.3965C47.084 13.0547 47.4486 12.7926 47.877 12.6104C48.3053 12.4235 48.7884 12.3301 49.3262 12.3301C49.8503 12.3301 50.3151 12.4167 50.7207 12.5898C51.1263 12.763 51.4658 13.0091 51.7393 13.3281C52.0173 13.6471 52.2269 14.0299 52.3682 14.4766C52.5094 14.9186 52.5801 15.4108 52.5801 15.9531V16.7734H46.7012V15.4609H50.6455V15.3105C50.6455 15.0371 50.5954 14.7933 50.4951 14.5791C50.3994 14.3604 50.2536 14.1872 50.0576 14.0596C49.8617 13.932 49.611 13.8682 49.3057 13.8682C49.0459 13.8682 48.8226 13.9251 48.6357 14.0391C48.4489 14.153 48.2962 14.3125 48.1777 14.5176C48.0638 14.7227 47.9772 14.9642 47.918 15.2422C47.8633 15.5156 47.8359 15.8164 47.8359 16.1445V16.418C47.8359 16.7142 47.877 16.9876 47.959 17.2383C48.0456 17.4889 48.1663 17.7054 48.3213 17.8877C48.4808 18.07 48.6722 18.2113 48.8955 18.3115C49.1234 18.4118 49.3809 18.4619 49.668 18.4619C50.0234 18.4619 50.3538 18.3936 50.6592 18.2568C50.9691 18.1156 51.2357 17.9036 51.459 17.6211L52.416 18.6602C52.2611 18.8835 52.0492 19.0977 51.7803 19.3027C51.516 19.5078 51.1969 19.6764 50.8232 19.8086C50.4495 19.9362 50.0234 20 49.5449 20Z" fill="black"/>
<path d="M57.3242 12.4668V13.8613H53.0176V12.4668H57.3242ZM54.084 10.6416H56.0527V17.6348C56.0527 17.849 56.0801 18.013 56.1348 18.127C56.194 18.2409 56.2806 18.3206 56.3945 18.3662C56.5085 18.4072 56.652 18.4277 56.8252 18.4277C56.9482 18.4277 57.0576 18.4232 57.1533 18.4141C57.2536 18.4004 57.3379 18.3867 57.4062 18.373L57.4131 19.8223C57.2445 19.877 57.0622 19.9202 56.8662 19.9521C56.6702 19.984 56.4538 20 56.2168 20C55.7839 20 55.4056 19.9294 55.082 19.7881C54.763 19.6423 54.5169 19.4098 54.3438 19.0908C54.1706 18.7718 54.084 18.3525 54.084 17.833V10.6416Z" fill="black"/>
<path d="M62.4375 18.1953V14.9004C62.4375 14.6634 62.3988 14.4606 62.3213 14.292C62.2438 14.1188 62.123 13.9844 61.959 13.8887C61.7995 13.793 61.5921 13.7451 61.3369 13.7451C61.1182 13.7451 60.929 13.7839 60.7695 13.8613C60.61 13.9342 60.487 14.0413 60.4004 14.1826C60.3138 14.3193 60.2705 14.4811 60.2705 14.668H58.3018C58.3018 14.3535 58.3747 14.055 58.5205 13.7725C58.6663 13.4899 58.8783 13.2415 59.1562 13.0273C59.4342 12.8086 59.7646 12.6377 60.1475 12.5146C60.5348 12.3916 60.9678 12.3301 61.4463 12.3301C62.0205 12.3301 62.5309 12.4258 62.9775 12.6172C63.4242 12.8086 63.7751 13.0957 64.0303 13.4785C64.29 13.8613 64.4199 14.3398 64.4199 14.9141V18.0791C64.4199 18.4847 64.445 18.8174 64.4951 19.0771C64.5452 19.3324 64.6182 19.5557 64.7139 19.7471V19.8633H62.7246C62.6289 19.6628 62.556 19.4121 62.5059 19.1113C62.4603 18.806 62.4375 18.5007 62.4375 18.1953ZM62.6973 15.3584L62.7109 16.4727H61.6104C61.3506 16.4727 61.125 16.5023 60.9336 16.5615C60.7422 16.6208 60.585 16.7051 60.4619 16.8145C60.3389 16.9193 60.2477 17.0423 60.1885 17.1836C60.1338 17.3249 60.1064 17.4798 60.1064 17.6484C60.1064 17.8171 60.1452 17.9697 60.2227 18.1064C60.3001 18.2386 60.4118 18.3434 60.5576 18.4209C60.7035 18.4938 60.8743 18.5303 61.0703 18.5303C61.3665 18.5303 61.624 18.471 61.8428 18.3525C62.0615 18.234 62.2301 18.0882 62.3486 17.915C62.4717 17.7419 62.5355 17.5778 62.54 17.4229L63.0596 18.2568C62.9867 18.4437 62.8864 18.6374 62.7588 18.8379C62.6357 19.0384 62.4785 19.2275 62.2871 19.4053C62.0957 19.5785 61.8656 19.722 61.5967 19.8359C61.3278 19.9453 61.0088 20 60.6396 20C60.1702 20 59.7441 19.9066 59.3613 19.7197C58.9831 19.5283 58.6823 19.2663 58.459 18.9336C58.2402 18.5964 58.1309 18.2135 58.1309 17.7852C58.1309 17.3978 58.2038 17.0537 58.3496 16.7529C58.4954 16.4521 58.7096 16.1992 58.9922 15.9941C59.2793 15.7845 59.637 15.6273 60.0654 15.5225C60.4938 15.4131 60.9906 15.3584 61.5557 15.3584H62.6973Z" fill="black"/>
<path d="M70.5107 9.91016V19.8633H68.4668V9.91016H70.5107ZM73.5732 9.91016V11.5166H65.4521V9.91016H73.5732Z" fill="black"/>
<path d="M76.1094 14.0801V19.8633H74.1406V12.4668H75.9932L76.1094 14.0801ZM78.3379 12.4189L78.3037 14.2441C78.208 14.2305 78.0918 14.2191 77.9551 14.21C77.8229 14.1963 77.7021 14.1895 77.5928 14.1895C77.3148 14.1895 77.0732 14.2259 76.8682 14.2988C76.6676 14.3672 76.499 14.4697 76.3623 14.6064C76.2301 14.7432 76.1299 14.9095 76.0615 15.1055C75.9977 15.3014 75.9613 15.5247 75.9521 15.7754L75.5557 15.6523C75.5557 15.1738 75.6035 14.734 75.6992 14.333C75.7949 13.9274 75.9339 13.5742 76.1162 13.2734C76.3031 12.9727 76.5309 12.7402 76.7998 12.5762C77.0687 12.4121 77.3763 12.3301 77.7227 12.3301C77.832 12.3301 77.9437 12.3392 78.0576 12.3574C78.1715 12.3711 78.265 12.3916 78.3379 12.4189Z" fill="black"/>
<path d="M83.0273 18.1953V14.9004C83.0273 14.6634 82.9886 14.4606 82.9111 14.292C82.8337 14.1188 82.7129 13.9844 82.5488 13.8887C82.3893 13.793 82.182 13.7451 81.9268 13.7451C81.708 13.7451 81.5189 13.7839 81.3594 13.8613C81.1999 13.9342 81.0768 14.0413 80.9902 14.1826C80.9036 14.3193 80.8604 14.4811 80.8604 14.668H78.8916C78.8916 14.3535 78.9645 14.055 79.1104 13.7725C79.2562 13.4899 79.4681 13.2415 79.7461 13.0273C80.0241 12.8086 80.3545 12.6377 80.7373 12.5146C81.1247 12.3916 81.5576 12.3301 82.0361 12.3301C82.6104 12.3301 83.1208 12.4258 83.5674 12.6172C84.014 12.8086 84.3649 13.0957 84.6201 13.4785C84.8799 13.8613 85.0098 14.3398 85.0098 14.9141V18.0791C85.0098 18.4847 85.0348 18.8174 85.085 19.0771C85.1351 19.3324 85.208 19.5557 85.3037 19.7471V19.8633H83.3145C83.2188 19.6628 83.1458 19.4121 83.0957 19.1113C83.0501 18.806 83.0273 18.5007 83.0273 18.1953ZM83.2871 15.3584L83.3008 16.4727H82.2002C81.9404 16.4727 81.7148 16.5023 81.5234 16.5615C81.332 16.6208 81.1748 16.7051 81.0518 16.8145C80.9287 16.9193 80.8376 17.0423 80.7783 17.1836C80.7236 17.3249 80.6963 17.4798 80.6963 17.6484C80.6963 17.8171 80.735 17.9697 80.8125 18.1064C80.89 18.2386 81.0016 18.3434 81.1475 18.4209C81.2933 18.4938 81.4642 18.5303 81.6602 18.5303C81.9564 18.5303 82.2139 18.471 82.4326 18.3525C82.6514 18.234 82.82 18.0882 82.9385 17.915C83.0615 17.7419 83.1253 17.5778 83.1299 17.4229L83.6494 18.2568C83.5765 18.4437 83.4762 18.6374 83.3486 18.8379C83.2256 19.0384 83.0684 19.2275 82.877 19.4053C82.6855 19.5785 82.4554 19.722 82.1865 19.8359C81.9176 19.9453 81.5986 20 81.2295 20C80.7601 20 80.334 19.9066 79.9512 19.7197C79.5729 19.5283 79.2721 19.2663 79.0488 18.9336C78.8301 18.5964 78.7207 18.2135 78.7207 17.7852C78.7207 17.3978 78.7936 17.0537 78.9395 16.7529C79.0853 16.4521 79.2995 16.1992 79.582 15.9941C79.8691 15.7845 80.2269 15.6273 80.6553 15.5225C81.0837 15.4131 81.5804 15.3584 82.1455 15.3584H83.2871Z" fill="black"/>
<path d="M90.8955 18.25V9.36328H92.8779V19.8633H91.0938L90.8955 18.25ZM86.2197 16.2539V16.1104C86.2197 15.5452 86.2835 15.0326 86.4111 14.5723C86.5387 14.1074 86.7256 13.7087 86.9717 13.376C87.2178 13.0433 87.5208 12.7858 87.8809 12.6035C88.2409 12.4212 88.651 12.3301 89.1113 12.3301C89.5443 12.3301 89.9225 12.4212 90.2461 12.6035C90.5742 12.7858 90.8522 13.0456 91.0801 13.3828C91.3125 13.7155 91.4993 14.1097 91.6406 14.5654C91.7819 15.0166 91.8844 15.5111 91.9482 16.0488V16.3633C91.8844 16.8783 91.7819 17.3568 91.6406 17.7988C91.4993 18.2409 91.3125 18.6283 91.0801 18.9609C90.8522 19.2891 90.5742 19.5443 90.2461 19.7266C89.918 19.9089 89.5352 20 89.0977 20C88.6374 20 88.2272 19.9066 87.8672 19.7197C87.5117 19.5329 87.2109 19.2708 86.9648 18.9336C86.7233 18.5964 86.5387 18.1999 86.4111 17.7441C86.2835 17.2884 86.2197 16.7917 86.2197 16.2539ZM88.1885 16.1104V16.2539C88.1885 16.5592 88.2113 16.8441 88.2568 17.1084C88.307 17.3727 88.3867 17.6074 88.4961 17.8125C88.61 18.013 88.7559 18.1702 88.9336 18.2842C89.1159 18.3936 89.3369 18.4482 89.5967 18.4482C89.9339 18.4482 90.2119 18.373 90.4307 18.2227C90.6494 18.0677 90.8158 17.8558 90.9297 17.5869C91.0482 17.318 91.1165 17.0081 91.1348 16.6572V15.7617C91.1211 15.4746 91.0801 15.2171 91.0117 14.9893C90.9479 14.7568 90.8522 14.5586 90.7246 14.3945C90.6016 14.2305 90.4466 14.1029 90.2598 14.0117C90.0775 13.9206 89.861 13.875 89.6104 13.875C89.3551 13.875 89.1364 13.9342 88.9541 14.0527C88.7718 14.1667 88.6237 14.3239 88.5098 14.5244C88.4004 14.7249 88.3184 14.9619 88.2637 15.2354C88.2135 15.5042 88.1885 15.7959 88.1885 16.1104Z" fill="black"/>
<path d="M97.8203 20C97.2461 20 96.7311 19.9089 96.2754 19.7266C95.8197 19.5397 95.4323 19.2822 95.1133 18.9541C94.7988 18.626 94.5573 18.2454 94.3887 17.8125C94.2201 17.375 94.1357 16.9102 94.1357 16.418V16.1445C94.1357 15.584 94.2155 15.0713 94.375 14.6064C94.5345 14.1416 94.7624 13.7383 95.0586 13.3965C95.3594 13.0547 95.724 12.7926 96.1523 12.6104C96.5807 12.4235 97.0638 12.3301 97.6016 12.3301C98.1257 12.3301 98.5905 12.4167 98.9961 12.5898C99.4017 12.763 99.7412 13.0091 100.015 13.3281C100.293 13.6471 100.502 14.0299 100.644 14.4766C100.785 14.9186 100.855 15.4108 100.855 15.9531V16.7734H94.9766V15.4609H98.9209V15.3105C98.9209 15.0371 98.8708 14.7933 98.7705 14.5791C98.6748 14.3604 98.529 14.1872 98.333 14.0596C98.137 13.932 97.8864 13.8682 97.5811 13.8682C97.3213 13.8682 97.098 13.9251 96.9111 14.0391C96.7243 14.153 96.5716 14.3125 96.4531 14.5176C96.3392 14.7227 96.2526 14.9642 96.1934 15.2422C96.1387 15.5156 96.1113 15.8164 96.1113 16.1445V16.418C96.1113 16.7142 96.1523 16.9876 96.2344 17.2383C96.321 17.4889 96.4417 17.7054 96.5967 17.8877C96.7562 18.07 96.9476 18.2113 97.1709 18.3115C97.3988 18.4118 97.6562 18.4619 97.9434 18.4619C98.2988 18.4619 98.6292 18.3936 98.9346 18.2568C99.2445 18.1156 99.5111 17.9036 99.7344 17.6211L100.691 18.6602C100.536 18.8835 100.325 19.0977 100.056 19.3027C99.7913 19.5078 99.4723 19.6764 99.0986 19.8086C98.7249 19.9362 98.2988 20 97.8203 20Z" fill="black"/>
<path d="M103.945 14.0801V19.8633H101.977V12.4668H103.829L103.945 14.0801ZM106.174 12.4189L106.14 14.2441C106.044 14.2305 105.928 14.2191 105.791 14.21C105.659 14.1963 105.538 14.1895 105.429 14.1895C105.151 14.1895 104.909 14.2259 104.704 14.2988C104.504 14.3672 104.335 14.4697 104.198 14.6064C104.066 14.7432 103.966 14.9095 103.897 15.1055C103.834 15.3014 103.797 15.5247 103.788 15.7754L103.392 15.6523C103.392 15.1738 103.439 14.734 103.535 14.333C103.631 13.9274 103.77 13.5742 103.952 13.2734C104.139 12.9727 104.367 12.7402 104.636 12.5762C104.905 12.4121 105.212 12.3301 105.559 12.3301C105.668 12.3301 105.78 12.3392 105.894 12.3574C106.007 12.3711 106.101 12.3916 106.174 12.4189Z" fill="black"/>
<path d="M117.555 14.6875V16.8945H107.311L107.174 15.1855L113.102 5.78125H115.338L112.916 9.83398L109.967 14.6875H117.555ZM115.943 5.78125V20H113.131V5.78125H115.943Z" fill="#F79E1B"/>
<defs>
<clipPath id="clip0_230_385">
<rect width="25" height="26" fill="white" transform="translate(0 0.5)"/>
</clipPath>
</defs>
</svg>
